<?xml version="1.0" standalone="no"?>
<!DOCTYPE svg PUBLIC "-//W3C//DTD SVG 20010904//EN"
 "http://www.w3.org/TR/2001/REC-SVG-20010904/DTD/svg10.dtd">
<svg version="1.0" xmlns="http://www.w3.org/2000/svg"
 width="532.000000pt" height="532.000000pt" viewBox="0 0 532.000000 532.000000"
 preserveAspectRatio="xMidYMid meet">
<metadata>
Created by potrace 1.14, written by Peter Selinger 2001-2017
</metadata>
<g transform="translate(0.000000,532.000000) scale(0.100000,-0.100000)"
fill="#000000" stroke="none">
<path d="M772 5087 c-42 -20 -53 -29 -55 -48 -2 -8 -6 -19 -9 -25 -4 -6 -9
-23 -12 -38 -3 -15 -9 -33 -15 -40 -5 -6 -12 -23 -14 -36 -2 -14 -7 -32 -10
-40 -5 -13 -63 -266 -72 -315 -3 -17 -23 -89 -42 -147 -3 -10 -9 -18 -14 -18
-5 0 -8 -3 -7 -7 5 -17 -56 -96 -135 -174 -82 -82 -138 -171 -151 -240 -3 -13
-5 -24 -6 -24 -3 0 -11 -44 -19 -115 -5 -41 -12 -82 -15 -90 -3 -8 -8 -33 -10
-55 -3 -22 -5 -40 -6 -40 -1 0 -3 -8 -5 -17 -8 -40 -39 -124 -74 -196 -83
-170 -102 -276 -76 -426 15 -88 45 -151 89 -189 12 -10 36 -32 53 -48 18 -16
37 -29 43 -29 5 0 10 -4 10 -9 0 -16 104 -51 160 -54 30 -2 75 0 100 4 30 4
60 2 87 -7 52 -18 194 -20 288 -5 114 19 122 21 192 37 38 9 79 18 92 20 12 3
53 12 90 20 36 9 75 17 86 19 11 1 52 10 90 20 87 21 112 26 152 30 17 1 36 5
41 9 6 3 13 0 15 -6 4 -10 6 -10 6 -1 1 9 8 10 26 3 14 -5 36 -10 48 -9 33 0
94 -10 177 -32 41 -11 80 -21 85 -22 6 -2 32 -14 58 -27 170 -86 257 -357 183
-572 -29 -84 -72 -131 -133 -147 -21 -5 -90 -9 -153 -8 -127 3 -165 -5 -173
-34 -3 -11 -6 -23 -8 -27 -4 -11 -46 -42 -57 -42 -27 0 -39 -92 -17 -122 14
-18 16 -19 11 -4 -6 18 -5 18 18 2 14 -9 34 -16 46 -16 11 0 20 -5 20 -11 0
-5 4 -8 9 -5 5 3 12 -1 15 -10 9 -23 8 -26 -11 -22 -10 1 -24 -1 -30 -5 -8 -5
-13 -4 -13 3 0 8 -6 7 -21 -1 -17 -9 -23 -8 -30 2 -7 11 -9 11 -9 1 0 -10 -5
-10 -20 -2 -14 8 -20 8 -20 0 0 -6 -4 -9 -9 -5 -5 3 -12 1 -16 -5 -3 -5 -2
-10 4 -10 5 0 11 -10 13 -22 2 -13 8 -23 15 -23 6 0 15 -4 20 -9 4 -5 3 -6 -4
-2 -8 4 -11 -1 -10 -13 1 -16 4 -18 16 -8 12 9 13 9 7 0 -5 -9 -1 -13 12 -13
11 0 25 -7 32 -15 7 -8 17 -12 24 -8 6 3 8 3 4 -2 -11 -12 29 -38 45 -29 9 5
9 4 0 -6 -10 -11 -15 -11 -28 0 -8 7 -15 10 -15 6 0 -3 15 -15 33 -26 23 -14
27 -20 13 -20 -11 0 -16 -5 -13 -14 4 -10 0 -12 -15 -8 -12 3 -19 1 -15 -4 3
-6 -6 -11 -20 -12 -13 -1 -30 -5 -36 -9 -14 -9 -9 -7 -122 -34 -96 -23 -277
-30 -369 -16 -61 10 -58 10 -75 8 -36 -3 43 -190 128 -302 26 -35 95 -113 152
-172 117 -123 136 -154 117 -194 -14 -28 -17 -30 -98 -67 -85 -39 -136 -90
-160 -161 -28 -82 -22 -101 47 -131 54 -24 63 -25 272 -24 293 1 366 6 436 29
51 17 80 19 200 16 218 -6 244 -14 237 -76 -2 -13 36 -40 59 -44 13 -2 47 -7
74 -11 28 -4 57 -9 65 -11 20 -4 62 -11 133 -21 78 -12 351 -5 387 8 3 1 12 2
20 1 14 -1 112 16 190 34 14 3 40 8 59 11 18 3 41 7 50 9 28 5 180 16 276 20
140 5 475 16 632 19 131 4 146 6 186 29 57 34 130 105 121 119 -4 6 -3 8 3 5
5 -4 16 6 24 21 8 15 16 29 20 32 3 3 13 21 22 40 10 19 26 49 36 65 10 17 16
33 14 38 -2 4 0 7 5 7 5 0 19 24 33 53 13 28 27 54 30 57 3 3 9 15 13 28 4 12
12 22 17 22 5 0 9 5 9 11 0 5 -5 7 -11 4 -6 -4 -5 2 2 13 7 12 17 18 23 15 5
-4 7 1 3 10 -4 10 0 20 11 26 10 7 12 11 4 11 -10 0 -10 3 0 14 7 8 16 12 20
9 5 -2 4 7 -2 21 -7 20 -6 24 5 20 10 -4 13 0 10 15 -2 12 1 20 8 18 7 -1 11
4 9 11 -1 7 5 15 13 18 8 3 12 10 9 15 -3 6 0 17 8 26 7 9 13 19 13 22 0 3 4
5 8 3 5 -1 5 7 2 19 -6 17 -4 21 7 17 8 -4 15 1 16 13 1 11 3 28 4 38 1 11 5
18 8 16 3 -1 13 13 23 32 9 19 13 32 8 29 -5 -4 -3 7 5 24 8 16 16 39 17 50 1
11 5 20 10 20 5 0 7 9 4 20 -3 11 -1 20 5 20 5 0 6 4 3 10 -3 5 -2 10 3 10 6
0 8 10 4 22 -3 13 -1 19 5 15 6 -4 9 4 7 18 -1 14 2 27 6 30 5 3 7 14 5 25 -2
11 1 20 6 20 6 0 7 5 3 12 -5 8 -2 9 9 5 16 -6 15 -4 0 20 -10 15 -13 24 -6
20 8 -5 14 4 19 28 3 19 11 35 18 35 6 0 4 5 -4 10 -8 5 -10 10 -5 10 6 0 3 5
-5 10 -13 8 -12 10 3 10 10 0 16 4 13 9 -4 5 0 12 6 14 10 4 10 6 0 6 -7 1
-10 6 -6 12 4 6 7 26 8 43 1 17 4 36 8 41 4 6 3 17 -2 25 -6 10 -3 21 8 34 9
11 11 16 5 12 -8 -4 -13 -1 -13 9 0 9 4 13 10 10 7 -4 7 3 0 19 -6 18 -6 26 1
26 6 0 7 5 4 10 -4 6 -1 18 7 27 7 9 8 14 2 11 -11 -7 -11 103 1 122 3 5 1 10
-6 10 -8 0 -8 4 1 15 10 12 10 15 -1 15 -12 0 -12 2 0 9 10 6 10 10 1 16 -8 5
-6 11 7 21 12 9 13 12 3 9 -11 -4 -15 2 -16 20 -1 15 2 22 9 18 6 -4 7 -1 1 8
-5 8 -9 22 -10 32 -1 9 -2 18 -4 20 -7 8 -5 47 3 47 5 0 4 6 -2 14 -9 11 -9
15 1 19 11 4 10 6 0 6 -7 1 -10 6 -7 11 3 6 2 10 -4 10 -7 0 -7 8 -1 26 7 18
7 23 -1 18 -8 -5 -10 3 -7 25 4 25 2 31 -10 26 -11 -4 -12 -2 -6 7 9 12 10 32
4 51 -1 4 -4 12 -5 17 -1 6 -3 11 -5 13 -1 1 -3 9 -5 18 -1 9 -6 27 -10 39 -5
17 -4 21 6 16 9 -5 8 -2 -1 6 -9 7 -15 23 -14 36 1 12 -3 22 -7 22 -5 0 -9 11
-9 24 0 13 -7 42 -15 65 -8 22 -12 41 -8 41 3 0 1 6 -5 13 -6 6 -10 14 -10 17
3 14 -29 93 -62 156 -102 195 -263 390 -501 606 -165 150 -283 245 -399 323
-41 28 -77 53 -80 56 -7 7 -180 119 -185 119 -2 0 -39 22 -82 48 -43 27 -118
70 -168 95 -49 26 -95 51 -102 57 -7 5 -17 10 -23 10 -10 0 -69 31 -210 109
-36 20 -91 50 -123 66 -84 44 -146 102 -210 199 -32 47 -57 88 -57 92 0 18
-57 78 -103 109 -113 74 -266 89 -422 40 -57 -18 -176 -75 -187 -90 -4 -5 -8
-7 -8 -3 0 4 -25 -4 -55 -17 -199 -88 -546 -115 -820 -63 -84 16 -127 36 -249
117 -59 39 -110 71 -112 71 -3 0 -12 7 -20 15 -36 36 -148 49 -202 22z"/>
</g>
</svg>
