<?xml version="1.0" encoding="utf-8"?>
<!-- Generator: Adobe Illustrator 27.9.0, SVG Export Plug-In . SVG Version: 6.00 Build 0)  -->
<svg version="1.1" xmlns="http://www.w3.org/2000/svg" xmlns:xlink="http://www.w3.org/1999/xlink" x="0px" y="0px"
	 viewBox="0 0 42 42" style="enable-background:new 0 0 42 42;" xml:space="preserve">
<style type="text/css">
	.st0{display:none;}
	.st1{display:inline;}
	.st2{fill:#FFFFFF;}
	.st3{display:inline;fill:#FFFFFF;}
	.st4{fill:#8DC63F;}
	.st5{fill:#F9E988;}
	.st6{fill:#8BC53F;}
	.st7{fill:#009345;}
	.st8{fill:#58595B;}
</style>
<g id="Layer_1" class="st0">
	<g id="Layer_2_00000124135028766318550500000010995392347831517082_" class="st1">
		<path d="M42,37c0,2.8-2.2,5-5,5H9c-2.8,0-5-2.2-5-5V9c0-2.8,2.2-5,5-5h28"/>
	</g>
	<g id="Layer_1_00000000201888521056810490000015483352506411068054_" class="st1">
		<g id="XMLID_00000168824196801138155310000001267447264254332329_">
			<g>
				<polygon class="st2" points="16,11 30.1,31 27,31 12.9,11 				"/>
				<path class="st2" d="M40,35c0,2.8-2.2,5-5,5H7c-2.8,0-5-2.2-5-5V7c0-2.8,2.2-5,5-5h28c2.8,0,5,2.2,5,5"/>
			</g>
		</g>
	</g>
</g>
<g id="Layer_2" class="st0">
	<path class="st1" d="M36,20.9c0,8.4-6.7,15.2-15.1,15.2c-8.4,0-15.2-6.7-15.2-15.1c0-8.4,6.7-15.2,15.1-15.2
		C29.2,5.8,36,12.6,36,20.9z"/>
	<path class="st3" d="M34.9,20.9c0,7.7-6.2,14-13.9,14.1s-14-6.2-14.1-13.9c0-7.7,6.2-14,13.9-14.1C28.6,7,34.8,13.2,34.9,20.9
		C34.9,20.9,34.9,20.9,34.9,20.9z"/>
	<path class="st3" d="M21.1,7.9c0.9-0.2,1.8-0.2,2.7,0c0.9,0.1,1.8,0.4,2.6,0.9c0.8,0.4,1.5,1,2.2,1.6c0.7,0.6,1.4,1.1,2,1.8
		c0.7,0.6,1.2,1.3,1.7,2.1c0.5,0.8,0.9,1.6,1.2,2.4c0.6,1.7,0.8,3.5,0.5,5.3h-0.1c-0.3-1.7-0.7-3.4-1.3-5c-0.3-0.8-0.6-1.6-1-2.3
		c-0.4-0.8-0.9-1.5-1.4-2.2c-0.5-0.7-1.1-1.3-1.8-1.8c-0.7-0.5-1.5-0.8-2.3-1.1c-0.8-0.3-1.6-0.6-2.4-0.9S22,8.2,21.1,7.9L21.1,7.9z
		"/>
	<path class="st1" d="M28,16c-1-0.3-2.1-0.7-3.1-1.1c-0.1-0.3-0.3-0.6-0.8-1c-0.7-0.6-2-0.6-3.1-0.3c-1.2-0.3-2.5-0.4-3.7-0.1
		c-9.7,2.7-4.2,9.2-7.7,15.7c0.5,1.1,6,7.3,13.8,5.6c0,0-2.7-6.5,3.4-9.6C31.7,22.7,35.3,18,28,16L28,16z"/>
	<path class="st3" d="M29.2,20.3c0,0.3-0.3,0.6-0.6,0.6c-0.3,0-0.6-0.3-0.6-0.6s0.3-0.6,0.6-0.6c0,0,0,0,0,0
		C28.9,19.7,29.2,19.9,29.2,20.3C29.2,20.3,29.2,20.3,29.2,20.3z"/>
	<path class="st1" d="M20.9,13.5c0.7,0.1,3.3,0.9,3.9,1.3C24.3,13.3,22.5,13.1,20.9,13.5z"/>
	<path class="st3" d="M21.6,17.6c0,1.5-1.2,2.7-2.7,2.7s-2.7-1.2-2.7-2.7c0-1.5,1.2-2.7,2.7-2.7S21.6,16.1,21.6,17.6z"/>
	<path class="st1" d="M20.8,17.6c0,1.1-0.9,1.9-1.9,1.9c-1.1,0-1.9-0.9-1.9-1.9c0-1.1,0.9-1.9,1.9-1.9c0,0,0,0,0,0
		C20,15.7,20.8,16.5,20.8,17.6z"/>
	<path class="st1" d="M31.4,21.4c-2.2,1.5-4.7,2.7-8.2,2.7c-1.7,0-2-1.8-3.1-0.9c-0.6,0.4-2.6,1.4-4.1,1.4s-4.1-1-4.9-4.4
		c-0.3,3.4-0.4,5.9-1.7,8.7c2.5,4,8.5,7.1,14,5.8c-0.6-4.1,3-8.1,5-10.2C29.1,23.8,30.6,22.6,31.4,21.4L31.4,21.4z"/>
	<path class="st3" d="M31.3,21.5c-0.7,0.6-1.5,1.1-2.3,1.5c-0.8,0.4-1.7,0.7-2.6,0.9c-0.9,0.2-1.8,0.4-2.8,0.3s-1.9-0.4-2.5-1.1l0,0
		c0.8,0.5,1.7,0.7,2.5,0.7c0.9,0,1.8,0,2.7-0.2c0.9-0.2,1.8-0.5,2.6-0.8C29.7,22.5,30.5,22.1,31.3,21.5L31.3,21.5z"/>
</g>
<g id="Layer_3">
	<path class="st4" d="M36.7,21.9c0,8.4-6.7,15.2-15.1,15.2c-8.4,0-15.2-6.7-15.2-15.1c0-8.4,6.7-15.2,15.1-15.2
		C29.9,6.8,36.7,13.5,36.7,21.9z"/>
	<path class="st5" d="M35.6,21.9c0,7.7-6.2,14-13.9,14.1S7.7,29.7,7.6,22c0-7.7,6.2-14,13.9-14.1C29.3,7.9,35.6,14.2,35.6,21.9
		C35.6,21.9,35.6,21.9,35.6,21.9z"/>
	<path class="st2" d="M21.9,8.9c0.9-0.2,1.8-0.2,2.7,0c0.9,0.1,1.8,0.4,2.6,0.9c0.8,0.4,1.5,1,2.2,1.6c0.7,0.6,1.4,1.1,2,1.8
		c0.7,0.6,1.2,1.3,1.7,2.1c0.5,0.8,0.9,1.6,1.2,2.4c0.6,1.7,0.8,3.5,0.5,5.3h-0.1c-0.3-1.7-0.7-3.4-1.3-5c-0.3-0.8-0.6-1.6-1-2.3
		c-0.4-0.8-0.9-1.5-1.4-2.2c-0.5-0.7-1.1-1.3-1.8-1.8c-0.7-0.5-1.5-0.8-2.3-1.1c-0.8-0.3-1.6-0.6-2.4-0.9S22.7,9.1,21.9,8.9
		L21.9,8.9z"/>
	<path class="st6" d="M28.7,17c-1-0.3-2.1-0.7-3.1-1.1c-0.1-0.3-0.3-0.6-0.8-1c-0.7-0.6-2-0.6-3.1-0.3c-1.2-0.3-2.5-0.4-3.7-0.1
		c-9.7,2.7-4.2,9.2-7.7,15.7c0.5,1.1,6,7.3,13.8,5.6c0,0-2.7-6.5,3.4-9.6C32.4,23.6,36,18.9,28.7,17L28.7,17z"/>
	<path class="st2" d="M29.9,21.2c0,0.3-0.3,0.6-0.6,0.6c-0.3,0-0.6-0.3-0.6-0.6s0.3-0.6,0.6-0.6c0,0,0,0,0,0
		C29.6,20.6,29.9,20.9,29.9,21.2C29.9,21.2,29.9,21.2,29.9,21.2z"/>
	<path class="st7" d="M21.7,14.5c0.7,0.1,3.3,0.9,3.9,1.3C25,14.2,23.2,14,21.7,14.5z"/>
	<path class="st2" d="M22.3,18.5c0,1.5-1.2,2.7-2.7,2.7s-2.7-1.2-2.7-2.7s1.2-2.7,2.7-2.7S22.3,17,22.3,18.5z"/>
	<path class="st8" d="M21.5,18.5c0,1.1-0.9,1.9-1.9,1.9s-1.9-0.9-1.9-1.9c0-1.1,0.9-1.9,1.9-1.9c0,0,0,0,0,0
		C20.7,16.6,21.5,17.5,21.5,18.5z"/>
	<path class="st6" d="M32.1,22.4c-2.2,1.5-4.7,2.7-8.2,2.7c-1.7,0-2-1.8-3.1-0.9c-0.6,0.4-2.6,1.4-4.1,1.4c-1.6-0.1-4.1-1-4.9-4.4
		c-0.3,3.4-0.4,5.9-1.7,8.7c2.5,4,8.5,7.1,14,5.8c-0.6-4.1,3-8.1,5-10.2C29.9,24.8,31.3,23.5,32.1,22.4L32.1,22.4z"/>
	<path class="st8" d="M32,22.5c-0.7,0.6-1.5,1.1-2.3,1.5c-0.8,0.4-1.7,0.7-2.6,0.9c-0.9,0.2-1.8,0.4-2.8,0.3
		c-0.9-0.1-1.9-0.4-2.5-1.1l0,0c0.8,0.5,1.7,0.7,2.5,0.7c0.9,0,1.8,0,2.7-0.2c0.9-0.2,1.8-0.5,2.6-0.8C30.4,23.5,31.2,23,32,22.5
		L32,22.5z"/>
</g>
</svg>
