<?xml version="1.0" encoding="utf-8"?>
<!-- Generator: Adobe Illustrator 27.9.0, SVG Export Plug-In . SVG Version: 6.00 Build 0)  -->
<svg version="1.1" id="Layer_4" xmlns="http://www.w3.org/2000/svg" xmlns:xlink="http://www.w3.org/1999/xlink" x="0px" y="0px"
	 viewBox="0 0 40 40" style="enable-background:new 0 0 40 40;" xml:space="preserve">
<style type="text/css">
	.st0{fill:#FFFFFF;}
</style>
<g id="Layer_2_00000037659208393902065190000005684601149278907829_">
	<path d="M40,7v28c0,2.8-2.2,5-5,5H7c-2.8,0-5-2.2-5-5V7c0-2.8,2.2-5,5-5h28C37.8,2,40,4.2,40,7z"/>
</g>
<g id="Layer_1_00000035520259235856260400000000195056160104758938_">
	<g id="XMLID_00000168824196801138155310000001267447264254332329_">
		<g>
			<path class="st0" d="M38,5v28c0,2.8-2.2,5-5,5H5c-2.8,0-5-2.2-5-5V5c0-2.8,2.2-5,5-5h28C35.8,0,38,2.2,38,5z"/>
		</g>
	</g>
</g>
<g id="f7ju5l_00000174562553886599139810000005661213759226868372_">
	<g>
		<path d="M15.5,17.1c0,0.5-0.1,1-0.1,1.6c0,0.1-0.1,0.1-0.1,0.2c-1.1,0.6-2.1,1.2-3.2,1.8c-0.1,0-0.1,0.1-0.2,0.1
			c0.1,0,0.1,0.1,0.2,0.1c0.8,0.5,1.7,0.9,2.5,1.4c0.5,0.3,0.9,0.6,1.2,1c0.7,0.9,1.2,1.9,1.6,3c0.7,1.7,1.2,3.6,1.8,5.4
			c0.2,0.6,0.4,1.2,0.6,1.9c0-0.1,0-0.1,0.1-0.2c0.5-1.6,0.9-3.2,1.4-4.8c0.5-1.4,1-2.8,1.7-4.2c0.1-0.2,0.3-0.5,0.4-0.7
			c0.4-0.6,1-1.2,1.7-1.5c0.8-0.4,1.6-0.9,2.3-1.3c0.1,0,0.1-0.1,0.2-0.1c-0.1-0.1-0.1-0.1-0.2-0.1c-1-0.6-2.1-1.2-3.2-1.8
			c-0.1-0.1-0.2-0.1-0.2-0.3c0-0.4-0.1-0.8-0.1-1.2c0-0.1,0-0.1,0-0.2c0.4,0,0.7-0.1,1-0.1c0.9-0.2,1.7-0.6,2.3-1.2
			c0.9-1,1-2.2,0.6-3.5c-0.1-0.2-0.2-0.5-0.3-0.7c0,0,0-0.1,0-0.2c0.6-0.7,1.1-1.4,1.7-2.1c0,0,0,0,0.1,0c0.1,0.2,0.2,0.4,0.3,0.5
			c0.9,1.7,1.2,3.5,1.2,5.5c0,1.4,0,2.9,0,4.3c0.1,3.6,0.9,6.9,2.5,10.1c0,0,0,0,0,0.1c-1.2-1-2.4-2-3.7-3c-0.9,1.4-1.8,2.9-2.6,4.3
			c-0.9-0.9-1.8-1.7-2.8-2.6c-1.5,2.4-3,4.8-4.4,7.2c-1.5-2.4-3-4.8-4.4-7.2c-0.9,0.9-1.8,1.7-2.8,2.6c-0.9-1.4-1.8-2.9-2.6-4.3
			c-1.2,1-2.5,2-3.7,3c0,0,0,0,0,0c0-0.1,0-0.1,0.1-0.2c1.3-2.4,2-5,2.3-7.8c0.2-1.4,0.2-2.8,0.2-4.2c0-1,0-2,0-3
			c0-1.9,0.5-3.7,1.4-5.3c0,0,0,0,0-0.1c0,0,0.1,0.1,0.1,0.1c0.5,0.6,1.1,1.3,1.6,1.9c0.1,0.1,0.1,0.2,0,0.3c-0.2,0.5-0.5,1-0.5,1.5
			c-0.2,1.4,0.4,2.7,1.7,3.4c0.7,0.4,1.4,0.6,2.2,0.6C15.4,17.1,15.5,17.1,15.5,17.1z"/>
		<path d="M9.3,5C9.5,5.3,9.7,5.6,10,5.8c0.3,0.3,0.7,0.5,1.1,0.7c0.1,0.1,0.3,0.1,0.4,0.1c0.2,0.1,0.4,0,0.6-0.2
			c1.8-1.8,4.1-2.8,6.6-3.1c3.4-0.3,6.3,0.8,8.7,3.1c0.1,0.1,0.2,0.2,0.4,0.1c0.3-0.1,0.6-0.2,0.9-0.4c0.5-0.3,1-0.7,1.4-1.2
			c0,0,0.1-0.1,0.1-0.1c-0.1,0.2-0.1,0.4-0.2,0.5c-0.5,1.1-1.2,2.1-2,2.9c-1.8,2-3.8,3.6-6.2,4.9c-0.2,0.1-0.3,0.1-0.5,0
			c-1-0.7-2.3-0.7-3.3,0.1c-0.1,0.1-0.2,0.1-0.3,0c-2.8-1.5-5.3-3.5-7.2-6C10,6.7,9.6,6,9.3,5.2C9.3,5.2,9.3,5.1,9.3,5z"/>
		<path d="M24,20.7C24,20.8,24,20.8,24,20.7c-1.3,0.8-2.2,1.8-2.8,3c-0.5,1.1-0.9,2.2-1.3,3.3c-0.1,0.2-0.1,0.4-0.2,0.7
			c0-0.1-0.1-0.2-0.1-0.2c-0.4-1-0.7-2.1-1.1-3.1c-0.5-1.2-1.1-2.2-2.1-3c-0.3-0.2-0.6-0.4-0.9-0.7c0,0,0,0,0.1-0.1
			c0.4-0.2,0.8-0.5,1.3-0.7c0.3-0.1,0.4-0.4,0.4-0.7c0-0.8,0-1.5,0.2-2.3c0.2-0.8,0.6-1.5,1.3-2c0.7-0.5,1.5-0.5,2.2,0
			c0.8,0.6,1.2,1.5,1.4,2.4c0.1,0.6,0.1,1.2,0.1,1.8c0,0.3,0.1,0.6,0.4,0.7C23.2,20.2,23.6,20.5,24,20.7z"/>
		<path d="M17,14.9c-0.4,0.2-0.8,0.3-1.2,0.4c-0.6,0.1-1.2,0-1.8-0.4c-0.8-0.5-0.9-1.4-0.5-2.2c0,0,0,0,0,0
			C14.6,13.6,15.7,14.3,17,14.9z"/>
		<path d="M26,12.7c0.4,0.6,0.4,1.5-0.3,2c-0.6,0.5-1.3,0.6-2.1,0.6c-0.4,0-0.8-0.2-1.2-0.4C23.8,14.3,25,13.6,26,12.7z"/>
	</g>
</g>
</svg>
