<?xml version="1.0" encoding="utf-8"?>
<!-- Generator: Adobe Illustrator 27.9.0, SVG Export Plug-In . SVG Version: 6.00 Build 0)  -->
<svg version="1.1" id="Layer_1" xmlns="http://www.w3.org/2000/svg" xmlns:xlink="http://www.w3.org/1999/xlink" x="0px" y="0px"
	 viewBox="0 0 42 42" style="enable-background:new 0 0 42 42;" xml:space="preserve">
<style type="text/css">
	.st0{fill:#FFFFFF;}
</style>
<g id="Layer_2_00000101075601490215772050000009429454008611711365_">
	<path d="M42,9v28c0,2.8-2.2,5-5,5H9c-2.8,0-5-2.2-5-5V9c0-2.8,2.2-5,5-5h28C39.8,4,42,6.2,42,9z"/>
</g>
<g id="Layer_1_00000038407360655897716100000015967259271426240944_">
	<g id="XMLID_00000168824196801138155310000001267447264254332329_">
		<g>
			<path class="st0" d="M40,7v28c0,2.8-2.2,5-5,5H7c-2.8,0-5-2.2-5-5V7c0-2.8,2.2-5,5-5h28C37.8,2,40,4.2,40,7z"/>
		</g>
	</g>
</g>
<g id="f7ju5l_00000174562553886599139810000005661213759226868372_">
	<g>
		<path d="M17.9,20.9c0,0.4-0.1,0.9-0.1,1.4c0,0.1-0.1,0.1-0.1,0.2c-1,0.5-1.9,1.1-2.8,1.6c-0.1,0-0.1,0.1-0.2,0.1
			c0.1,0,0.1,0.1,0.2,0.1c0.7,0.4,1.5,0.8,2.2,1.2c0.4,0.3,0.8,0.5,1.1,0.9c0.6,0.8,1.1,1.7,1.4,2.7c0.6,1.5,1.1,3.2,1.6,4.8
			c0.2,0.5,0.4,1.1,0.5,1.7c0-0.1,0-0.1,0.1-0.2c0.4-1.4,0.8-2.8,1.2-4.2c0.4-1.2,0.9-2.5,1.5-3.7c0.1-0.2,0.3-0.4,0.4-0.6
			c0.4-0.5,0.9-1.1,1.5-1.3c0.7-0.4,1.4-0.8,2-1.2c0.1,0,0.1-0.1,0.2-0.1C28.6,24,28.6,24,28.5,24c-0.9-0.5-1.9-1.1-2.8-1.6
			c-0.1-0.1-0.2-0.1-0.2-0.3c0-0.4-0.1-0.7-0.1-1.1c0-0.1,0-0.1,0-0.2c0.4,0,0.6-0.1,0.9-0.1c0.8-0.2,1.5-0.5,2-1.1
			c0.8-0.9,0.9-1.9,0.5-3.1c-0.1-0.2-0.2-0.4-0.3-0.6c0,0,0-0.1,0-0.2c0.5-0.6,1-1.2,1.5-1.9c0,0,0,0,0.1,0c0.1,0.2,0.2,0.4,0.3,0.4
			c0.8,1.5,1.1,3.1,1.1,4.9c0,1.2,0,2.6,0,3.8c0.1,3.2,0.8,6.1,2.2,8.9c0,0,0,0,0,0.1c-1.1-0.9-2.1-1.8-3.3-2.7
			c-0.8,1.2-1.6,2.6-2.3,3.8c-0.8-0.8-1.6-1.5-2.5-2.3c-1.3,2.1-2.7,4.2-3.9,6.4c-1.3-2.1-2.7-4.2-3.9-6.4c-0.8,0.8-1.6,1.5-2.5,2.3
			c-0.8-1.2-1.6-2.6-2.3-3.8c-1.1,0.9-2.2,1.8-3.3,2.7l0,0c0-0.1,0-0.1,0.1-0.2c1.2-2.1,1.8-4.4,2-6.9c0.2-1.2,0.2-2.5,0.2-3.7
			c0-0.9,0-1.8,0-2.7c0-1.7,0.4-3.3,1.2-4.7c0,0,0,0,0-0.1l0.1,0.1c0.4,0.5,1,1.2,1.4,1.7c0.1,0.1,0.1,0.2,0,0.3
			c-0.2,0.4-0.4,0.9-0.4,1.3c-0.2,1.2,0.4,2.4,1.5,3C16.5,20.7,17.1,20.9,17.9,20.9C17.9,20.9,17.9,20.9,17.9,20.9z"/>
		<path d="M12.5,10.1c0.2,0.3,0.4,0.5,0.6,0.7c0.3,0.3,0.6,0.4,1,0.6c0.1,0.1,0.3,0.1,0.4,0.1c0.2,0.1,0.4,0,0.5-0.2
			c1.6-1.6,3.6-2.5,5.8-2.7c3-0.3,5.6,0.7,7.7,2.7c0.1,0.1,0.2,0.2,0.4,0.1c0.3-0.1,0.5-0.2,0.8-0.4c0.4-0.3,0.9-0.6,1.2-1.1L31,10
			c-0.1,0.2-0.1,0.4-0.2,0.4c-0.4,1-1.1,1.9-1.8,2.6c-1.6,1.8-3.4,3.2-5.5,4.3c-0.2,0.1-0.3,0.1-0.4,0c-0.9-0.6-2-0.6-2.9,0.1
			c-0.1,0.1-0.2,0.1-0.3,0c-2.5-1.3-4.7-3.1-6.4-5.3c-0.4-0.4-0.8-1.1-1.1-1.8C12.5,10.3,12.5,10.2,12.5,10.1z"/>
		<path d="M25.5,24C25.5,24.1,25.5,24.1,25.5,24c-1.2,0.7-1.9,1.6-2.5,2.7c-0.4,1-0.8,1.9-1.2,2.9c-0.1,0.2-0.1,0.4-0.2,0.6
			c0-0.1-0.1-0.2-0.1-0.2c-0.4-0.9-0.6-1.9-1-2.7c-0.4-1.1-1-1.9-1.9-2.7c-0.3-0.2-0.5-0.4-0.8-0.6c0,0,0,0,0.1-0.1
			c0.4-0.2,0.7-0.4,1.2-0.6c0.3-0.1,0.4-0.4,0.4-0.6c0-0.7,0-1.3,0.2-2c0.2-0.7,0.5-1.3,1.2-1.8c0.6-0.4,1.3-0.4,1.9,0
			c0.7,0.5,1.1,1.3,1.2,2.1c0.1,0.5,0.1,1.1,0.1,1.6c0,0.3,0.1,0.5,0.4,0.6C24.8,23.6,25.1,23.9,25.5,24z"/>
		<path d="M19.3,18.9c-0.4,0.2-0.7,0.3-1.1,0.4c-0.5,0.1-1.1,0-1.6-0.4c-0.7-0.4-0.8-1.2-0.4-1.9l0,0C17.1,17.8,18.1,18.4,19.3,18.9
			z"/>
		<path d="M27.2,17c0.4,0.5,0.4,1.3-0.3,1.8c-0.5,0.4-1.2,0.5-1.9,0.5c-0.4,0-0.7-0.2-1.1-0.4C25.3,18.4,26.4,17.8,27.2,17z"/>
	</g>
</g>
</svg>
