<?xml version="1.0" encoding="utf-8"?>
<!-- Generator: Adobe Illustrator 27.9.0, SVG Export Plug-In . SVG Version: 6.00 Build 0)  -->
<svg version="1.1" xmlns="http://www.w3.org/2000/svg" xmlns:xlink="http://www.w3.org/1999/xlink" x="0px" y="0px"
	 viewBox="0 0 42 42" style="enable-background:new 0 0 42 42;" xml:space="preserve">
<style type="text/css">
	.st0{display:none;}
	.st1{display:inline;}
	.st2{fill:#FFFFFF;}
	.st3{display:inline;fill:#FFFFFF;}
	.st4{fill:#03B8D8;}
</style>
<g id="Layer_1" class="st0">
	<g id="Layer_2_00000124135028766318550500000010995392347831517082_" class="st1">
		<path d="M42,37c0,2.8-2.2,5-5,5H9c-2.8,0-5-2.2-5-5V9c0-2.8,2.2-5,5-5h28"/>
	</g>
	<g id="Layer_1_00000000201888521056810490000015483352506411068054_" class="st1">
		<g id="XMLID_00000168824196801138155310000001267447264254332329_">
			<g>
				<polygon class="st2" points="16,11 30.1,31 27,31 12.9,11 				"/>
				<path class="st2" d="M40,35c0,2.8-2.2,5-5,5H7c-2.8,0-5-2.2-5-5V7c0-2.8,2.2-5,5-5h28c2.8,0,5,2.2,5,5"/>
			</g>
		</g>
	</g>
</g>
<g id="Layer_2" class="st0">
	<path class="st1" d="M36,20.9c0,8.4-6.7,15.2-15.1,15.2c-8.4,0-15.2-6.7-15.2-15.1c0-8.4,6.7-15.2,15.1-15.2
		C29.2,5.8,36,12.6,36,20.9z"/>
	<path class="st3" d="M34.9,20.9c0,7.7-6.2,14-13.9,14.1s-14-6.2-14.1-13.9c0-7.7,6.2-14,13.9-14.1C28.6,7,34.8,13.2,34.9,20.9
		C34.9,20.9,34.9,20.9,34.9,20.9z"/>
	<path class="st3" d="M21.1,7.9c0.9-0.2,1.8-0.2,2.7,0c0.9,0.1,1.8,0.4,2.6,0.9c0.8,0.4,1.5,1,2.2,1.6c0.7,0.6,1.4,1.1,2,1.8
		c0.7,0.6,1.2,1.3,1.7,2.1c0.5,0.8,0.9,1.6,1.2,2.4c0.6,1.7,0.8,3.5,0.5,5.3h-0.1c-0.3-1.7-0.7-3.4-1.3-5c-0.3-0.8-0.6-1.6-1-2.3
		c-0.4-0.8-0.9-1.5-1.4-2.2c-0.5-0.7-1.1-1.3-1.8-1.8c-0.7-0.5-1.5-0.8-2.3-1.1c-0.8-0.3-1.6-0.6-2.4-0.9S22,8.2,21.1,7.9L21.1,7.9z
		"/>
	<path class="st1" d="M28,16c-1-0.3-2.1-0.7-3.1-1.1c-0.1-0.3-0.3-0.6-0.8-1c-0.7-0.6-2-0.6-3.1-0.3c-1.2-0.3-2.5-0.4-3.7-0.1
		c-9.7,2.7-4.2,9.2-7.7,15.7c0.5,1.1,6,7.3,13.8,5.6c0,0-2.7-6.5,3.4-9.6C31.7,22.7,35.3,18,28,16L28,16z"/>
	<path class="st3" d="M29.2,20.3c0,0.3-0.3,0.6-0.6,0.6c-0.3,0-0.6-0.3-0.6-0.6s0.3-0.6,0.6-0.6c0,0,0,0,0,0
		C28.9,19.7,29.2,19.9,29.2,20.3C29.2,20.3,29.2,20.3,29.2,20.3z"/>
	<path class="st1" d="M20.9,13.5c0.7,0.1,3.3,0.9,3.9,1.3C24.3,13.3,22.5,13.1,20.9,13.5z"/>
	<path class="st3" d="M21.6,17.6c0,1.5-1.2,2.7-2.7,2.7s-2.7-1.2-2.7-2.7c0-1.5,1.2-2.7,2.7-2.7S21.6,16.1,21.6,17.6z"/>
	<path class="st1" d="M20.8,17.6c0,1.1-0.9,1.9-1.9,1.9c-1.1,0-1.9-0.9-1.9-1.9c0-1.1,0.9-1.9,1.9-1.9c0,0,0,0,0,0
		C20,15.7,20.8,16.5,20.8,17.6z"/>
	<path class="st1" d="M31.4,21.4c-2.2,1.5-4.7,2.7-8.2,2.7c-1.7,0-2-1.8-3.1-0.9c-0.6,0.4-2.6,1.4-4.1,1.4s-4.1-1-4.9-4.4
		c-0.3,3.4-0.4,5.9-1.7,8.7c2.5,4,8.5,7.1,14,5.8c-0.6-4.1,3-8.1,5-10.2C29.1,23.8,30.6,22.6,31.4,21.4L31.4,21.4z"/>
	<path class="st3" d="M31.3,21.5c-0.7,0.6-1.5,1.1-2.3,1.5c-0.8,0.4-1.7,0.7-2.6,0.9c-0.9,0.2-1.8,0.4-2.8,0.3s-1.9-0.4-2.5-1.1l0,0
		c0.8,0.5,1.7,0.7,2.5,0.7c0.9,0,1.8,0,2.7-0.2c0.9-0.2,1.8-0.5,2.6-0.8C29.7,22.5,30.5,22.1,31.3,21.5L31.3,21.5z"/>
</g>
<g id="Layer_3" class="st0">
	<path class="st1" d="M36.7,21.9c0,8.4-6.7,15.2-15.1,15.2c-8.4,0-15.2-6.7-15.2-15.1c0-8.4,6.7-15.2,15.1-15.2
		C29.9,6.8,36.7,13.5,36.7,21.9z"/>
	<path class="st1" d="M35.6,21.9c0,7.7-6.2,14-13.9,14.1S7.7,29.7,7.6,22c0-7.7,6.2-14,13.9-14.1C29.3,7.9,35.6,14.2,35.6,21.9
		C35.6,21.9,35.6,21.9,35.6,21.9z"/>
</g>
<g id="Layer_4" class="st0">
	<g id="f7ju5l_00000174562553886599139810000005661213759226868372_" class="st1">
		<g>
			<path class="st2" d="M18.8,21.3c0,0.3-0.1,0.7-0.1,1c0,0.1-0.1,0.1-0.1,0.1c-0.7,0.4-1.4,0.8-2.1,1.2c-0.1,0-0.1,0.1-0.1,0.1
				c0.1,0,0.1,0.1,0.1,0.1c0.5,0.3,1.1,0.6,1.6,0.9c0.3,0.2,0.6,0.4,0.8,0.7c0.4,0.6,0.8,1.3,1,2c0.4,1.1,0.8,2.4,1.2,3.6
				c0.1,0.4,0.3,0.8,0.4,1.3c0-0.1,0-0.1,0.1-0.1c0.3-1,0.6-2.1,0.9-3.1c0.3-0.9,0.7-1.9,1.1-2.7c0.1-0.1,0.2-0.3,0.3-0.4
				c0.3-0.4,0.7-0.8,1.1-1c0.5-0.3,1-0.6,1.5-0.9c0.1,0,0.1-0.1,0.1-0.1c0-0.2,0-0.2-0.1-0.2c-0.7-0.4-1.4-0.8-2.1-1.2
				c-0.1-0.1-0.1-0.1-0.1-0.2c0-0.3-0.1-0.5-0.1-0.8c0-0.1,0-0.1,0-0.1c0.3,0,0.4-0.1,0.7-0.1c0.6-0.1,1.1-0.4,1.5-0.8
				c0.6-0.7,0.7-1.4,0.4-2.3c-0.1-0.1-0.1-0.3-0.2-0.4c0,0,0-0.1,0-0.1c0.4-0.4,0.7-0.9,1.1-1.4c0,0,0,0,0.1,0
				c0.1,0.1,0.1,0.3,0.2,0.3c0.6,1.1,0.8,2.3,0.8,3.6c0,0.9,0,1.9,0,2.8c0.1,2.4,0.6,4.5,1.6,6.6c0,0,0,0,0,0.1
				c-0.8-0.7-1.6-1.3-2.4-2c-0.6,0.9-1.2,1.9-1.7,2.8c-0.6-0.6-1.2-1.1-1.9-1.7c-1,1.6-2,3.1-2.9,4.7c-1-1.6-2-3.1-2.9-4.7
				c-0.6,0.6-1.2,1.1-1.9,1.7c-0.6-0.9-1.2-1.9-1.7-2.8c-0.8,0.7-1.6,1.3-2.4,2l0,0c0-0.1,0-0.1,0.1-0.1c0.9-1.6,1.3-3.3,1.5-5.1
				c0.1-0.9,0.1-1.9,0.1-2.7c0-0.7,0-1.3,0-2c0-1.3,0.3-2.4,0.9-3.5c0,0,0,0,0-0.1l0.1,0.1c0.3,0.4,0.7,0.9,1,1.3
				c0.1,0.1,0.1,0.1,0,0.2c-0.1,0.3-0.3,0.7-0.3,1c-0.1,0.9,0.3,1.8,1.1,2.2C17.8,21.2,18.2,21.3,18.8,21.3L18.8,21.3z"/>
			<path class="st2" d="M14.8,13.3c0.1,0.2,0.3,0.4,0.4,0.5c0.2,0.2,0.4,0.3,0.7,0.4c0.1,0.1,0.2,0.1,0.3,0.1c0.1,0.1,0.3,0,0.4-0.1
				c1.2-1.2,2.7-1.9,4.3-2c2.2-0.2,4.1,0.5,5.7,2c0.1,0.1,0.1,0.1,0.3,0.1c0.2-0.1,0.4-0.1,0.6-0.3c0.3-0.2,0.7-0.4,0.9-0.8l0.1,0.1
				c-0.1,0.1-0.1,0.3-0.1,0.3c-0.3,0.7-0.8,1.4-1.3,1.9c-1.2,1.3-2.5,2.4-4.1,3.2c-0.1,0.1-0.2,0.1-0.3,0c-0.7-0.4-1.5-0.4-2.1,0.1
				c-0.1,0.1-0.1,0.1-0.2,0c-1.9-1-3.5-2.3-4.7-3.9c-0.3-0.3-0.6-0.8-0.8-1.3C14.8,13.5,14.8,13.4,14.8,13.3z"/>
			<path class="st2" d="M24.4,23.6C24.4,23.7,24.4,23.7,24.4,23.6c-0.9,0.5-1.4,1.2-1.9,2c-0.3,0.7-0.6,1.4-0.9,2.1
				c-0.1,0.1-0.1,0.3-0.1,0.4c0-0.1-0.1-0.1-0.1-0.1c-0.3-0.7-0.4-1.4-0.7-2c-0.3-0.8-0.7-1.4-1.4-2c-0.2-0.1-0.4-0.3-0.6-0.4
				c0,0,0,0,0.1-0.1c0.3-0.1,0.5-0.3,0.9-0.4c0.2-0.1,0.3-0.3,0.3-0.4c0-0.5,0-1,0.1-1.5c0.1-0.5,0.4-1,0.9-1.3c0.4-0.3,1-0.3,1.4,0
				c0.5,0.4,0.8,1,0.9,1.6c0.1,0.4,0.1,0.8,0.1,1.2c0,0.2,0.1,0.4,0.3,0.4C23.9,23.3,24.1,23.5,24.4,23.6z"/>
			<path class="st2" d="M19.8,19.8C19.5,20,19.3,20,19,20.1c-0.4,0.1-0.8,0-1.2-0.3c-0.5-0.3-0.6-0.9-0.3-1.4l0,0
				C18.2,19,18.9,19.5,19.8,19.8z"/>
			<path class="st2" d="M25.7,18.4c0.3,0.4,0.3,1-0.2,1.3c-0.4,0.3-0.9,0.4-1.4,0.4c-0.3,0-0.5-0.1-0.8-0.3
				C24.3,19.5,25.1,19,25.7,18.4z"/>
		</g>
	</g>
</g>
<g id="Layer_5">
	<g id="efXr9q.tif">
		<g>
			<path class="st4" d="M29.1,16.4c-1.2-0.6-2.4-1.2-3.7-1.9c1.4-0.6,2.6-1.2,3.8-1.7c0.1-0.1,0.3,0,0.5,0.1c1,0.5,2,1,2.9,1.5
				c0.2,0.1,0.4,0.4,0.4,0.7c0,0.9,0,1.9,0,2.8c0,0.6-0.2,0.8-0.7,1.1c-5.7,2.7-11.5,5.4-17.2,8.1c-0.2,0.1-0.4,0.2-0.7,0.4
				c1.2,0.6,2.4,1.2,3.7,1.9c-1.4,0.6-2.6,1.2-3.8,1.7c-0.1,0.1-0.4,0-0.6-0.1c-0.9-0.5-1.9-0.9-2.8-1.4c-0.2-0.1-0.3-0.5-0.5-0.8
				c0,0,0-0.1,0-0.2c0-1.1-0.3-2.4,0.2-3.2c0.5-0.8,1.8-1,2.7-1.5c4.9-2.3,9.9-4.6,14.8-7C28.5,16.7,28.8,16.6,29.1,16.4z"/>
			<path class="st4" d="M20.3,26.7c1.3-0.6,2.5-1.2,3.7-1.6c0.2-0.1,0.6,0,0.9,0.2c1.4,0.7,2.7,1.4,4.2,2.1c0-1.7,0-3.3,0-5
				c0-0.5,0.1-0.8,0.6-1c1.1-0.4,2.1-0.9,3.3-1.4c0,1.2,0,2.2,0,3.2c0,1.8,0,3.7,0,5.5c0,0.5-0.1,0.8-0.7,1c-0.5,0.1-1,0.3-1.4,0.6
				c-1.3,0.9-2.5,0.7-3.9-0.1C25,28.9,22.7,27.9,20.3,26.7z"/>
			<path class="st4" d="M14.5,16.5c0,1.7,0,3.2,0,4.7c0,0.7-0.2,1.1-0.9,1.3c-1,0.4-2,0.9-3.1,1.3c0-3.1,0-6,0-9
				c0-0.2,0.2-0.5,0.4-0.6c1-0.5,2.1-0.9,3.1-1.4c0.2-0.1,0.5-0.1,0.6,0c2.8,1.4,5.6,2.8,8.5,4.3c-1.4,0.6-2.6,1.2-3.8,1.6
				c-0.2,0.1-0.5-0.1-0.7-0.2C17.3,17.9,15.9,17.2,14.5,16.5z"/>
			<path class="st4" d="M17.1,11.5c1.6-0.8,3-1.6,4.4-2.3c0.1-0.1,0.4,0,0.6,0c1.4,0.7,2.9,1.5,4.4,2.3c-1.1,0.7-2.1,1.5-3.2,2.1
				c-0.2,0.1-0.6-0.1-0.9-0.2c-0.5-0.3-0.9-0.4-1.4,0c-0.5,0.4-0.9,0.3-1.4-0.1C18.9,12.7,18,12.2,17.1,11.5z"/>
			<path class="st4" d="M26.5,32.4c-1.5,0.8-2.9,1.6-4.3,2.3c-0.2,0.1-0.5,0.1-0.7,0c-1.4-0.7-2.8-1.5-4.4-2.3
				c1.1-0.8,2.1-1.5,3.2-2.1c0.1-0.1,0.5,0,0.7,0.2c0.6,0.4,1.1,0.4,1.6,0c0.4-0.3,0.7-0.3,1.1,0C24.6,31.2,25.5,31.7,26.5,32.4z"/>
		</g>
	</g>
</g>
</svg>
