<?xml version="1.0" encoding="utf-8"?>
<!-- Generator: Adobe Illustrator 27.9.0, SVG Export Plug-In . SVG Version: 6.00 Build 0)  -->
<svg version="1.1" id="Layer_1" xmlns="http://www.w3.org/2000/svg" xmlns:xlink="http://www.w3.org/1999/xlink" x="0px" y="0px"
	 viewBox="0 0 42 42" style="enable-background:new 0 0 42 42;" xml:space="preserve">
<style type="text/css">
	.st0{fill:#FFFFFF;}
	.st1{fill:none;stroke:#000000;stroke-width:1.28;stroke-miterlimit:6.4;}
</style>
<g id="Layer_2_00000101075601490215772050000009429454008611711365_">
	<path d="M42,9v28c0,2.8-2.2,5-5,5H9c-2.8,0-5-2.2-5-5V9c0-2.8,2.2-5,5-5h28C39.8,4,42,6.2,42,9z"/>
</g>
<g id="Layer_1_00000038407360655897716100000015967259271426240944_">
	<g id="XMLID_00000168824196801138155310000001267447264254332329_">
		<g>
			<path class="st0" d="M40,7v28c0,2.8-2.2,5-5,5H7c-2.8,0-5-2.2-5-5V7c0-2.8,2.2-5,5-5h28C37.8,2,40,4.2,40,7z"/>
		</g>
	</g>
</g>
<path class="st1" d="M16.2,35.3h11.5c4.2,0,7.7-3.4,7.7-7.7V16.1c0-4.2-3.4-7.7-7.7-7.7H16.2c-4.2,0-7.7,3.4-7.7,7.7v11.5
	C8.5,31.8,12,35.3,16.2,35.3z"/>
<circle class="st1" cx="22" cy="21.8" r="6.4"/>
<circle cx="29.6" cy="14.2" r="1.3"/>
</svg>
