<?xml version="1.0" encoding="utf-8"?>
<!-- Generator: Adobe Illustrator 27.9.0, SVG Export Plug-In . SVG Version: 6.00 Build 0)  -->
<svg version="1.1" id="Layer_1" xmlns="http://www.w3.org/2000/svg" xmlns:xlink="http://www.w3.org/1999/xlink" x="0px" y="0px"
	 viewBox="0 0 42 42" style="enable-background:new 0 0 42 42;" xml:space="preserve">
<style type="text/css">
	.st0{display:none;}
	.st1{display:inline;}
	.st2{fill:#FFFFFF;}
	.st3{display:inline;fill:#FFFFFF;}
	.st4{display:none;fill:#141726;}
	.st5{display:none;fill:url(#SVGID_1_);}
	.st6{display:none;fill:url(#SVGID_00000098186946861701998030000012950217293306382464_);}
	.st7{display:none;fill:url(#SVGID_00000055670448619992147060000007767698169967281025_);}
	.st8{display:none;fill:url(#SVGID_00000085930541304627779640000014527476266270698392_);}
	.st9{display:none;fill:url(#SVGID_00000031912044728043575870000012921990405350852758_);}
	.st10{display:none;fill:url(#SVGID_00000114755402524868349420000000893482351025955748_);}
	.st11{display:none;fill:url(#SVGID_00000113337536582167577370000006609388641333323939_);}
	.st12{display:none;fill:url(#SVGID_00000123400646561571160080000008594829416236944302_);}
	.st13{display:none;fill:url(#SVGID_00000049934043363297612390000000595551034660789662_);}
	.st14{display:none;fill:url(#SVGID_00000085951410230488470590000015384073602625978251_);}
	.st15{display:none;fill:url(#SVGID_00000073713676813943495820000014074451635980703627_);}
	.st16{display:none;fill:url(#SVGID_00000178888416625926660860000014027916778430745773_);}
	.st17{fill:#141726;}
	.st18{fill:url(#SVGID_00000118399595821051159880000015297959165588741049_);}
	.st19{fill:url(#SVGID_00000056398060671358397100000004006096571559651225_);}
	.st20{fill:url(#SVGID_00000011028851576308160300000000359095457977332904_);}
	.st21{fill:url(#SVGID_00000047760777876768808810000017296364010779950739_);}
	.st22{fill:url(#SVGID_00000118380810476613266560000017615695276129883575_);}
	.st23{fill:url(#SVGID_00000044887717551927332620000015309909795767778967_);}
</style>
<g id="Layer_1_00000027566297649258997720000009884691318524322957_" class="st0">
	<g id="Layer_2_00000124135028766318550500000010995392347831517082_" class="st1">
		<path d="M42,37c0,2.8-2.2,5-5,5H9c-2.8,0-5-2.2-5-5V9c0-2.8,2.2-5,5-5h28"/>
	</g>
	<g id="Layer_1_00000000201888521056810490000015483352506411068054_" class="st1">
		<g id="XMLID_00000168824196801138155310000001267447264254332329_">
			<g>
				<polygon class="st2" points="16,11 30.1,31 27,31 12.9,11 				"/>
				<path class="st2" d="M40,35c0,2.8-2.2,5-5,5H7c-2.8,0-5-2.2-5-5V7c0-2.8,2.2-5,5-5h28c2.8,0,5,2.2,5,5"/>
			</g>
		</g>
	</g>
</g>
<g id="Layer_2_00000151503041770280004470000017128914574472954300_" class="st0">
	<path class="st1" d="M36,20.9c0,8.4-6.7,15.2-15.1,15.2S5.7,29.4,5.7,21S12.4,5.8,20.8,5.8C29.2,5.8,36,12.6,36,20.9z"/>
	<path class="st3" d="M34.9,20.9c0,7.7-6.2,14-13.9,14.1S7,28.8,6.9,21.1c0-7.7,6.2-14,13.9-14.1C28.6,7,34.8,13.2,34.9,20.9
		L34.9,20.9z"/>
	<path class="st3" d="M21.1,7.9c0.9-0.2,1.8-0.2,2.7,0c0.9,0.1,1.8,0.4,2.6,0.9c0.8,0.4,1.5,1,2.2,1.6s1.4,1.1,2,1.8
		c0.7,0.6,1.2,1.3,1.7,2.1s0.9,1.6,1.2,2.4c0.6,1.7,0.8,3.5,0.5,5.3h-0.1c-0.3-1.7-0.7-3.4-1.3-5c-0.3-0.8-0.6-1.6-1-2.3
		c-0.4-0.8-0.9-1.5-1.4-2.2s-1.1-1.3-1.8-1.8c-0.7-0.5-1.5-0.8-2.3-1.1S24.5,9,23.7,8.7S22,8.2,21.1,7.9L21.1,7.9z"/>
	<path class="st1" d="M28,16c-1-0.3-2.1-0.7-3.1-1.1c-0.1-0.3-0.3-0.6-0.8-1c-0.7-0.6-2-0.6-3.1-0.3c-1.2-0.3-2.5-0.4-3.7-0.1
		c-9.7,2.7-4.2,9.2-7.7,15.7c0.5,1.1,6,7.3,13.8,5.6c0,0-2.7-6.5,3.4-9.6C31.7,22.7,35.3,18,28,16L28,16z"/>
	<path class="st3" d="M29.2,20.3c0,0.3-0.3,0.6-0.6,0.6c-0.3,0-0.6-0.3-0.6-0.6s0.3-0.6,0.6-0.6l0,0C28.9,19.7,29.2,19.9,29.2,20.3
		L29.2,20.3z"/>
	<path class="st1" d="M20.9,13.5c0.7,0.1,3.3,0.9,3.9,1.3C24.3,13.3,22.5,13.1,20.9,13.5z"/>
	<path class="st3" d="M21.6,17.6c0,1.5-1.2,2.7-2.7,2.7s-2.7-1.2-2.7-2.7s1.2-2.7,2.7-2.7S21.6,16.1,21.6,17.6z"/>
	<path class="st1" d="M20.8,17.6c0,1.1-0.9,1.9-1.9,1.9c-1.1,0-1.9-0.9-1.9-1.9c0-1.1,0.9-1.9,1.9-1.9l0,0
		C20,15.7,20.8,16.5,20.8,17.6z"/>
	<path class="st1" d="M31.4,21.4c-2.2,1.5-4.7,2.7-8.2,2.7c-1.7,0-2-1.8-3.1-0.9c-0.6,0.4-2.6,1.4-4.1,1.4s-4.1-1-4.9-4.4
		c-0.3,3.4-0.4,5.9-1.7,8.7c2.5,4,8.5,7.1,14,5.8c-0.6-4.1,3-8.1,5-10.2C29.1,23.8,30.6,22.6,31.4,21.4L31.4,21.4z"/>
	<path class="st3" d="M31.3,21.5c-0.7,0.6-1.5,1.1-2.3,1.5s-1.7,0.7-2.6,0.9c-0.9,0.2-1.8,0.4-2.8,0.3s-1.9-0.4-2.5-1.1l0,0
		c0.8,0.5,1.7,0.7,2.5,0.7c0.9,0,1.8,0,2.7-0.2c0.9-0.2,1.8-0.5,2.6-0.8C29.7,22.5,30.5,22.1,31.3,21.5L31.3,21.5z"/>
</g>
<g id="Layer_3" class="st0">
	<path class="st1" d="M36.7,21.9c0,8.4-6.7,15.2-15.1,15.2S6.4,30.4,6.4,22S13.1,6.8,21.5,6.8C29.9,6.8,36.7,13.5,36.7,21.9z"/>
	<path class="st1" d="M35.6,21.9c0,7.7-6.2,14-13.9,14.1s-14-6.3-14.1-14c0-7.7,6.2-14,13.9-14.1C29.3,7.9,35.6,14.2,35.6,21.9
		L35.6,21.9z"/>
</g>
<g id="Layer_4" class="st0">
	<g id="f7ju5l_00000174562553886599139810000005661213759226868372_" class="st1">
		<g>
			<path class="st2" d="M18.8,21.3c0,0.3-0.1,0.7-0.1,1c0,0.1-0.1,0.1-0.1,0.1c-0.7,0.4-1.4,0.8-2.1,1.2c-0.1,0-0.1,0.1-0.1,0.1
				c0.1,0,0.1,0.1,0.1,0.1c0.5,0.3,1.1,0.6,1.6,0.9c0.3,0.2,0.6,0.4,0.8,0.7c0.4,0.6,0.8,1.3,1,2c0.4,1.1,0.8,2.4,1.2,3.6
				c0.1,0.4,0.3,0.8,0.4,1.3c0-0.1,0-0.1,0.1-0.1c0.3-1,0.6-2.1,0.9-3.1c0.3-0.9,0.7-1.9,1.1-2.7c0.1-0.1,0.2-0.3,0.3-0.4
				c0.3-0.4,0.7-0.8,1.1-1c0.5-0.3,1-0.6,1.5-0.9c0.1,0,0.1-0.1,0.1-0.1c0-0.2,0-0.2-0.1-0.2c-0.7-0.4-1.4-0.8-2.1-1.2
				c-0.1-0.1-0.1-0.1-0.1-0.2c0-0.3-0.1-0.5-0.1-0.8c0-0.1,0-0.1,0-0.1c0.3,0,0.4-0.1,0.7-0.1c0.6-0.1,1.1-0.4,1.5-0.8
				c0.6-0.7,0.7-1.4,0.4-2.3c-0.1-0.1-0.1-0.3-0.2-0.4v-0.1c0.4-0.4,0.7-0.9,1.1-1.4c0,0,0,0,0.1,0c0.1,0.1,0.1,0.3,0.2,0.3
				c0.6,1.1,0.8,2.3,0.8,3.6c0,0.9,0,1.9,0,2.8c0.1,2.4,0.6,4.5,1.6,6.6c0,0,0,0,0,0.1c-0.8-0.7-1.6-1.3-2.4-2
				c-0.6,0.9-1.2,1.9-1.7,2.8c-0.6-0.6-1.2-1.1-1.9-1.7c-1,1.6-2,3.1-2.9,4.7c-1-1.6-2-3.1-2.9-4.7c-0.6,0.6-1.2,1.1-1.9,1.7
				c-0.6-0.9-1.2-1.9-1.7-2.8c-0.8,0.7-1.6,1.3-2.4,2l0,0c0-0.1,0-0.1,0.1-0.1c0.9-1.6,1.3-3.3,1.5-5.1c0.1-0.9,0.1-1.9,0.1-2.7
				c0-0.7,0-1.3,0-2c0-1.3,0.3-2.4,0.9-3.5c0,0,0,0,0-0.1l0.1,0.1c0.3,0.4,0.7,0.9,1,1.3c0.1,0.1,0.1,0.1,0,0.2
				c-0.1,0.3-0.3,0.7-0.3,1c-0.1,0.9,0.3,1.8,1.1,2.2C17.8,21.2,18.2,21.3,18.8,21.3L18.8,21.3z"/>
			<path class="st2" d="M14.8,13.3c0.1,0.2,0.3,0.4,0.4,0.5c0.2,0.2,0.4,0.3,0.7,0.4c0.1,0.1,0.2,0.1,0.3,0.1c0.1,0.1,0.3,0,0.4-0.1
				c1.2-1.2,2.7-1.9,4.3-2c2.2-0.2,4.1,0.5,5.7,2c0.1,0.1,0.1,0.1,0.3,0.1c0.2-0.1,0.4-0.1,0.6-0.3c0.3-0.2,0.7-0.4,0.9-0.8l0.1,0.1
				c-0.1,0.1-0.1,0.3-0.1,0.3c-0.3,0.7-0.8,1.4-1.3,1.9c-1.2,1.3-2.5,2.4-4.1,3.2c-0.1,0.1-0.2,0.1-0.3,0c-0.7-0.4-1.5-0.4-2.1,0.1
				c-0.1,0.1-0.1,0.1-0.2,0c-1.9-1-3.5-2.3-4.7-3.9c-0.3-0.3-0.6-0.8-0.8-1.3C14.8,13.5,14.8,13.4,14.8,13.3z"/>
			<path class="st2" d="M24.4,23.6C24.4,23.7,24.4,23.7,24.4,23.6c-0.9,0.5-1.4,1.2-1.9,2c-0.3,0.7-0.6,1.4-0.9,2.1
				c-0.1,0.1-0.1,0.3-0.1,0.4c0-0.1-0.1-0.1-0.1-0.1c-0.3-0.7-0.4-1.4-0.7-2c-0.3-0.8-0.7-1.4-1.4-2c-0.2-0.1-0.4-0.3-0.6-0.4
				c0,0,0,0,0.1-0.1c0.3-0.1,0.5-0.3,0.9-0.4c0.2-0.1,0.3-0.3,0.3-0.4c0-0.5,0-1,0.1-1.5s0.4-1,0.9-1.3c0.4-0.3,1-0.3,1.4,0
				c0.5,0.4,0.8,1,0.9,1.6c0.1,0.4,0.1,0.8,0.1,1.2c0,0.2,0.1,0.4,0.3,0.4C23.9,23.3,24.1,23.5,24.4,23.6z"/>
			<path class="st2" d="M19.8,19.8C19.5,20,19.3,20,19,20.1c-0.4,0.1-0.8,0-1.2-0.3c-0.5-0.3-0.6-0.9-0.3-1.4l0,0
				C18.2,19,18.9,19.5,19.8,19.8z"/>
			<path class="st2" d="M25.7,18.4c0.3,0.4,0.3,1-0.2,1.3c-0.4,0.3-0.9,0.4-1.4,0.4c-0.3,0-0.5-0.1-0.8-0.3
				C24.3,19.5,25.1,19,25.7,18.4z"/>
		</g>
	</g>
</g>
<circle class="st4" cx="21.6" cy="22.1" r="15"/>
<linearGradient id="SVGID_1_" gradientUnits="userSpaceOnUse" x1="28.2082" y1="-755.8455" x2="15.9682" y2="-736.212" gradientTransform="matrix(1 0 0 1 0 768)">
	<stop  offset="0.16" style="stop-color:#C6F462"/>
	<stop  offset="0.89" style="stop-color:#33D9FF"/>
</linearGradient>
<path class="st5" d="M26.8,28.5c-2.5-4.1-6.2-6.4-10.9-7.3c-1.6-0.3-3.3-0.3-4.9,0.3c-1.1,0.4-1.2,0.9-0.7,2
	c3.5-0.8,6.7-0.1,9.7,1.7c3,1.8,5.3,4.2,6.3,7.7c1.4-0.4,1.6-0.7,1.3-2C27.4,30,27.2,29.2,26.8,28.5L26.8,28.5z"/>
<linearGradient id="SVGID_00000097479776640404374380000013847221023928868538_" gradientUnits="userSpaceOnUse" x1="28.1234" y1="-755.8984" x2="15.8838" y2="-736.2649" gradientTransform="matrix(1 0 0 1 0 768)">
	<stop  offset="0.16" style="stop-color:#C6F462"/>
	<stop  offset="0.89" style="stop-color:#33D9FF"/>
</linearGradient>
<path style="display:none;fill:url(#SVGID_00000097479776640404374380000013847221023928868538_);" d="M29.5,25.1
	c-3.2-4.7-7.8-7.3-13.3-8.2c-1.5-0.2-3-0.2-4.4,0.5c-0.7,0.3-1.2,0.8-1.4,1.7c4.3-1.2,8.2-0.1,11.9,2c3.7,2.1,6.6,5,7.7,9.4
	c0.8-0.7,0.9-1.5,0.7-2.3C30.4,27.2,30.1,26,29.5,25.1L29.5,25.1z"/>
<linearGradient id="SVGID_00000078036727625230502750000001277413326718024091_" gradientUnits="userSpaceOnUse" x1="28.2885" y1="-755.7953" x2="16.0489" y2="-736.1617" gradientTransform="matrix(1 0 0 1 0 768)">
	<stop  offset="0.16" style="stop-color:#C6F462"/>
	<stop  offset="0.89" style="stop-color:#33D9FF"/>
</linearGradient>
<path style="display:none;fill:url(#SVGID_00000078036727625230502750000001277413326718024091_);" d="M10.6,25.4
	c0.3,0.6,0.5,1.3,0.9,1.8c0.2,0.3,0.8,0.2,1.3,0.2c0.1,0,0.1,0,0.2,0c3.9,0.6,6.9,2.4,9.1,5.7c0.1,0.2,0.3,0.5,0.5,0.5
	c0.7,0,1.3-0.1,2-0.2C23.5,28,15.4,23.6,10.6,25.4L10.6,25.4z"/>
<linearGradient id="SVGID_00000075148179148800485490000015223289631352855975_" gradientUnits="userSpaceOnUse" x1="27.9911" y1="-755.9809" x2="15.7511" y2="-736.3474" gradientTransform="matrix(1 0 0 1 0 768)">
	<stop  offset="0.16" style="stop-color:#C6F462"/>
	<stop  offset="0.89" style="stop-color:#33D9FF"/>
</linearGradient>
<path style="display:none;fill:url(#SVGID_00000075148179148800485490000015223289631352855975_);" d="M31.3,20.9
	c-2.1-3-5.1-5-8.4-6.4c-2.3-1-4.7-1.6-7.2-1.3c-0.9,0.1-1.7,0.4-2.4,0.9c8.7,0.2,15.2,4,19.6,11.4c0-0.5,0.1-1-0.1-1.5
	C32.4,23,32,21.8,31.3,20.9z"/>
<linearGradient id="SVGID_00000055683792435710602490000008253061606458464408_" gradientUnits="userSpaceOnUse" x1="28.0868" y1="-755.9214" x2="15.8468" y2="-736.2879" gradientTransform="matrix(1 0 0 1 0 768)">
	<stop  offset="0.16" style="stop-color:#C6F462"/>
	<stop  offset="0.89" style="stop-color:#33D9FF"/>
</linearGradient>
<path style="display:none;fill:url(#SVGID_00000055683792435710602490000008253061606458464408_);" d="M33.3,19.3
	C31.5,12.6,24.3,9.4,19,11C24.8,12.1,29.4,14.9,33.3,19.3z"/>
<linearGradient id="SVGID_00000056407500242767763360000014616014173299211190_" gradientUnits="userSpaceOnUse" x1="28.3621" y1="-755.7496" x2="16.1225" y2="-736.1161" gradientTransform="matrix(1 0 0 1 0 768)">
	<stop  offset="0.16" style="stop-color:#C6F462"/>
	<stop  offset="0.89" style="stop-color:#33D9FF"/>
</linearGradient>
<path style="display:none;fill:url(#SVGID_00000056407500242767763360000014616014173299211190_);" d="M12.5,29c2,2.6,4.6,4.1,8,4.6
	C19.2,31.2,14.7,28.7,12.5,29L12.5,29z"/>
<circle class="st4" cx="20.6" cy="22.1" r="15"/>
<linearGradient id="SVGID_00000021828437784165059430000012250684092224806569_" gradientUnits="userSpaceOnUse" x1="27.2082" y1="-755.8455" x2="14.9682" y2="-736.212" gradientTransform="matrix(1 0 0 1 0 768)">
	<stop  offset="0.16" style="stop-color:#C6F462"/>
	<stop  offset="0.89" style="stop-color:#33D9FF"/>
</linearGradient>
<path style="display:none;fill:url(#SVGID_00000021828437784165059430000012250684092224806569_);" d="M25.8,28.5
	c-2.5-4.1-6.2-6.4-10.9-7.3c-1.6-0.3-3.3-0.3-4.9,0.3c-1.1,0.4-1.2,0.9-0.7,2c3.5-0.8,6.7-0.1,9.7,1.7c3,1.8,5.3,4.2,6.3,7.7
	c1.4-0.4,1.6-0.7,1.3-2C26.4,30,26.2,29.2,25.8,28.5L25.8,28.5z"/>
<linearGradient id="SVGID_00000145038290711037612640000011700736986966474141_" gradientUnits="userSpaceOnUse" x1="27.1234" y1="-755.8984" x2="14.8838" y2="-736.2649" gradientTransform="matrix(1 0 0 1 0 768)">
	<stop  offset="0.16" style="stop-color:#C6F462"/>
	<stop  offset="0.89" style="stop-color:#33D9FF"/>
</linearGradient>
<path style="display:none;fill:url(#SVGID_00000145038290711037612640000011700736986966474141_);" d="M28.5,25.1
	c-3.2-4.7-7.8-7.3-13.3-8.2c-1.5-0.2-3-0.2-4.4,0.5c-0.7,0.3-1.2,0.8-1.4,1.7c4.3-1.2,8.2-0.1,11.9,2c3.7,2.1,6.6,5,7.7,9.4
	c0.8-0.7,0.9-1.5,0.7-2.3C29.4,27.2,29.1,26,28.5,25.1L28.5,25.1z"/>
<linearGradient id="SVGID_00000126295437348953314100000010012067335265882772_" gradientUnits="userSpaceOnUse" x1="27.2885" y1="-755.7953" x2="15.0489" y2="-736.1617" gradientTransform="matrix(1 0 0 1 0 768)">
	<stop  offset="0.16" style="stop-color:#C6F462"/>
	<stop  offset="0.89" style="stop-color:#33D9FF"/>
</linearGradient>
<path style="display:none;fill:url(#SVGID_00000126295437348953314100000010012067335265882772_);" d="M9.6,25.4
	c0.3,0.6,0.5,1.3,0.9,1.8c0.2,0.3,0.8,0.2,1.3,0.2c0.1,0,0.1,0,0.2,0c3.9,0.6,6.9,2.4,9.1,5.7c0.1,0.2,0.3,0.5,0.5,0.5
	c0.7,0,1.3-0.1,2-0.2C22.5,28,14.4,23.6,9.6,25.4L9.6,25.4z"/>
<linearGradient id="SVGID_00000128469587868646315550000009167278088182649278_" gradientUnits="userSpaceOnUse" x1="26.9911" y1="-755.9809" x2="14.7511" y2="-736.3474" gradientTransform="matrix(1 0 0 1 0 768)">
	<stop  offset="0.16" style="stop-color:#C6F462"/>
	<stop  offset="0.89" style="stop-color:#33D9FF"/>
</linearGradient>
<path style="display:none;fill:url(#SVGID_00000128469587868646315550000009167278088182649278_);" d="M30.3,20.9
	c-2.1-3-5.1-5-8.4-6.4c-2.3-1-4.7-1.6-7.2-1.3c-0.9,0.1-1.7,0.4-2.4,0.9c8.7,0.2,15.2,4,19.6,11.4c0-0.5,0.1-1-0.1-1.5
	C31.4,23,31,21.8,30.3,20.9z"/>
<linearGradient id="SVGID_00000147221539827012483650000000584330294760326841_" gradientUnits="userSpaceOnUse" x1="27.0868" y1="-755.9214" x2="14.8468" y2="-736.2879" gradientTransform="matrix(1 0 0 1 0 768)">
	<stop  offset="0.16" style="stop-color:#C6F462"/>
	<stop  offset="0.89" style="stop-color:#33D9FF"/>
</linearGradient>
<path style="display:none;fill:url(#SVGID_00000147221539827012483650000000584330294760326841_);" d="M32.3,19.3
	C30.5,12.6,23.3,9.4,18,11C23.8,12.1,28.4,14.9,32.3,19.3z"/>
<linearGradient id="SVGID_00000016794955277204108830000012501630956731981189_" gradientUnits="userSpaceOnUse" x1="27.3621" y1="-755.7496" x2="15.1225" y2="-736.1161" gradientTransform="matrix(1 0 0 1 0 768)">
	<stop  offset="0.16" style="stop-color:#C6F462"/>
	<stop  offset="0.89" style="stop-color:#33D9FF"/>
</linearGradient>
<path style="display:none;fill:url(#SVGID_00000016794955277204108830000012501630956731981189_);" d="M11.5,29c2,2.6,4.6,4.1,8,4.6
	C18.2,31.2,13.7,28.7,11.5,29L11.5,29z"/>
<ellipse class="st17" cx="21.2" cy="21.9" rx="15.5" ry="15.3"/>
<linearGradient id="SVGID_00000145755571393732306800000016858439988101948850_" gradientUnits="userSpaceOnUse" x1="27.7072" y1="-756.4798" x2="15.1602" y2="-736.3538" gradientTransform="matrix(1 0 0 1 0 768)">
	<stop  offset="0.16" style="stop-color:#C6F462"/>
	<stop  offset="0.89" style="stop-color:#33D9FF"/>
</linearGradient>
<path style="fill:url(#SVGID_00000145755571393732306800000016858439988101948850_);" d="M26.3,28.1c-2.6-4.1-6.4-6.4-11.1-7.3
	c-1.7-0.3-3.4-0.3-5,0.3c-1.1,0.4-1.3,0.9-0.8,2c3.6-0.8,6.9-0.1,10,1.7c3.1,1.8,5.4,4.2,6.5,7.7c1.5-0.4,1.7-0.7,1.3-2
	C27,29.7,26.7,28.8,26.3,28.1L26.3,28.1z"/>
<linearGradient id="SVGID_00000062884316816998855110000006825024494619921538_" gradientUnits="userSpaceOnUse" x1="27.6201" y1="-756.4627" x2="15.0497" y2="-736.2988" gradientTransform="matrix(1 0 0 1 0 768)">
	<stop  offset="0.16" style="stop-color:#C6F462"/>
	<stop  offset="0.89" style="stop-color:#33D9FF"/>
</linearGradient>
<path style="fill:url(#SVGID_00000062884316816998855110000006825024494619921538_);" d="M29.1,24.8c-3.3-4.7-8-7.3-13.7-8.2
	c-1.5-0.2-3.1-0.2-4.5,0.5c-0.7,0.3-1.3,0.8-1.4,1.7c4.5-1.2,8.4-0.1,12.2,2c3.8,2.1,6.7,5,7.9,9.4c0.8-0.7,0.9-1.5,0.7-2.3
	C30,26.9,29.7,25.7,29.1,24.8L29.1,24.8z"/>
<linearGradient id="SVGID_00000035495663668555417580000009936363881124279969_" gradientUnits="userSpaceOnUse" x1="27.7918" y1="-756.4919" x2="15.2605" y2="-736.3906" gradientTransform="matrix(1 0 0 1 0 768)">
	<stop  offset="0.16" style="stop-color:#C6F462"/>
	<stop  offset="0.89" style="stop-color:#33D9FF"/>
</linearGradient>
<path style="fill:url(#SVGID_00000035495663668555417580000009936363881124279969_);" d="M9.7,25.1c0.3,0.6,0.5,1.3,0.9,1.8
	c0.2,0.3,0.9,0.2,1.3,0.2c0.1,0,0.1,0,0.2,0c4,0.6,7.1,2.4,9.3,5.7c0.1,0.2,0.3,0.5,0.5,0.5c0.7,0,1.3-0.1,2-0.2
	C22.9,27.7,14.6,23.2,9.7,25.1L9.7,25.1z"/>
<linearGradient id="SVGID_00000151512883373682031650000015940154935132221312_" gradientUnits="userSpaceOnUse" x1="27.5058" y1="-756.4726" x2="14.8514" y2="-736.1743" gradientTransform="matrix(1 0 0 1 0 768)">
	<stop  offset="0.16" style="stop-color:#C6F462"/>
	<stop  offset="0.89" style="stop-color:#33D9FF"/>
</linearGradient>
<path style="fill:url(#SVGID_00000151512883373682031650000015940154935132221312_);" d="M30.9,20.6c-2.2-3-5.2-5-8.6-6.4
	c-2.4-1-4.8-1.6-7.4-1.3c-0.9,0.1-1.7,0.4-2.4,0.9c8.9,0.2,15.6,4,20.1,11.4c0-0.5,0.1-1-0.1-1.5C32,22.6,31.6,21.5,30.9,20.6z"/>
<linearGradient id="SVGID_00000160174267658270216790000006650351477168698524_" gradientUnits="userSpaceOnUse" x1="27.5935" y1="-756.2776" x2="14.9438" y2="-735.9871" gradientTransform="matrix(1 0 0 1 0 768)">
	<stop  offset="0.16" style="stop-color:#C6F462"/>
	<stop  offset="0.89" style="stop-color:#33D9FF"/>
</linearGradient>
<path style="fill:url(#SVGID_00000160174267658270216790000006650351477168698524_);" d="M32.9,19c-1.8-6.7-9.1-9.9-14.6-8.3
	C24.2,11.8,29,14.5,32.9,19z"/>
<linearGradient id="SVGID_00000174578085845690763730000000927446780799847819_" gradientUnits="userSpaceOnUse" x1="27.7408" y1="-756.2889" x2="15.3636" y2="-736.4348" gradientTransform="matrix(1 0 0 1 0 768)">
	<stop  offset="0.16" style="stop-color:#C6F462"/>
	<stop  offset="0.89" style="stop-color:#33D9FF"/>
</linearGradient>
<path style="fill:url(#SVGID_00000174578085845690763730000000927446780799847819_);" d="M11.6,28.7c2.1,2.6,4.8,4.1,8.2,4.6
	C18.5,30.9,13.9,28.3,11.6,28.7L11.6,28.7z"/>
</svg>
