<?xml version="1.0" encoding="utf-8"?>
<!-- Generator: Adobe Illustrator 27.9.0, SVG Export Plug-In . SVG Version: 6.00 Build 0)  -->
<svg version="1.1" xmlns="http://www.w3.org/2000/svg" xmlns:xlink="http://www.w3.org/1999/xlink" x="0px" y="0px"
	 viewBox="0 0 42 42" style="enable-background:new 0 0 42 42;" xml:space="preserve">
<style type="text/css">
	.st0{display:none;}
	.st1{display:inline;}
	.st2{fill:#FFFFFF;}
	.st3{display:inline;fill:#FFFFFF;}
	.st4{fill:#141726;}
	.st5{fill:url(#SVGID_1_);}
	.st6{fill:url(#SVGID_00000075151094648895532510000000879826823657463176_);}
	.st7{fill:url(#SVGID_00000016756800210883964710000003585089373555922848_);}
	.st8{fill:url(#SVGID_00000009571700655433493390000006965076318292384390_);}
	.st9{fill:url(#SVGID_00000176756030720088564570000001793563311459385229_);}
	.st10{fill:url(#SVGID_00000142888965733798762920000017356187346057169558_);}
	.st11{fill:url(#SVGID_00000026128410033137846720000012188055834444606607_);}
	.st12{fill:url(#SVGID_00000116226498851401476840000010253603847965617309_);}
	.st13{fill:url(#SVGID_00000101812568262831544540000000502324991412134306_);}
	.st14{fill:url(#SVGID_00000137827070024764962970000005555127443192545449_);}
	.st15{fill:url(#SVGID_00000012473045354060864260000010674126358831399557_);}
	.st16{fill:url(#SVGID_00000171683311146056095380000001166944844250626948_);}
	.st17{display:inline;fill:#141726;}
	.st18{display:inline;fill:url(#SVGID_00000087383730021628861650000010937517753614125969_);}
	.st19{display:inline;fill:url(#SVGID_00000010280972313979948850000015114288676442374039_);}
	.st20{display:inline;fill:url(#SVGID_00000017511836252963049640000000666385225165605035_);}
	.st21{display:inline;fill:url(#SVGID_00000032632105862783779700000018283632490284371381_);}
	.st22{display:inline;fill:url(#SVGID_00000030482388068626051110000008357721242040786326_);}
	.st23{display:inline;fill:url(#SVGID_00000054250344092595836800000008446884795294877105_);}
	.st24{fill:#342871;}
	.st25{fill:#181238;}
	.st26{fill:#32266B;}
	.st27{fill:#2A1F5B;}
	.st28{fill:#130E2F;}
	.st29{fill:#221A4D;}
	.st30{fill:#161033;}
	.st31{fill:#1D1643;}
	.st32{fill:#2D2262;}
	.st33{fill:#261C53;}
	.st34{fill:#302368;}
	.st35{fill:#110C2A;}
	.st36{fill:#1B143E;}
	.st37{fill:#201848;}
	.st38{fill:#1C1540;}
	.st39{fill:#D3CFE3;}
	.st40{fill:#C4C0DB;}
	.st41{fill:#CCC8DF;}
	.st42{fill:#D9D6E7;}
	.st43{fill:#FD7DFD;}
	.st44{fill:#EF85F5;}
	.st45{fill:#FD82FD;}
	.st46{fill:#F5F4F9;}
	.st47{fill:#281D55;}
	.st48{fill:#FC6BFC;}
	.st49{fill:#E9E7F1;}
	.st50{fill:#DFDDEB;}
	.st51{fill:#E4E2EE;}
	.st52{fill:#FD78FD;}
	.st53{fill:#FD72FD;}
</style>
<g id="Layer_1" class="st0">
	<g id="Layer_1_00000027566297649258997720000009884691318524322957_">
		<g id="Layer_2_00000124135028766318550500000010995392347831517082_" class="st1">
			<path d="M42,37c0,2.8-2.2,5-5,5H9c-2.8,0-5-2.2-5-5V9c0-2.8,2.2-5,5-5h28"/>
		</g>
		<g id="Layer_1_00000000201888521056810490000015483352506411068054_" class="st1">
			<g id="XMLID_00000168824196801138155310000001267447264254332329_">
				<g>
					<polygon class="st2" points="16,11 30.1,31 27,31 12.9,11 					"/>
					<path class="st2" d="M40,35c0,2.8-2.2,5-5,5H7c-2.8,0-5-2.2-5-5V7c0-2.8,2.2-5,5-5h28c2.8,0,5,2.2,5,5"/>
				</g>
			</g>
		</g>
	</g>
	<g id="Layer_2_00000151503041770280004470000017128914574472954300_">
		<path class="st1" d="M36,20.9c0,8.4-6.7,15.2-15.1,15.2S5.7,29.4,5.7,21S12.4,5.8,20.8,5.8S36,12.6,36,20.9z"/>
		<path class="st3" d="M34.9,20.9c0,7.7-6.2,14-13.9,14.1S7,28.8,6.9,21.1c0-7.7,6.2-14,13.9-14.1C28.6,7,34.8,13.2,34.9,20.9
			L34.9,20.9z"/>
		<path class="st3" d="M21.1,7.9c0.9-0.2,1.8-0.2,2.7,0c0.9,0.1,1.8,0.4,2.6,0.9c0.8,0.4,1.5,1,2.2,1.6s1.4,1.1,2,1.8
			c0.7,0.6,1.2,1.3,1.7,2.1s0.9,1.6,1.2,2.4c0.6,1.7,0.8,3.5,0.5,5.3h-0.1c-0.3-1.7-0.7-3.4-1.3-5c-0.3-0.8-0.6-1.6-1-2.3
			c-0.4-0.8-0.9-1.5-1.4-2.2s-1.1-1.3-1.8-1.8c-0.7-0.5-1.5-0.8-2.3-1.1S24.5,9,23.7,8.7S22,8.2,21.1,7.9L21.1,7.9z"/>
		<path class="st1" d="M28,16c-1-0.3-2.1-0.7-3.1-1.1c-0.1-0.3-0.3-0.6-0.8-1c-0.7-0.6-2-0.6-3.1-0.3c-1.2-0.3-2.5-0.4-3.7-0.1
			c-9.7,2.7-4.2,9.2-7.7,15.7c0.5,1.1,6,7.3,13.8,5.6c0,0-2.7-6.5,3.4-9.6C31.7,22.7,35.3,18,28,16L28,16z"/>
		<path class="st3" d="M29.2,20.3c0,0.3-0.3,0.6-0.6,0.6c-0.3,0-0.6-0.3-0.6-0.6s0.3-0.6,0.6-0.6l0,0C28.9,19.7,29.2,19.9,29.2,20.3
			L29.2,20.3z"/>
		<path class="st1" d="M20.9,13.5c0.7,0.1,3.3,0.9,3.9,1.3C24.3,13.3,22.5,13.1,20.9,13.5z"/>
		<path class="st3" d="M21.6,17.6c0,1.5-1.2,2.7-2.7,2.7s-2.7-1.2-2.7-2.7s1.2-2.7,2.7-2.7S21.6,16.1,21.6,17.6z"/>
		<path class="st1" d="M20.8,17.6c0,1.1-0.9,1.9-1.9,1.9c-1.1,0-1.9-0.9-1.9-1.9c0-1.1,0.9-1.9,1.9-1.9l0,0
			C20,15.7,20.8,16.5,20.8,17.6z"/>
		<path class="st1" d="M31.4,21.4c-2.2,1.5-4.7,2.7-8.2,2.7c-1.7,0-2-1.8-3.1-0.9c-0.6,0.4-2.6,1.4-4.1,1.4s-4.1-1-4.9-4.4
			c-0.3,3.4-0.4,5.9-1.7,8.7c2.5,4,8.5,7.1,14,5.8c-0.6-4.1,3-8.1,5-10.2C29.1,23.8,30.6,22.6,31.4,21.4L31.4,21.4z"/>
		<path class="st3" d="M31.3,21.5c-0.7,0.6-1.5,1.1-2.3,1.5s-1.7,0.7-2.6,0.9c-0.9,0.2-1.8,0.4-2.8,0.3s-1.9-0.4-2.5-1.1l0,0
			c0.8,0.5,1.7,0.7,2.5,0.7c0.9,0,1.8,0,2.7-0.2c0.9-0.2,1.8-0.5,2.6-0.8C29.7,22.5,30.5,22.1,31.3,21.5L31.3,21.5z"/>
	</g>
	<g id="Layer_3">
		<path class="st1" d="M36.7,21.9c0,8.4-6.7,15.2-15.1,15.2S6.4,30.4,6.4,22S13.1,6.8,21.5,6.8S36.7,13.5,36.7,21.9z"/>
		<path class="st1" d="M35.6,21.9c0,7.7-6.2,14-13.9,14.1s-14-6.3-14.1-14c0-7.7,6.2-14,13.9-14.1C29.3,7.9,35.6,14.2,35.6,21.9
			L35.6,21.9z"/>
	</g>
	<g id="Layer_4">
		<g id="f7ju5l_00000174562553886599139810000005661213759226868372_" class="st1">
			<g>
				<path class="st2" d="M18.8,21.3c0,0.3-0.1,0.7-0.1,1c0,0.1-0.1,0.1-0.1,0.1c-0.7,0.4-1.4,0.8-2.1,1.2c-0.1,0-0.1,0.1-0.1,0.1
					c0.1,0,0.1,0.1,0.1,0.1c0.5,0.3,1.1,0.6,1.6,0.9c0.3,0.2,0.6,0.4,0.8,0.7c0.4,0.6,0.8,1.3,1,2c0.4,1.1,0.8,2.4,1.2,3.6
					c0.1,0.4,0.3,0.8,0.4,1.3c0-0.1,0-0.1,0.1-0.1c0.3-1,0.6-2.1,0.9-3.1c0.3-0.9,0.7-1.9,1.1-2.7c0.1-0.1,0.2-0.3,0.3-0.4
					c0.3-0.4,0.7-0.8,1.1-1c0.5-0.3,1-0.6,1.5-0.9c0.1,0,0.1-0.1,0.1-0.1c0-0.2,0-0.2-0.1-0.2c-0.7-0.4-1.4-0.8-2.1-1.2
					c-0.1-0.1-0.1-0.1-0.1-0.2c0-0.3-0.1-0.5-0.1-0.8c0-0.1,0-0.1,0-0.1c0.3,0,0.4-0.1,0.7-0.1c0.6-0.1,1.1-0.4,1.5-0.8
					c0.6-0.7,0.7-1.4,0.4-2.3c-0.1-0.1-0.1-0.3-0.2-0.4v-0.1c0.4-0.4,0.7-0.9,1.1-1.4c0,0,0,0,0.1,0c0.1,0.1,0.1,0.3,0.2,0.3
					c0.6,1.1,0.8,2.3,0.8,3.6c0,0.9,0,1.9,0,2.8c0.1,2.4,0.6,4.5,1.6,6.6c0,0,0,0,0,0.1c-0.8-0.7-1.6-1.3-2.4-2
					c-0.6,0.9-1.2,1.9-1.7,2.8c-0.6-0.6-1.2-1.1-1.9-1.7c-1,1.6-2,3.1-2.9,4.7c-1-1.6-2-3.1-2.9-4.7c-0.6,0.6-1.2,1.1-1.9,1.7
					c-0.6-0.9-1.2-1.9-1.7-2.8c-0.8,0.7-1.6,1.3-2.4,2l0,0c0-0.1,0-0.1,0.1-0.1c0.9-1.6,1.3-3.3,1.5-5.1c0.1-0.9,0.1-1.9,0.1-2.7
					c0-0.7,0-1.3,0-2c0-1.3,0.3-2.4,0.9-3.5c0,0,0,0,0-0.1l0.1,0.1c0.3,0.4,0.7,0.9,1,1.3c0.1,0.1,0.1,0.1,0,0.2
					c-0.1,0.3-0.3,0.7-0.3,1c-0.1,0.9,0.3,1.8,1.1,2.2C17.8,21.2,18.2,21.3,18.8,21.3L18.8,21.3z"/>
				<path class="st2" d="M14.8,13.3c0.1,0.2,0.3,0.4,0.4,0.5c0.2,0.2,0.4,0.3,0.7,0.4c0.1,0.1,0.2,0.1,0.3,0.1
					c0.1,0.1,0.3,0,0.4-0.1c1.2-1.2,2.7-1.9,4.3-2c2.2-0.2,4.1,0.5,5.7,2c0.1,0.1,0.1,0.1,0.3,0.1c0.2-0.1,0.4-0.1,0.6-0.3
					c0.3-0.2,0.7-0.4,0.9-0.8l0.1,0.1c-0.1,0.1-0.1,0.3-0.1,0.3c-0.3,0.7-0.8,1.4-1.3,1.9c-1.2,1.3-2.5,2.4-4.1,3.2
					c-0.1,0.1-0.2,0.1-0.3,0c-0.7-0.4-1.5-0.4-2.1,0.1c-0.1,0.1-0.1,0.1-0.2,0c-1.9-1-3.5-2.3-4.7-3.9c-0.3-0.3-0.6-0.8-0.8-1.3
					C14.8,13.5,14.8,13.4,14.8,13.3z"/>
				<path class="st2" d="M24.4,23.6C24.4,23.7,24.4,23.7,24.4,23.6c-0.9,0.5-1.4,1.2-1.9,2c-0.3,0.7-0.6,1.4-0.9,2.1
					c-0.1,0.1-0.1,0.3-0.1,0.4c0-0.1-0.1-0.1-0.1-0.1c-0.3-0.7-0.4-1.4-0.7-2c-0.3-0.8-0.7-1.4-1.4-2c-0.2-0.1-0.4-0.3-0.6-0.4
					c0,0,0,0,0.1-0.1c0.3-0.1,0.5-0.3,0.9-0.4c0.2-0.1,0.3-0.3,0.3-0.4c0-0.5,0-1,0.1-1.5s0.4-1,0.9-1.3c0.4-0.3,1-0.3,1.4,0
					c0.5,0.4,0.8,1,0.9,1.6c0.1,0.4,0.1,0.8,0.1,1.2c0,0.2,0.1,0.4,0.3,0.4C23.9,23.3,24.1,23.5,24.4,23.6z"/>
				<path class="st2" d="M19.8,19.8C19.5,20,19.3,20,19,20.1c-0.4,0.1-0.8,0-1.2-0.3c-0.5-0.3-0.6-0.9-0.3-1.4l0,0
					C18.2,19,18.9,19.5,19.8,19.8z"/>
				<path class="st2" d="M25.7,18.4c0.3,0.4,0.3,1-0.2,1.3c-0.4,0.3-0.9,0.4-1.4,0.4c-0.3,0-0.5-0.1-0.8-0.3
					C24.3,19.5,25.1,19,25.7,18.4z"/>
			</g>
		</g>
	</g>
	<circle class="st4" cx="21.6" cy="22.1" r="15"/>
	
		<linearGradient id="SVGID_1_" gradientUnits="userSpaceOnUse" x1="28.2086" y1="799.8453" x2="15.9686" y2="780.2117" gradientTransform="matrix(1 0 0 -1 0 812)">
		<stop  offset="0.16" style="stop-color:#C6F462"/>
		<stop  offset="0.89" style="stop-color:#33D9FF"/>
	</linearGradient>
	<path class="st5" d="M26.8,28.5c-2.5-4.1-6.2-6.4-10.9-7.3c-1.6-0.3-3.3-0.3-4.9,0.3c-1.1,0.4-1.2,0.9-0.7,2
		c3.5-0.8,6.7-0.1,9.7,1.7c3,1.8,5.3,4.2,6.3,7.7c1.4-0.4,1.6-0.7,1.3-2C27.4,30,27.2,29.2,26.8,28.5L26.8,28.5z"/>
	
		<linearGradient id="SVGID_00000138564144636989488060000011546412780935471784_" gradientUnits="userSpaceOnUse" x1="28.1003" y1="799.9128" x2="15.8607" y2="780.2793" gradientTransform="matrix(1 0 0 -1 0 812)">
		<stop  offset="0.16" style="stop-color:#C6F462"/>
		<stop  offset="0.89" style="stop-color:#33D9FF"/>
	</linearGradient>
	<path style="fill:url(#SVGID_00000138564144636989488060000011546412780935471784_);" d="M29.5,25.1c-3.2-4.7-7.8-7.3-13.3-8.2
		c-1.5-0.2-3-0.2-4.4,0.5c-0.7,0.3-1.2,0.8-1.4,1.7c4.3-1.2,8.2-0.1,11.9,2s6.6,5,7.7,9.4c0.8-0.7,0.9-1.5,0.7-2.3
		C30.4,27.2,30.1,26,29.5,25.1L29.5,25.1z"/>
	
		<linearGradient id="SVGID_00000026157067346694787650000001393607533491183531_" gradientUnits="userSpaceOnUse" x1="28.3109" y1="799.7814" x2="16.0713" y2="780.1478" gradientTransform="matrix(1 0 0 -1 0 812)">
		<stop  offset="0.16" style="stop-color:#C6F462"/>
		<stop  offset="0.89" style="stop-color:#33D9FF"/>
	</linearGradient>
	<path style="fill:url(#SVGID_00000026157067346694787650000001393607533491183531_);" d="M10.6,25.4c0.3,0.6,0.5,1.3,0.9,1.8
		c0.2,0.3,0.8,0.2,1.3,0.2c0.1,0,0.1,0,0.2,0c3.9,0.6,6.9,2.4,9.1,5.7c0.1,0.2,0.3,0.5,0.5,0.5c0.7,0,1.3-0.1,2-0.2
		C23.5,28,15.4,23.6,10.6,25.4L10.6,25.4z"/>
	
		<linearGradient id="SVGID_00000011709463587980428480000001183962169290075284_" gradientUnits="userSpaceOnUse" x1="27.9621" y1="799.999" x2="15.7221" y2="780.3655" gradientTransform="matrix(1 0 0 -1 0 812)">
		<stop  offset="0.16" style="stop-color:#C6F462"/>
		<stop  offset="0.89" style="stop-color:#33D9FF"/>
	</linearGradient>
	<path style="fill:url(#SVGID_00000011709463587980428480000001183962169290075284_);" d="M31.3,20.9c-2.1-3-5.1-5-8.4-6.4
		c-2.3-1-4.7-1.6-7.2-1.3c-0.9,0.1-1.7,0.4-2.4,0.9c8.7,0.2,15.2,4,19.6,11.4c0-0.5,0.1-1-0.1-1.5C32.4,23,32,21.8,31.3,20.9z"/>
	
		<linearGradient id="SVGID_00000183251297230506511160000004674332837592890029_" gradientUnits="userSpaceOnUse" x1="28.0709" y1="799.9313" x2="15.8309" y2="780.2978" gradientTransform="matrix(1 0 0 -1 0 812)">
		<stop  offset="0.16" style="stop-color:#C6F462"/>
		<stop  offset="0.89" style="stop-color:#33D9FF"/>
	</linearGradient>
	<path style="fill:url(#SVGID_00000183251297230506511160000004674332837592890029_);" d="M33.3,19.3c-1.8-6.7-9-9.9-14.3-8.3
		C24.8,12.1,29.4,14.9,33.3,19.3z"/>
	
		<linearGradient id="SVGID_00000053514422302710078370000015471408225020982912_" gradientUnits="userSpaceOnUse" x1="28.3718" y1="799.7435" x2="16.1322" y2="780.11" gradientTransform="matrix(1 0 0 -1 0 812)">
		<stop  offset="0.16" style="stop-color:#C6F462"/>
		<stop  offset="0.89" style="stop-color:#33D9FF"/>
	</linearGradient>
	<path style="fill:url(#SVGID_00000053514422302710078370000015471408225020982912_);" d="M12.5,29c2,2.6,4.6,4.1,8,4.6
		C19.2,31.2,14.7,28.7,12.5,29L12.5,29z"/>
	<circle class="st4" cx="20.6" cy="22.1" r="15"/>
	
		<linearGradient id="SVGID_00000146482894807921292180000009007173470760205707_" gradientUnits="userSpaceOnUse" x1="27.2086" y1="799.8453" x2="14.9686" y2="780.2117" gradientTransform="matrix(1 0 0 -1 0 812)">
		<stop  offset="0.16" style="stop-color:#C6F462"/>
		<stop  offset="0.89" style="stop-color:#33D9FF"/>
	</linearGradient>
	<path style="fill:url(#SVGID_00000146482894807921292180000009007173470760205707_);" d="M25.8,28.5c-2.5-4.1-6.2-6.4-10.9-7.3
		c-1.6-0.3-3.3-0.3-4.9,0.3c-1.1,0.4-1.2,0.9-0.7,2c3.5-0.8,6.7-0.1,9.7,1.7c3,1.8,5.3,4.2,6.3,7.7c1.4-0.4,1.6-0.7,1.3-2
		C26.4,30,26.2,29.2,25.8,28.5L25.8,28.5z"/>
	
		<linearGradient id="SVGID_00000069370344490838115490000008323521553554490537_" gradientUnits="userSpaceOnUse" x1="27.1003" y1="799.9128" x2="14.8607" y2="780.2793" gradientTransform="matrix(1 0 0 -1 0 812)">
		<stop  offset="0.16" style="stop-color:#C6F462"/>
		<stop  offset="0.89" style="stop-color:#33D9FF"/>
	</linearGradient>
	<path style="fill:url(#SVGID_00000069370344490838115490000008323521553554490537_);" d="M28.5,25.1c-3.2-4.7-7.8-7.3-13.3-8.2
		c-1.5-0.2-3-0.2-4.4,0.5c-0.7,0.3-1.2,0.8-1.4,1.7c4.3-1.2,8.2-0.1,11.9,2s6.6,5,7.7,9.4c0.8-0.7,0.9-1.5,0.7-2.3
		C29.4,27.2,29.1,26,28.5,25.1L28.5,25.1z"/>
	
		<linearGradient id="SVGID_00000055704980130413316510000004364082934475387823_" gradientUnits="userSpaceOnUse" x1="27.3109" y1="799.7814" x2="15.0713" y2="780.1478" gradientTransform="matrix(1 0 0 -1 0 812)">
		<stop  offset="0.16" style="stop-color:#C6F462"/>
		<stop  offset="0.89" style="stop-color:#33D9FF"/>
	</linearGradient>
	<path style="fill:url(#SVGID_00000055704980130413316510000004364082934475387823_);" d="M9.6,25.4c0.3,0.6,0.5,1.3,0.9,1.8
		c0.2,0.3,0.8,0.2,1.3,0.2c0.1,0,0.1,0,0.2,0c3.9,0.6,6.9,2.4,9.1,5.7c0.1,0.2,0.3,0.5,0.5,0.5c0.7,0,1.3-0.1,2-0.2
		C22.5,28,14.4,23.6,9.6,25.4L9.6,25.4z"/>
	
		<linearGradient id="SVGID_00000005264484744974422530000008596649445883710370_" gradientUnits="userSpaceOnUse" x1="26.9621" y1="799.999" x2="14.7221" y2="780.3655" gradientTransform="matrix(1 0 0 -1 0 812)">
		<stop  offset="0.16" style="stop-color:#C6F462"/>
		<stop  offset="0.89" style="stop-color:#33D9FF"/>
	</linearGradient>
	<path style="fill:url(#SVGID_00000005264484744974422530000008596649445883710370_);" d="M30.3,20.9c-2.1-3-5.1-5-8.4-6.4
		c-2.3-1-4.7-1.6-7.2-1.3c-0.9,0.1-1.7,0.4-2.4,0.9c8.7,0.2,15.2,4,19.6,11.4c0-0.5,0.1-1-0.1-1.5C31.4,23,31,21.8,30.3,20.9z"/>
	
		<linearGradient id="SVGID_00000066493337042645270580000002219671262128556178_" gradientUnits="userSpaceOnUse" x1="27.0709" y1="799.9313" x2="14.8309" y2="780.2978" gradientTransform="matrix(1 0 0 -1 0 812)">
		<stop  offset="0.16" style="stop-color:#C6F462"/>
		<stop  offset="0.89" style="stop-color:#33D9FF"/>
	</linearGradient>
	<path style="fill:url(#SVGID_00000066493337042645270580000002219671262128556178_);" d="M32.3,19.3c-1.8-6.7-9-9.9-14.3-8.3
		C23.8,12.1,28.4,14.9,32.3,19.3z"/>
	
		<linearGradient id="SVGID_00000103236884035002806640000014024438924610309055_" gradientUnits="userSpaceOnUse" x1="27.3718" y1="799.7435" x2="15.1322" y2="780.11" gradientTransform="matrix(1 0 0 -1 0 812)">
		<stop  offset="0.16" style="stop-color:#C6F462"/>
		<stop  offset="0.89" style="stop-color:#33D9FF"/>
	</linearGradient>
	<path style="fill:url(#SVGID_00000103236884035002806640000014024438924610309055_);" d="M11.5,29c2,2.6,4.6,4.1,8,4.6
		C18.2,31.2,13.7,28.7,11.5,29L11.5,29z"/>
	<ellipse class="st17" cx="21.2" cy="21.9" rx="15.5" ry="15.3"/>
	
		<linearGradient id="SVGID_00000160161314871547543240000007876367154755646631_" gradientUnits="userSpaceOnUse" x1="27.7548" y1="800.4501" x2="15.2078" y2="780.3242" gradientTransform="matrix(1 0 0 -1 0 812)">
		<stop  offset="0.16" style="stop-color:#C6F462"/>
		<stop  offset="0.89" style="stop-color:#33D9FF"/>
	</linearGradient>
	<path style="display:inline;fill:url(#SVGID_00000160161314871547543240000007876367154755646631_);" d="M26.3,28.1
		c-2.6-4.1-6.4-6.4-11.1-7.3c-1.7-0.3-3.4-0.3-5,0.3c-1.1,0.4-1.3,0.9-0.8,2c3.6-0.8,6.9-0.1,10,1.7c3.1,1.8,5.4,4.2,6.5,7.7
		c1.5-0.4,1.7-0.7,1.3-2C27,29.7,26.7,28.8,26.3,28.1L26.3,28.1z"/>
	
		<linearGradient id="SVGID_00000109728308409003751980000011039838859307555247_" gradientUnits="userSpaceOnUse" x1="27.5941" y1="800.4789" x2="15.0237" y2="780.315" gradientTransform="matrix(1 0 0 -1 0 812)">
		<stop  offset="0.16" style="stop-color:#C6F462"/>
		<stop  offset="0.89" style="stop-color:#33D9FF"/>
	</linearGradient>
	<path style="display:inline;fill:url(#SVGID_00000109728308409003751980000011039838859307555247_);" d="M29.1,24.8
		c-3.3-4.7-8-7.3-13.7-8.2c-1.5-0.2-3.1-0.2-4.5,0.5c-0.7,0.3-1.3,0.8-1.4,1.7c4.5-1.2,8.4-0.1,12.2,2s6.7,5,7.9,9.4
		c0.8-0.7,0.9-1.5,0.7-2.3C30,26.9,29.7,25.7,29.1,24.8L29.1,24.8z"/>
	
		<linearGradient id="SVGID_00000070833715353871949300000002491933920894868413_" gradientUnits="userSpaceOnUse" x1="27.7739" y1="800.5031" x2="15.2426" y2="780.4018" gradientTransform="matrix(1 0 0 -1 0 812)">
		<stop  offset="0.16" style="stop-color:#C6F462"/>
		<stop  offset="0.89" style="stop-color:#33D9FF"/>
	</linearGradient>
	<path style="display:inline;fill:url(#SVGID_00000070833715353871949300000002491933920894868413_);" d="M9.7,25.1
		c0.3,0.6,0.5,1.3,0.9,1.8c0.2,0.3,0.9,0.2,1.3,0.2c0.1,0,0.1,0,0.2,0c4,0.6,7.1,2.4,9.3,5.7c0.1,0.2,0.3,0.5,0.5,0.5
		c0.7,0,1.3-0.1,2-0.2C22.9,27.7,14.6,23.2,9.7,25.1L9.7,25.1z"/>
	
		<linearGradient id="SVGID_00000122717217706457261160000013991507863962904217_" gradientUnits="userSpaceOnUse" x1="27.5162" y1="800.4661" x2="14.8618" y2="780.1678" gradientTransform="matrix(1 0 0 -1 0 812)">
		<stop  offset="0.16" style="stop-color:#C6F462"/>
		<stop  offset="0.89" style="stop-color:#33D9FF"/>
	</linearGradient>
	<path style="display:inline;fill:url(#SVGID_00000122717217706457261160000013991507863962904217_);" d="M30.9,20.6
		c-2.2-3-5.2-5-8.6-6.4c-2.4-1-4.8-1.6-7.4-1.3c-0.9,0.1-1.7,0.4-2.4,0.9c8.9,0.2,15.6,4,20.1,11.4c0-0.5,0.1-1-0.1-1.5
		C32,22.6,31.6,21.5,30.9,20.6z"/>
	
		<linearGradient id="SVGID_00000108299720467321296970000004974257788731759275_" gradientUnits="userSpaceOnUse" x1="27.5621" y1="800.2972" x2="14.9124" y2="780.0067" gradientTransform="matrix(1 0 0 -1 0 812)">
		<stop  offset="0.16" style="stop-color:#C6F462"/>
		<stop  offset="0.89" style="stop-color:#33D9FF"/>
	</linearGradient>
	<path style="display:inline;fill:url(#SVGID_00000108299720467321296970000004974257788731759275_);" d="M32.9,19
		c-1.8-6.7-9.1-9.9-14.6-8.3C24.2,11.8,29,14.5,32.9,19z"/>
	
		<linearGradient id="SVGID_00000128467672963620625130000017571380854750521534_" gradientUnits="userSpaceOnUse" x1="27.7293" y1="800.296" x2="15.3521" y2="780.442" gradientTransform="matrix(1 0 0 -1 0 812)">
		<stop  offset="0.16" style="stop-color:#C6F462"/>
		<stop  offset="0.89" style="stop-color:#33D9FF"/>
	</linearGradient>
	<path style="display:inline;fill:url(#SVGID_00000128467672963620625130000017571380854750521534_);" d="M11.6,28.7
		c2.1,2.6,4.8,4.1,8.2,4.6C18.5,30.9,13.9,28.3,11.6,28.7L11.6,28.7z"/>
</g>
<g id="Layer_2">
	<g id="oXUPCp_00000124864113913674481140000004037407921626788242_">
		<g>
			<path class="st24" d="M0.3,0c7.1,0,14.2,0,21.3,0c-0.1,0.1-0.3,0.3-0.4,0.3c-0.5,0-0.9,0-1.4,0c-0.2,0-0.3,0-0.5,0.1
				C18.9,0.7,18.5,1,18,1.2c-0.4,0.2-0.4,0.3-0.1,0.6c0.1,0,0.1,0.1,0.2,0.2C18,2,17.9,2.1,17.9,2.1c-0.8,0.2-1.6,0.2-2.3,0.7
				c-0.4,0.3-1,0.5-1.5,0.8c-0.4,0.2-0.8,0.4-1.3,0.5c-0.5,0.1-1.2,0.8-1.3,1.3c0,0.1-0.1,0.2-0.2,0.4c-0.1-0.1-0.3-0.1-0.4-0.2
				c-0.4-0.3-0.9-0.2-1,0.2C9.9,6.1,9.8,6.2,9.5,6.2c-0.1,0-0.2,0.1-0.3,0.3c0,0,0.1,0.2,0.2,0.3C9.5,6.8,9.6,6.9,9.7,7
				C9.5,7,9.4,7,9.3,7c-0.7,0-1.3-0.2-1.9,0.3C7,7.7,6.6,7.7,6.2,7.9C6.1,8,5.9,8.1,5.8,8.2C5.9,8.3,6,8.4,6.1,8.5
				c0.1,0.1,0.1,0.1,0.2,0.1c-0.1,0-0.2,0.1-0.3,0.1c-0.3,0-0.7,0-1-0.1c-0.4,0-0.8,0.2-0.9,0.6C4,10,4,10,3.3,9.6
				c-0.1,0-0.1-0.1-0.2-0.1c-0.2,0-0.3,0.1-0.5,0.2c0.1,0.1,0.2,0.3,0.2,0.4c0,0.1,0.1,0.3,0,0.3c-0.1,0.1-0.3,0.2-0.4,0.3
				c-0.3,0.2-0.5,0.1-0.7-0.2c-0.1-0.1-0.1-0.3-0.2-0.4c-0.1,0.2-0.1,0.3-0.2,0.5c0,0.1,0,0.3-0.1,0.4C1.3,11,1.1,11,1,11
				c-0.5-0.6-0.5,0-0.5,0.2c0,0.6,0,1.2,0,1.8c0,0.2-0.1,0.3-0.2,0.5c0,0,0,0,0,0c0-0.3,0-0.6,0-0.8c0-0.3,0-0.6,0-0.9
				c0-0.2,0-0.4,0-0.5c0-0.3,0-0.7,0-1C0.3,6.7,0.3,3.4,0.3,0z"/>
			<path class="st25" d="M18.4,42c-3.2,0-6.4,0-9.7,0c0.2-0.1,0.4-0.3,0.7-0.3c0.4,0,0.7-0.1,0.8-0.6c0-0.1,0.1-0.2,0.2-0.3
				c0.3-0.1,0.6-0.2,1-0.2c0.8-0.2,1.8,0.1,2.4-0.9c0-0.1,0.2,0,0.3-0.1c0.3-0.1,0.8-0.1,1-0.4c0.3-0.4,0.7-0.5,1.2-0.6
				c0.4,0,0.6-0.2,0.6-0.6c0-0.7,0.4-1.2,1-1c0.6,0.2,1,0,1.6-0.1c0.1,0,0.2-0.1,0.3-0.1c-0.1-0.1-0.2-0.1-0.2-0.2
				c-0.1-0.1-0.2-0.3-0.2-0.4c0.2-0.1,0.4-0.2,0.5-0.1c0.2,0,0.4,0.2,0.6,0.2c0.1,0,0.1-0.1,0.2-0.1c0,0-0.1-0.1-0.1-0.1
				c-0.1-0.2-0.2-0.3-0.3-0.5c0.2,0,0.4,0,0.6,0c0.2,0.2,0.4,0.2,0.5,0c0.2,0,0.3,0,0.5,0c0,0,0.1,0.1,0.1,0.1c0,0,0.1-0.1,0.1-0.1
				c0,0,0.1,0,0.1,0c1.1-0.2,2.2-0.5,3.4-0.7c0.1,0,0.2-0.1,0.3-0.1c0.1,0,0.1,0,0.2-0.1c0.4-0.2,0.9-0.3,1.3-0.5
				c0.2,0,0.4-0.1,0.6-0.1c0.5,0.1,0.4-0.2,0.3-0.4c0.2-0.1,0.3-0.2,0.5-0.3c0.4,0.2,0.5,0,0.5-0.4c0,0,0-0.1,0.1,0
				c0.1,0,0.2,0.1,0.3,0.1c0.3-0.1,0.5-0.3,0.8-0.4c0.1-0.1,0.5-0.1,0.3-0.4c0-0.2,0.1-0.3,0.1-0.5c0.1-0.1,0.1-0.1,0.2-0.2
				c0.8,0.2,1.3-0.2,1.8-0.6c0.2-0.1,0.4-0.3,0.4-0.5c0-0.4,0.2-0.4,0.6-0.4c0.4,0,0.8-0.1,1.2-0.3c0.3-0.1,0.5-0.3,0.7-0.4
				c0.4-0.1,0.8-0.2,1-0.7c0-0.2,0.3-0.3,0.6-0.4c0.3-0.2,0.9-0.2,1-0.4c0.3-0.5,0.8-0.6,1.2-0.8c0.1-0.1,0.3-0.1,0.5-0.1
				c0.6-0.3,1.2-0.6,1.9-0.9c0,0.8,0,1.6,0,2.4c-0.3,0-0.7,0-1,0c-0.2,0-0.5,0.2-0.6,0.4c-0.1,0.4-0.3,0.5-0.7,0.4
				c-0.4,0-0.9,0-1.1,0.5c0,0.1-0.2,0.2-0.4,0.2c-0.3,0.1-0.7,0.1-0.9,0.3c-0.3,0.1-0.6,0.3-0.4,0.8c0.2,0.3,0.1,0.6-0.4,0.7
				c-0.2,0-0.3,0.1-0.5,0.1c-0.6,0-0.8,0.3-0.8,0.8c-0.1,0.6-0.3,0.7-0.8,0.3c-0.3-0.2-0.5-0.3-0.7,0.2c-0.1,0.2-0.3,0.3-0.5,0.4
				c-0.4,0.2-0.9,0.3-1.2,0.5c-0.3,0.3-0.6,0.4-1.1,0.4c-0.2,0-0.5,0.1-0.5,0.2c-0.1,0.7-0.6,0.5-1,0.6c-0.3,0-0.6,0.2-0.7,0.4
				c-0.2,0.6-0.6,0.5-1.1,0.5c-0.2,0-0.6,0.2-0.6,0.3c-0.1,0.5-0.4,0.4-0.7,0.5c-0.3,0-0.8,0.1-0.9,0.3c-0.2,0.6-0.6,0.5-1.1,0.6
				c-0.2,0-0.6,0.2-0.7,0.3c-0.1,0.5-0.4,0.5-0.8,0.5c-0.5,0-0.8,0.1-1.1,0.5c-0.2,0.2-0.5,0.4-0.9,0.4c-0.6,0.1-0.7,0.3-0.7,0.9
				c0.1,0.9-0.1,1.2-1.1,1.2C18.8,41.7,18.6,41.9,18.4,42z M11.3,41.6c0.1-0.1,0.2-0.2,0.3-0.3c-0.1-0.1-0.2-0.2-0.3-0.2
				c-0.1,0-0.2,0.1-0.4,0.2C11.1,41.4,11.2,41.4,11.3,41.6z M25,36.1c-0.1-0.1-0.2-0.2-0.3-0.2c0,0-0.1,0.1-0.1,0.1
				c0.1,0.1,0.1,0.2,0.2,0.2C24.9,36.3,24.9,36.2,25,36.1z M17.8,37.8C17.8,37.8,17.8,37.8,17.8,37.8c0.1,0,0.1,0,0.1,0
				C17.9,37.8,17.9,37.8,17.8,37.8C17.8,37.8,17.8,37.8,17.8,37.8z"/>
			<path class="st26" d="M0.3,13.5c0.1-0.2,0.2-0.3,0.2-0.5c0-0.6,0-1.2,0-1.8c0-0.2,0-0.8,0.5-0.2c0,0,0.2,0,0.2-0.1
				c0.1-0.1,0-0.2,0.1-0.4c0.1-0.2,0.1-0.3,0.2-0.5c0.1,0.1,0.1,0.3,0.2,0.4c0.1,0.3,0.3,0.4,0.7,0.2c0.2-0.1,0.3-0.2,0.4-0.3
				c0.1-0.1,0-0.2,0-0.3C2.8,10,2.7,9.9,2.6,9.7c0.2-0.1,0.3-0.1,0.5-0.2c0.1,0,0.1,0,0.2,0.1C4,10,4,10,4.1,9.3
				C4.2,8.9,4.6,8.6,5,8.7c0.3,0,0.7,0.1,1,0.1c0.1,0,0.2-0.1,0.3-0.1c-0.1,0-0.1-0.1-0.2-0.1C6,8.4,5.9,8.3,5.8,8.2
				C5.9,8.1,6.1,8,6.2,7.9C6.6,7.7,7,7.7,7.3,7.4C7.9,6.9,8.6,7.1,9.3,7C9.4,7,9.5,7,9.7,7C9.6,6.9,9.5,6.8,9.4,6.8
				C9.3,6.7,9.2,6.5,9.2,6.5c0.1-0.1,0.2-0.2,0.3-0.3c0.3,0,0.4-0.2,0.5-0.5c0.1-0.4,0.6-0.5,1-0.2c0.1,0.1,0.2,0.1,0.4,0.2
				c0.1-0.1,0.1-0.2,0.2-0.4c0.1-0.5,0.8-1.1,1.3-1.3c0.4-0.1,0.8-0.3,1.3-0.5c0.5-0.2,1-0.4,1.5-0.8c0.7-0.5,1.5-0.6,2.3-0.7
				c0.1,0,0.2-0.1,0.2-0.2C18,1.9,18,1.8,17.9,1.7c-0.4-0.2-0.4-0.4,0.1-0.6c0.5-0.2,0.9-0.5,1.4-0.7c0.1-0.1,0.3-0.1,0.5-0.1
				c0.5,0,0.9,0,1.4,0c0.2,0,0.3-0.2,0.4-0.3c1.3,0,2.7,0,4,0c0,0.5-0.1,0.8-0.6,1c-0.7,0.3-1.4,0.7-2,1c-0.4,0.2-0.7,0.5-1.1,0.7
				c-0.5,0.3-1,0.4-1.5,0.7c-0.6,0.3-1.2,0.6-1.8,0.9c-0.2,0.1-0.4,0.2-0.6,0.3C18,4.7,18,5,18,5c0.2,0.1,0.2,0.2,0,0.3
				c-0.1,0-0.3,0.1-0.4,0.2c-0.7,0.3-1.4,0.5-2,0.8c-0.2,0.1-0.4,0.3-0.7,0.5c0.2,0.1,0.3,0.3,0.5,0.4c0,0,0.1,0.1,0.2,0.1
				c-0.1,0.1-0.3,0.2-0.4,0.3l0,0c-0.3,0.1-0.6,0.3-0.9,0.4c0,0,0,0-0.1,0c-0.1,0-0.2,0.1-0.4,0.1c-0.3,0-0.7-0.1-0.8,0.4
				c-0.4,0-0.3-0.2-0.3-0.5c0-0.1,0-0.3-0.1-0.3c-0.1,0-0.3,0-0.4,0.1c-0.1,0.1-0.1,0.2-0.1,0.4c0,0.4-0.2,0.6-0.7,0.5
				c-0.1,0-0.3,0-0.4,0.1c-0.4,0.2-0.8,0.6-1.2,0.7C9.5,9.5,9.4,9.7,9.3,9.9c-0.1,0.5-0.4,0.7-0.9,0.5c-0.4-0.2-0.7,0-0.8,0.3
				c-0.2,0.5-0.5,0.6-1,0.5c-0.2,0-0.4,0.1-0.6,0.2c-0.1,0-0.2,0.1-0.2,0.2c-0.5,0.2-1,0.4-1.5,0.7c-0.3,0.1-0.5,0.4-0.8,0.5
				C3,13,2.5,13.1,2.3,13.6c0,0,0,0,0,0c-0.7,0-1,0.4-0.9,1c0,0.1-0.1,0.1-0.1,0.2c-0.1,0-0.2-0.1-0.2-0.1c-0.1-0.5-0.3-0.4-0.6-0.2
				C0.4,14.2,0.4,13.8,0.3,13.5z"/>
			<path class="st27" d="M40.3,0c0.5,0,0.9,0,1.4,0C41.9,0,42,0.1,42,0.3c0,1.8,0,3.6,0,5.5c-0.4,0-0.8-0.1-1,0.4
				c0,0.1-0.1,0.1-0.2,0.1c-0.7,0.3-1.5,0.6-2.2,1c-0.3,0.1-0.6,0.3-0.8,0.5c-0.4,0.3-1,0.4-1.1,1c0,0-0.1,0-0.1,0.1
				C36,9,35.4,9.2,34.8,9.4C34.2,9.6,33.6,9.8,33,10c-0.1,0-0.1,0.2-0.1,0.3c0,0.6-0.3,0.8-0.9,0.8c0,0,0,0,0,0
				c0.1-0.3,0.2-0.5,0.3-0.8c0.1-0.1,0.1-0.2,0.1-0.4c-0.1,0-0.3-0.1-0.4-0.1c-0.1,0-0.2,0.1-0.3,0.2c-0.1,0.2-0.1,0.4-0.2,0.6
				c-0.6-0.5-1.2-1-1.8-1.5c0-0.2,0-0.4,0.1-0.6c-0.1,0.1-0.3,0.2-0.4,0.3c0,0-0.1,0-0.2,0c-0.2-0.2-0.4-0.3-0.6-0.5l0,0l0,0
				c-0.1-0.1-0.2-0.2-0.3-0.2c-0.2-0.2-0.3-0.4-0.5-0.5c-0.1-0.1-0.2-0.3-0.3-0.5c0,0,0.1-0.2,0.2-0.2c0.6-0.2,1.3-0.3,1.9-0.4
				c0.4,0,0.6-0.3,0.6-0.6c0.1-0.8,0.1-0.8,1-0.9c0.2,0,0.6-0.1,0.6-0.2c0.1-0.6,0.6-0.6,1.1-0.6c0.4,0,0.7-0.1,0.7-0.6
				c0.1-0.5,0.3-0.6,0.7-0.4c0.7,0.2,1,0,1-0.8c0-0.4,0-0.7,0.5-0.7c0.7,0,1.5-0.1,2.2-0.2c0.1,0,0.4-0.1,0.4-0.1
				c0.1-0.6,0.7-0.6,1.1-0.7C40.1,0.8,40.3,0.5,40.3,0z M34.2,9c0,0.1,0,0.1-0.1,0.1c0,0,0.1,0.1,0.1,0c0,0,0.1-0.1,0.1-0.1
				C34.3,9.1,34.3,9.1,34.2,9z"/>
			<path class="st28" d="M31.7,42c-3.1,0-6.3,0-9.4,0c0.5-0.6,1.1-1,1.7-1.4c0.5-0.4,1.4-0.3,2.1-0.4c0.5,0,0.7-0.1,0.7-0.7
				c0.1-0.8,0.1-0.8,1-1c0.4-0.1,0.7-0.1,0.9-0.6c0.1-0.3,0.6-0.6,0.9-0.8c0.4-0.2,0.9-0.1,1.3-0.3c0.5-0.1,1.1-0.2,1.1-0.9
				c0-0.1,0.2-0.4,0.4-0.4c0.8-0.2,1.5-0.3,2.3-0.5c0.2,0,0.5-0.2,0.5-0.4c0.1-0.4,0.3-0.5,0.8-0.6c0.3,0,0.8-0.1,0.9-0.3
				c0.3-0.4,0.6-0.6,1-0.4c0.4,0.1,0.6,0.1,0.7-0.5c0.1-0.8,0.3-1,1.1-1.1c0.4-0.1,0.6-0.2,0.9-0.5c0.4-0.4,0.7-1.1,1.5-0.8
				c0,1.9,0,3.8,0,5.8c-0.3,0.1-0.6,0.1-0.9,0.2c-0.3,0.1-0.6,0.2-0.9,0.3c-0.4,0-0.8,0-1.1,0c-0.5,0-0.6,0.2-0.6,0.6
				c0,0.2-0.1,0.5-0.2,0.6c-0.6,0.2-1.1,0.6-1.8,0.5c-0.2,0-0.4,0-0.6,0c-0.5,0-0.7,0.2-0.8,0.7c0,0.1,0,0.4-0.1,0.4
				c-0.3,0.2-0.6,0.4-1,0.5c-0.4,0.1-0.8,0.1-1.2,0.1c-0.8-0.1-1.1,0.2-1.1,0.9C31.7,41.4,31.7,41.7,31.7,42z"/>
			<path class="st29" d="M0,35.3c0-2.2,0-4.4,0-6.6c0.4,0,0.3,0.3,0.3,0.5c0,0.9,0,1.7,0,2.6c0,0.1,0.1,0.3,0.1,0.4
				c0.1-0.1,0.2-0.2,0.2-0.4c0-0.1,0-0.2,0.1-0.3C0.8,31.4,1,31.3,1,31.3c0.4,0.3,0.6-0.2,0.8-0.3c0.7-0.2,1.4-0.6,2-1
				c0.4-0.2,0.8-0.5,1.2-0.8c0.4-0.2,0.8-0.6,1.2-0.7c1-0.1,1.8-0.5,2.4-1.4c0.1-0.2,0.4-0.3,0.6-0.3c0.3-0.1,0.7-0.2,1-0.3
				c0.3-0.1,0.7-0.2,1-0.3c0.2,0,0.5,0,0.5,0.1c0.6,0.7,1.4,0.6,2.2,0.5c1-0.1,2-0.2,3,0c0,0.3,0,0.5,0,0.8c0,0.6-0.1,0.7-0.8,0.8
				c-0.4,0-0.8,0.1-1,0.6c-0.1,0.4-0.4,0.5-0.8,0.5c-0.3,0-0.8,0.1-0.8,0.3c-0.2,0.7-0.8,0.6-1.3,0.7l0,0c-0.1,0-0.1,0-0.2,0
				c0,0,0,0.1,0,0.1c-0.5-0.1-0.9-0.3-1.4-0.4c-0.4-0.1-0.8-0.2-1.3-0.4c0,0-0.1-0.1-0.1-0.1c0,0-0.1,0-0.1-0.1c0,0,0,0,0,0.1
				c0.1,0,0.1,0,0.2,0.1c0,0,0.1,0,0.1,0c0,0.1,0.1,0.2,0.1,0.3c0,0.3,0,0.5,0,0.8c-0.3,0.3-0.6,0.7-0.9,0.9
				c-1.3,0.6-2.6,1.2-3.9,1.8c-0.4,0.2-0.5,0.4-0.2,0.8c0,0,0.1,0.1,0.1,0.1c-0.1,0-0.2,0.1-0.2,0.1c-0.3,0-0.5-0.1-0.8-0.1
				c-0.3,0-0.7,0-0.7,0.1c-0.3,0.6-1,0.5-1.4,0.7c-0.5,0.3-0.6,0.5-0.7,1c-0.1,0.3,0.1,0.7-0.4,0.8c0-0.5,0-0.9,0-1.4
				C0.3,35.6,0.1,35.4,0,35.3z"/>
			<path class="st30" d="M42,30.6c-0.8-0.2-1.1,0.4-1.5,0.8c-0.3,0.3-0.5,0.4-0.9,0.5c-0.8,0.1-1,0.3-1.1,1.1
				c-0.1,0.5-0.3,0.6-0.7,0.5c-0.5-0.1-0.8,0-1,0.4c-0.1,0.2-0.6,0.3-0.9,0.3c-0.4,0-0.6,0.1-0.8,0.6c0,0.2-0.3,0.3-0.5,0.4
				c-0.8,0.2-1.5,0.3-2.3,0.5c-0.2,0-0.4,0.2-0.4,0.4c0,0.8-0.6,0.8-1.1,0.9c-0.4,0.1-0.9,0.1-1.3,0.3c-0.4,0.2-0.8,0.4-0.9,0.8
				c-0.2,0.5-0.5,0.6-0.9,0.6c-0.9,0.2-0.9,0.2-1,1c0,0.5-0.3,0.6-0.7,0.7c-0.7,0.1-1.6,0-2.1,0.4c-0.6,0.4-1.2,0.8-1.7,1.4
				c-1.3,0-2.6,0-3.9,0c0.2-0.1,0.5-0.3,0.7-0.3c0.9-0.1,1.1-0.3,1.1-1.2c0-0.6,0.1-0.8,0.7-0.9c0.3-0.1,0.7-0.2,0.9-0.4
				c0.3-0.4,0.7-0.5,1.1-0.5c0.4,0,0.7,0,0.8-0.5c0-0.2,0.4-0.3,0.7-0.3c0.4-0.1,0.9,0.1,1.1-0.6c0-0.2,0.6-0.3,0.9-0.3
				c0.3,0,0.6,0,0.7-0.5c0-0.1,0.4-0.3,0.6-0.3c0.5,0,0.9,0,1.1-0.5c0.1-0.2,0.5-0.3,0.7-0.4c0.4-0.1,0.9,0.1,1-0.6
				c0-0.1,0.4-0.2,0.5-0.2c0.4,0,0.7-0.1,1.1-0.4c0.3-0.3,0.8-0.3,1.2-0.5c0.2-0.1,0.5-0.2,0.5-0.4c0.2-0.5,0.4-0.4,0.7-0.2
				c0.5,0.4,0.7,0.3,0.8-0.3c0.1-0.5,0.2-0.8,0.8-0.8c0.2,0,0.3-0.1,0.5-0.1c0.5,0,0.6-0.4,0.4-0.7c-0.3-0.5,0.1-0.6,0.4-0.8
				c0.3-0.1,0.6-0.2,0.9-0.3c0.1,0,0.3-0.1,0.4-0.2c0.2-0.5,0.6-0.5,1.1-0.5c0.3,0,0.5,0,0.7-0.4c0-0.2,0.4-0.3,0.6-0.4
				c0.3-0.1,0.7,0,1,0C42,29.2,42,29.9,42,30.6z"/>
			<path class="st31" d="M0,35.3c0.1,0.1,0.3,0.3,0.3,0.4c0,0.4,0,0.9,0,1.4c0,1.4,0,2.9,0,4.3c0,0.1,0.1,0.2,0.1,0.4
				c0.1-0.1,0.2-0.2,0.2-0.3c0.1-0.4,0-0.8,0.1-1.2c0.1-0.3,0-0.9,0.7-0.5c0.1,0,0.2,0,0.2,0c0.6-0.3,1.2-0.6,1.7-0.9
				c0.4-0.2,0.9-0.4,1.3-0.6c0.4-0.2,0.8-0.3,1.2-0.4c0.1,0,0.2-0.2,0.3-0.3c0.4-0.3,0.7-0.7,1.1-1c0.3-0.2,0.8-0.2,1-0.4
				c0.4-0.5,0.9-0.6,1.5-0.7c0.1,0,0.3-0.1,0.3-0.1c0.3-0.5,0.8-0.6,1.3-0.7c0.1,0,0.3-0.1,0.3-0.1c0.2-0.4,0.9-0.5,0.8-1.1
				c0,0,0.1-0.1,0.1-0.1c0.6,0.3,1.2,0.7,1.7,1c0,0.1,0,0.2,0.1,0.3c0-0.1,0.1-0.1,0.1-0.2c0.1,0,0.1,0.1,0.2,0.1
				c0.1,0.1,0.1,0.3,0.2,0.4c0.3,0.5,0.1,1-0.4,1.2c-0.1,0-0.3,0.1-0.5,0.1c-0.4,0-0.7,0.2-0.8,0.6c-0.2,0.5-0.9,0.7-1,1.3
				c0,0-0.1,0-0.1,0c-0.5,0.1-1,0.2-1.4,0.4c-0.3,0.1-0.8,0-0.9,0.4c-0.1,0.6-0.7,0.7-1.1,0.9C8.3,40,7.7,40.2,7.1,40
				c-0.3-0.1-0.6,0.1-0.6,0.5c0,0.7-0.3,1-0.9,1c-0.5,0.1-1,0-1.5,0.1c-0.3,0-0.5,0.2-0.8,0.3c-1,0-2,0-2.9,0C0.1,42,0,41.9,0,41.7
				C0,39.5,0,37.4,0,35.3z M7.5,37.3C7.5,37.3,7.5,37.3,7.5,37.3c0.2,0,0.4-0.1,0.5-0.1c0,0,0-0.1,0-0.1c-0.2,0-0.4,0-0.6,0
				c-0.1,0-0.2,0-0.3,0.1c-0.1,0-0.1,0.1-0.2,0.1c0.1,0,0.1,0.1,0.2,0.1C7.3,37.3,7.4,37.3,7.5,37.3z M10.6,35.4
				c-0.1,0-0.1,0.1-0.2,0.1c0.1,0,0.1,0.1,0.2,0.1c0.1,0,0.1,0,0.2-0.1C10.7,35.5,10.6,35.4,10.6,35.4z"/>
			<path class="st32" d="M40.3,0c0,0.5-0.2,0.8-0.8,0.8c-0.4,0-1,0-1.1,0.7c0,0.1-0.3,0.1-0.4,0.1c-0.7,0.1-1.5,0.2-2.2,0.2
				c-0.5,0-0.6,0.3-0.5,0.7c0.1,0.7-0.3,1-1,0.8c-0.5-0.2-0.7-0.1-0.7,0.4c-0.1,0.5-0.4,0.6-0.7,0.6c-0.5,0-0.9-0.1-1.1,0.6
				c0,0.1-0.4,0.2-0.6,0.2c-0.9,0.1-0.9,0-1,0.9c-0.1,0.3-0.2,0.6-0.6,0.6C29,6.6,28.3,6.8,27.7,7c-0.1,0-0.3,0.2-0.2,0.2
				c0.1,0.2,0.2,0.3,0.3,0.5c0.2,0.2,0.3,0.4,0.5,0.5c-0.5-0.2-0.9-0.4-1.4-0.6l0,0c-0.7-0.3-1.5-0.6-2.2-0.8c-0.1,0-0.1,0-0.2-0.1
				c0,0-0.1,0-0.1,0c-0.1-0.1-0.2-0.2-0.3-0.2c-0.3-0.1-0.6-0.1-0.9-0.2c-0.1-0.1-0.2-0.3-0.3-0.4c0.3-0.2,0.6-0.4,0.9-0.5
				c0.4-0.2,1-0.2,1.3-0.5c0.3-0.5,0.8-0.6,1.2-0.7C26.6,4,27,3.8,27,3.6C27.1,3,27.4,2.9,27.9,3c0.5,0,0.8-0.1,0.9-0.7
				c0-0.2,0.4-0.3,0.6-0.4c0.3-0.1,0.6-0.2,0.9-0.3c0.3-0.1,0.6-0.3,0.9-0.4c0.8-0.2,1-0.4,1.1-1.2C34.9,0,37.6,0,40.3,0z"/>
			<path class="st33" d="M16.8,26.9c-1-0.3-2-0.2-3,0c-0.7,0.1-1.6,0.2-2.2-0.5c-0.1-0.1-0.4-0.1-0.5-0.1c-0.3,0.1-0.7,0.2-1,0.3
				c-0.3,0.1-0.7,0.2-1,0.3c-0.2,0.1-0.5,0.2-0.6,0.3c-0.6,0.9-1.4,1.3-2.4,1.4c-0.4,0-0.8,0.4-1.2,0.7c-0.4,0.2-0.8,0.5-1.2,0.8
				c-0.6,0.4-1.3,0.8-2,1c-0.3,0.1-0.4,0.6-0.8,0.3c0,0-0.2,0.1-0.3,0.2c-0.1,0.1-0.1,0.2-0.1,0.3c-0.1,0.1-0.2,0.2-0.2,0.4
				c0-0.1-0.1-0.3-0.1-0.4c0-0.9,0-1.7,0-2.6c0-0.2,0-0.5-0.3-0.5c0-2.3,0-4.7,0-7c0.1,0,0.2,0,0.3,0c0,0,0,0.1,0,0.1
				c0,0.9,0,1.9,0,2.8c0,1.2,0,2.3,0,3.5c0,0.1,0.1,0.3,0.2,0.4c0.1-0.1,0.2-0.3,0.2-0.4c0.1-0.3,0-0.5,0.1-0.8
				c0.1-0.4,0.5-0.5,0.7-0.2c0.4,0.5,0.8,0.3,1.3,0.3c0.1,0,0.2-0.2,0.3-0.2C3,27,3,26.8,2.8,26.8c-0.2,0-0.4,0-0.6,0
				c-0.1,0-0.2-0.1-0.3-0.2c0.1-0.1,0.2-0.1,0.3-0.2c0.4-0.2,1-0.3,1.3-0.6c0.4-0.4,0.8-0.5,1.3-0.4c0.2,0,0.3,0.2,0.5,0.2
				c0.2,0,0.3-0.1,0.5-0.2c-0.1-0.1-0.2-0.2-0.3-0.3C5.4,25,5.4,25,5.3,24.9c0,0,0.1-0.1,0.1-0.1c1,0,1.4-1.3,2.5-1.2
				c0,0,0-0.1,0.1-0.1c0.1,0,0.2,0,0.3,0l0,0l0,0c0,0,0.1,0.1,0.1,0.1c0,0,0.1,0.1,0.1,0.1l0,0l0,0C8.5,24,8.7,24.1,9,24
				c0,0,0,0,0,0c0,0.1,0,0.1-0.1,0.2c-0.1,0.2-0.1,0.3-0.2,0.5c0.2,0,0.4-0.1,0.5-0.1c0.3,0.2,0.6,0.5,1,0.3c0.1,0,0.1,0.1,0.2,0.1
				c0.2,0.1,0.4,0.2,0.6,0.3l0,0l0,0c0.2,0.1,0.4,0.2,0.7,0.3c0.9,0.3,1.8,0.6,2.8,0.7c2.1,0.4,4.2,0.1,6.2-0.9
				c-0.3,0.2-0.5,0.4-0.8,0.5c-0.4,0.2-0.7,0.4-1.1,0.5C18.2,26.7,17.5,26.8,16.8,26.9z M13.4,26.6c0.1-0.1,0.2-0.1,0.3-0.2
				c-0.1-0.1-0.2-0.1-0.4-0.2c-0.1,0-0.2,0.1-0.2,0.1C13.2,26.5,13.3,26.6,13.4,26.6z"/>
			<path class="st34" d="M32.2,0c-0.1,0.8-0.3,1-1.1,1.2c-0.3,0.1-0.6,0.3-0.9,0.4c-0.3,0.1-0.6,0.2-0.9,0.3
				c-0.2,0.1-0.5,0.2-0.6,0.4C28.7,2.9,28.4,3,27.9,3c-0.5,0-0.8,0.1-0.9,0.6c0,0.2-0.4,0.4-0.6,0.5c-0.5,0.1-0.9,0.1-1.2,0.7
				c-0.2,0.3-0.8,0.3-1.3,0.5c-0.3,0.1-0.6,0.4-0.9,0.5c0.1,0.1,0.2,0.3,0.3,0.4c0.3,0.1,0.6,0.1,0.9,0.2c0.1,0,0.2,0.1,0.3,0.2
				c-0.2,0-0.4,0-0.6-0.1c-0.1,0-0.1,0-0.2,0c-0.4-0.1-0.8-0.2-1.3-0.2c-0.1,0-0.3,0-0.4,0c-0.1,0-0.3,0-0.4,0
				c-0.3-0.3-0.6-0.3-0.8,0c-0.1,0-0.3,0-0.4,0c-0.2,0-0.4,0-0.6,0c-0.1,0-0.1,0-0.2,0c-0.1,0-0.2,0-0.2,0c-0.1,0-0.3,0-0.4,0
				c-0.2-0.2-0.8-0.1-1,0.2c0,0-0.1,0-0.1,0c-0.1,0-0.1,0-0.2,0.1c-0.1,0-0.1,0-0.2,0.1c-0.8-0.5-0.9-0.5-1,0.3l0,0
				c0,0-0.1,0-0.1,0.1c0,0-0.1,0-0.1,0c-0.1,0-0.1,0.1-0.2,0.1c0,0-0.1,0-0.1,0c-0.1,0-0.1-0.1-0.2-0.1c-0.2-0.1-0.3-0.3-0.5-0.4
				c0.2-0.2,0.4-0.4,0.7-0.5c0.7-0.3,1.3-0.5,2-0.8c0.1-0.1,0.2-0.1,0.4-0.2c0.3-0.1,0.3-0.1,0-0.3c-0.1,0,0-0.3,0-0.4
				c0.2-0.1,0.4-0.2,0.6-0.3c0.6-0.3,1.2-0.6,1.8-0.9C21,3.2,21.5,3,22,2.8c0.4-0.2,0.7-0.5,1.1-0.7c0.7-0.4,1.3-0.7,2-1
				c0.4-0.2,0.6-0.6,0.6-1C27.8,0,30,0,32.2,0z M18.8,5.4c-0.1-0.1-0.2-0.1-0.2-0.1c0,0-0.1,0.1-0.1,0.1c0,0.1,0.1,0.1,0.1,0.2
				C18.7,5.6,18.8,5.5,18.8,5.4z"/>
			<path class="st35" d="M31.7,42c0-0.3,0-0.6,0-0.8c0-0.8,0.3-1,1.1-0.9c0.4,0,0.8,0,1.2-0.1c0.4-0.1,0.7-0.3,1-0.5
				c0.1-0.1,0.1-0.3,0.1-0.4c0-0.5,0.3-0.7,0.8-0.7c0.2,0,0.4,0,0.6,0c0.7,0.2,1.2-0.2,1.8-0.5c0.1-0.1,0.2-0.4,0.2-0.6
				c0-0.4,0.1-0.6,0.6-0.6c0.4,0,0.8,0,1.1,0c0.3,0,0.6-0.2,0.9-0.3c0.3-0.1,0.6-0.1,0.9-0.2c0,1.8,0,3.6,0,5.4
				c0,0.3-0.1,0.3-0.3,0.3C38.4,42,35,42,31.7,42z"/>
			<path class="st36" d="M42,26.1c-0.6,0.3-1.2,0.6-1.9,0.9c-0.2,0.1-0.3,0.1-0.5,0.1c-0.4,0.2-0.9,0.3-1.2,0.8
				c-0.1,0.3-0.7,0.3-1,0.4c-0.2,0.1-0.5,0.2-0.6,0.4c-0.2,0.5-0.6,0.6-1,0.7c-0.3,0.1-0.5,0.3-0.7,0.4c-0.4,0.1-0.8,0.3-1.2,0.3
				c-0.4,0-0.5,0-0.6,0.4c0,0.2-0.2,0.4-0.4,0.5c-0.5,0.4-1.1,0.8-1.8,0.6c0.2-0.3,0.5-0.5,0.7-0.8c0,0,0,0,0,0
				c0.1-0.1,0.1-0.2,0.2-0.2c0.4-0.6,0.9-1.2,1.3-1.8c0.3-0.6,0.7-1.2,1-1.8c0.3,0.3,0.5,0.1,0.6-0.2c0.2-0.4-0.1-0.4-0.3-0.5
				c0-0.1,0-0.1,0-0.2c0.1-0.4,0.3-0.8,0.4-1.2c0,0,0-0.1,0-0.1l0,0c0.1,0.1,0.3,0.1,0.4,0.3c0.2,0.3,0.4,0.2,0.5-0.1
				c0.2-0.4,0.3-0.4,0.5,0c0.2,0.3,0.3,0.2,0.4-0.1c0.1-0.2,0.1-0.4,0.1-0.6c0-0.1,0.1-0.3,0.2-0.4c0.6-0.3,1.2-0.5,1.8-0.9
				c0.3-0.2,0.9-0.2,1.1-0.5c0.5-0.6,1-0.7,1.7-0.7C42,23.4,42,24.7,42,26.1z"/>
			<path class="st36" d="M3.3,42c0.3-0.1,0.5-0.3,0.8-0.3c0.5-0.1,1-0.1,1.5-0.1c0.7-0.1,0.9-0.4,0.9-1c0-0.4,0.3-0.6,0.6-0.5
				c0.6,0.2,1.2,0,1.7-0.3c0.4-0.2,1-0.3,1.1-0.9c0.1-0.5,0.6-0.3,0.9-0.4c0.5-0.1,1-0.2,1.4-0.4c0,0,0.1,0,0.1,0
				c0-0.7,0.8-0.8,1-1.3c0.1-0.4,0.3-0.6,0.8-0.6c0.2,0,0.3-0.1,0.5-0.1c0.6-0.2,0.7-0.7,0.4-1.2c-0.1-0.1-0.1-0.3-0.2-0.4
				c1.7,0.8,3.5,1.2,5.3,1.3c0.1,0.2,0.2,0.3,0.3,0.5c0,0.1,0.1,0.1,0.1,0.1c-0.1,0-0.2,0.1-0.2,0.1c-0.2-0.1-0.4-0.2-0.6-0.2
				c-0.2,0-0.4,0.1-0.5,0.1c0.1,0.1,0.1,0.3,0.2,0.4c0.1,0.1,0.2,0.1,0.2,0.2c-0.1,0-0.2,0.1-0.3,0.1c-0.5,0.1-1,0.2-1.6,0.1
				c-0.6-0.2-0.9,0.3-1,1c0,0.4-0.2,0.6-0.6,0.6c-0.5,0-0.9,0.1-1.2,0.6c-0.2,0.2-0.6,0.3-1,0.4c-0.1,0-0.3,0-0.3,0.1
				c-0.5,1-1.5,0.7-2.4,0.9c-0.3,0.1-0.6,0.1-1,0.2c-0.1,0-0.2,0.2-0.2,0.3c-0.1,0.5-0.4,0.6-0.8,0.6c-0.2,0-0.4,0.2-0.7,0.3
				c-0.1,0-0.1,0-0.2,0c-0.3-0.3-0.6-0.3-0.8,0C6.2,42,4.7,42,3.3,42z"/>
			<path class="st33" d="M31.9,11.1c0.6,0,0.9-0.2,0.9-0.8c0-0.1,0.1-0.2,0.1-0.3c0.6-0.2,1.2-0.5,1.9-0.7C35.4,9.2,36,9,36.5,8.8
				c0,0,0.1,0,0.1-0.1c0.1-0.6,0.7-0.7,1.1-1c0.2-0.2,0.6-0.3,0.8-0.5c0.7-0.3,1.5-0.6,2.2-1c0.1,0,0.2-0.1,0.2-0.1
				c0.2-0.4,0.6-0.4,1-0.4c0,1.4,0,2.9,0,4.3c-0.7,0-1.5,0.1-2.2,0.1c-0.8,0.1-1,0.3-1.1,1.1c-0.1,0.4-0.3,0.6-0.7,0.4
				c-0.4-0.2-0.8,0-0.9,0.3c-0.2,0.7-0.6,0.6-1.1,0.6c-0.3,0-0.6,0.1-0.7,0.4c0,0.1-0.2,0.2-0.4,0.3c-0.2,0.1-0.3,0.1-0.5,0.2
				c0.1,0.1,0.1,0.3,0.2,0.4c0,0.1,0.1,0.1,0.1,0.2c0,0.1,0,0.3,0,0.4c-0.1,0-0.2-0.1-0.3-0.1c-0.2-0.1-0.3-0.2-0.5-0.3
				C33.3,13,32.6,12.1,31.9,11.1z M33.5,10.6C33.5,10.5,33.5,10.5,33.5,10.6C33.5,10.5,33.5,10.5,33.5,10.6
				C33.5,10.5,33.5,10.5,33.5,10.6C33.5,10.5,33.5,10.6,33.5,10.6z"/>
			<path class="st29" d="M34,14c0.2,0.1,0.3,0.2,0.5,0.3c0.1,0.1,0.2,0.1,0.3,0.1c0-0.1,0-0.3,0-0.4c0-0.1-0.1-0.1-0.1-0.2
				c-0.1-0.1-0.2-0.3-0.2-0.4c0.2-0.1,0.3-0.1,0.5-0.2c0.1-0.1,0.3-0.1,0.4-0.3c0.1-0.4,0.3-0.5,0.7-0.4c0.5,0,1,0.1,1.1-0.6
				c0.1-0.3,0.4-0.5,0.9-0.3c0.4,0.2,0.6,0,0.7-0.4c0.1-0.8,0.4-1,1.1-1.1c0.7-0.1,1.5-0.1,2.2-0.1c0,1.5,0,2.9,0,4.4
				c-0.4,0-0.7,0-1.1,0c-0.3,0-0.5,0-0.6,0.3c-0.1,0.2-0.4,0.3-0.6,0.2c-0.8-0.1-0.8-0.2-1,0.6c-0.1,0.3-0.3,0.5-0.6,0.5
				c-0.2,0-0.4,0-0.5,0c-0.4,0-0.5,0.2-0.5,0.5c0,0.2,0,0.4,0,0.6c0,0.1-0.1,0.2-0.2,0.2c0-0.1-0.1-0.2-0.1-0.2c0-0.1,0-0.2,0-0.3
				c0-0.1-0.1-0.2-0.2-0.3c-0.1,0-0.3,0.1-0.3,0.1c-0.2,0.5-0.4,0.3-0.7,0.1c-0.1-0.1-0.2-0.1-0.3-0.2c-0.1-0.2-0.2-0.5-0.3-0.7
				c0-0.1,0-0.1-0.1-0.2c0,0,0,0,0-0.1c0,0,0-0.1,0-0.1c0-0.1-0.1-0.1-0.1-0.2c0-0.1,0-0.1-0.1-0.2c-0.1-0.3-0.2-0.5-0.4-0.8
				c0-0.1-0.1-0.1-0.1-0.2l0,0c0-0.1-0.1-0.2-0.1-0.3C34,14.1,34,14,34,14z"/>
			<path class="st37" d="M35.1,16.8c0.1,0.1,0.2,0.1,0.3,0.2c0.3,0.3,0.5,0.4,0.7-0.1c0-0.1,0.2-0.2,0.3-0.1c0.1,0,0.2,0.2,0.2,0.3
				c0,0.1,0,0.2,0,0.3c0,0.1,0.1,0.2,0.1,0.2c0.1-0.1,0.1-0.2,0.2-0.2c0-0.2,0-0.4,0-0.6c0-0.4,0.1-0.6,0.5-0.5c0.2,0,0.3,0,0.5,0
				c0.3,0,0.5-0.2,0.6-0.5c0.2-0.8,0.2-0.7,1-0.6c0.2,0,0.6-0.1,0.6-0.2c0.2-0.3,0.4-0.3,0.6-0.3c0.4,0,0.7,0,1.1,0c0,1.3,0,2.7,0,4
				c-0.3,0.2-0.7,0.4-1,0.4c-0.4,0.1-0.8,0.1-0.9,0.6c0,0.1-0.2,0.1-0.3,0.2c-0.4,0.2-1.1,0.1-1.3,0.8c0,0.1-0.2,0.1-0.3,0.2
				c-0.5,0.2-1,0.3-1.5,0.5c-0.1,0-0.1,0.1-0.2,0.2c-0.1,0.1-0.2,0.2-0.3,0.3c-0.1-0.1-0.1-0.3-0.2-0.4c-0.1-0.2,0.1-0.7-0.4-0.8
				c0-0.1,0-0.3,0-0.4c0,0,0-0.1,0-0.1l0,0c0,0,0.1-0.1,0.1-0.1c0,0-0.1-0.1-0.1-0.1C35.5,18.8,35.3,17.8,35.1,16.8z"/>
			<path class="st32" d="M0.3,21.6c-0.1,0-0.2,0-0.3,0c0-2.7,0-5.5,0-8.2c0.1,0,0.2,0,0.3,0c0,0,0,0,0,0c0,0.3,0.1,0.7,0.1,1
				c0,1.2-0.1,2.5-0.1,3.7c0,0.2,0,0.3,0.1,0.5c0-0.2,0.1-0.3,0.1-0.5c0-0.2,0.1-0.3,0.1-0.5c0-0.1,0.2-0.1,0.2-0.1
				c0.5,0.5,0.6-0.1,0.7-0.4c0.3-0.7,0.3-0.7,1.1-0.6c0.3,0,0.6,0.1,0.6-0.3c0.1-0.7,0.5-0.8,1.1-0.8c0.3,0,0.6,0,0.7-0.4
				c0-0.2,0.4-0.3,0.6-0.3C5.8,14.9,6,15,6.1,15c0.4,0.1,0.6-0.1,0.6-0.5c0-0.2,0-0.4,0-0.6c0-0.1,0.1-0.1,0.1-0.2
				c0,0,0.1,0.1,0.1,0.1c0.2,0.2,0.3,0.5,0.5,0.7c0,0.2,0,0.4,0,0.6C7,15.5,6.8,16,6.9,16.6c0,0.1,0,0.1-0.1,0.2
				c-0.3,0.4-0.6,0.9-0.4,1.5c0,0.1,0,0.2,0,0.3c-0.1,0.1-0.2,0.1-0.3,0.2c-0.2-0.1-0.4-0.3-0.6-0.4c-0.1,0.2-0.1,0.4-0.1,0.6
				c0,0.2,0,0.4,0,0.6c0,0.1-0.1,0.2-0.1,0.4c-0.1-0.1-0.2-0.2-0.3-0.2c-0.2-0.1-0.4-0.4-0.5-0.3c-0.5,0.2-0.9,0.4-1.3,0.6
				c-0.1,0.1-0.3,0.1-0.4,0.1c-1.1,0.1-1.2,0.2-1.5,1.2c0,0.1-0.1,0.2-0.2,0.3C1.1,21.6,1,21.5,1,21.4c-0.1-0.1-0.2-0.3-0.3-0.4
				c-0.1,0.1-0.1,0.3-0.2,0.4C0.4,21.5,0.4,21.6,0.3,21.6z"/>
			<path class="st38" d="M35.7,20.5c0.5,0.1,0.2,0.5,0.4,0.8c0.1,0.1,0.1,0.3,0.2,0.4c0.1-0.1,0.2-0.2,0.3-0.3
				c0.1-0.1,0.1-0.2,0.2-0.2c0.5-0.2,1-0.3,1.5-0.5c0.1,0,0.2-0.1,0.3-0.2c0.2-0.6,0.8-0.6,1.3-0.8c0.1-0.1,0.3-0.1,0.3-0.2
				c0.1-0.5,0.5-0.5,0.9-0.6c0.4-0.1,0.7-0.3,1-0.4c0,1.2,0,2.3,0,3.5c-0.7,0-1.2,0-1.7,0.7c-0.2,0.3-0.8,0.2-1.1,0.5
				c-0.5,0.4-1.2,0.6-1.8,0.9c-0.1,0.1-0.2,0.2-0.2,0.4c-0.1,0.2-0.1,0.4-0.1,0.6c-0.1,0.3-0.2,0.4-0.4,0.1c-0.2-0.4-0.4-0.4-0.5,0
				c-0.1,0.3-0.3,0.4-0.5,0.1c-0.1-0.1-0.2-0.2-0.4-0.3c0.1-0.2,0.1-0.5,0.2-0.7c0.1,0,0.2-0.1,0.2-0.1c-0.1-0.1-0.1-0.1-0.2-0.2
				c0.1-0.8,0.1-1.6,0.2-2.4C35.7,21.1,35.7,20.8,35.7,20.5z"/>
			<path class="st34" d="M0.3,13.5c-0.1,0-0.2,0-0.3,0C0,9.1,0,4.7,0,0.4C0,0.2,0-0.1,0.3,0c0,3.4,0,6.7,0,10.1c0,0.3,0,0.7,0,1
				c0,0.2,0,0.4,0,0.5c0,0.3,0,0.6,0,0.9C0.3,12.9,0.3,13.2,0.3,13.5z"/>
			<path class="st25" d="M7.7,42c0.3-0.3,0.6-0.3,0.8,0C8.2,42,7.9,42,7.7,42z"/>
			<path class="st32" d="M0.3,11.1c0-0.3,0-0.7,0-1C0.3,10.4,0.3,10.8,0.3,11.1z"/>
			<path class="st32" d="M0.3,12.6c0-0.3,0-0.6,0-0.9C0.3,12,0.3,12.3,0.3,12.6z"/>
			<path class="st39" d="M25.8,34.9c-0.1,0-0.2,0.1-0.3,0.1c0-0.1-0.1-0.2-0.1-0.3c0-0.1,0-0.2-0.1-0.2c-0.7-0.2-1.4-0.5-2-0.9
				c-0.8-0.5-1.7-0.9-2.4-1.5c-0.4-0.3-0.6-0.7-0.9-1c1.2-0.4,2.4-0.9,3.7-1.3c0.1,0.1,0.3,0.2,0.4,0.2c0.4-0.1,0.6,0.1,0.8,0.4
				c0,0.1,0.1,0.1,0.2,0.2c0.8,0.4,1.5,0.9,2.3,1.3c0.4,0.2,0.8,0.5,1.2,0.7c0.4,0.1,0.7,0.3,0.8,0.7c-0.1,0.1-0.3,0.2-0.4,0.4
				c-0.2,0.1-0.3,0.2-0.5,0.3c-0.3,0.2-0.6,0.3-0.9,0.5c-0.4,0.2-0.9,0.3-1.3,0.5C26,34.8,25.9,34.9,25.8,34.9z"/>
			<path class="st40" d="M20.2,35.7c-1.8-0.2-3.6-0.6-5.3-1.3c-0.1,0-0.1-0.1-0.2-0.1c-0.1,0-0.1-0.1-0.2-0.1
				c-0.6-0.3-1.2-0.7-1.7-1c-0.7-0.6-1.5-1.2-2.2-1.8l0,0c-0.1-0.1-0.1-0.2-0.2-0.3c-0.3-0.3-0.5-0.6-0.8-0.9c0-0.1-0.1-0.2-0.1-0.3
				c0,0,0,0,0,0c0.4,0.1,0.8,0.3,1.3,0.4c0.5,0.1,0.9,0.3,1.4,0.4c0.1,0,0.1,0,0.2,0.1c1,0.2,2,0.4,2.9,0.6c0.3,0.4,0.7,0.5,1,0.9
				c0.3,0.4,1,0.3,1.2,0.9c0,0,0,0,0,0c0.6,0.3,1.3,0.6,1.9,1c0.7,0.3,1.3,0.7,2,1.1c0.3,0.2,0.6,0.3,0.9,0.5c0,0-0.1,0-0.1,0
				c-0.1,0-0.1,0-0.2,0c-0.2,0-0.3,0-0.5,0c-0.2,0-0.4,0-0.5,0C20.6,35.7,20.4,35.7,20.2,35.7z"/>
			<path class="st41" d="M22.2,35.7c-0.3-0.2-0.6-0.3-0.9-0.5c-0.6-0.4-1.3-0.7-2-1.1c-0.6-0.3-1.3-0.6-1.9-1c0,0,0,0,0,0
				c-0.2-0.6-1-0.5-1.2-0.9c-0.3-0.4-0.7-0.6-1-0.9c0.4,0,0.8,0,1.1,0.1c0.4,0.3,0.7,0.2,1.1,0c0.7-0.1,1.4-0.1,2.1-0.2
				c0.1,0.1,0.1,0.3,0.2,0.4c0.1,0,0.1-0.1,0.2-0.1c-0.1-0.1-0.2-0.2-0.3-0.3c0.2,0,0.3-0.1,0.5-0.1c0.3,0.3,0.6,0.8,0.9,1
				c0.8,0.5,1.6,0.9,2.4,1.5c0.6,0.4,1.3,0.7,2,0.9c0,0,0.1,0.2,0.1,0.2c0,0.1,0.1,0.2,0.1,0.3C24.4,35.2,23.3,35.4,22.2,35.7z"/>
			<path class="st42" d="M29.3,33.1c-0.1-0.4-0.4-0.6-0.8-0.7c-0.4-0.1-0.8-0.4-1.2-0.7c-0.8-0.4-1.5-0.9-2.3-1.3
				c-0.1,0-0.1-0.1-0.2-0.2c-0.2-0.3-0.4-0.5-0.8-0.4c-0.1,0-0.3-0.1-0.4-0.2c1-0.7,1.9-1.5,2.9-2.2c0.4,0.1,0.1,0.6,0.6,0.8
				c0.5,0.2,1,0.6,1.5,0.9c1,0.7,2,1.5,3.2,1.7c-0.2,0.3-0.5,0.5-0.7,0.8c-0.1,0.1-0.1,0.1-0.2,0.2c-0.2,0.1-0.3,0.3-0.5,0.4l0,0
				c-0.3,0.3-0.7,0.5-1,0.8C29.4,33.1,29.4,33.1,29.3,33.1C29.4,33.1,29.3,33.1,29.3,33.1z"/>
			<path class="st38" d="M29.5,33.1c0.3-0.3,0.7-0.5,1-0.8c0,0.2,0,0.3,0.1,0.5c-0.3,0.1-0.5,0.3-0.8,0.4
				C29.7,33.2,29.6,33.1,29.5,33.1z"/>
			<path class="st36" d="M11.3,41.6c-0.2-0.1-0.3-0.2-0.4-0.3c0.1-0.1,0.2-0.2,0.4-0.2c0.1,0,0.2,0.1,0.3,0.2
				C11.5,41.3,11.5,41.4,11.3,41.6z"/>
			<path class="st37" d="M27.4,34.3c0.3-0.2,0.6-0.3,0.9-0.5c0.1,0.3,0.2,0.5-0.3,0.4C27.8,34.2,27.6,34.3,27.4,34.3z"/>
			<path class="st30" d="M29.3,33.1C29.3,33.1,29.4,33.1,29.3,33.1c0.1,0.4-0.1,0.5-0.4,0.4C29,33.4,29.1,33.3,29.3,33.1z"/>
			<path class="st36" d="M30.6,32.8c0-0.2,0-0.3-0.1-0.5c0,0,0,0,0,0c0.1,0,0.2,0,0.4,0.1C31.1,32.7,30.7,32.6,30.6,32.8z"/>
			<path class="st30" d="M25,36.1c-0.1,0.1-0.2,0.1-0.2,0.1c-0.1-0.1-0.2-0.2-0.2-0.2c0,0,0.1-0.1,0.1-0.1
				C24.8,36,24.9,36.1,25,36.1z"/>
			<path class="st38" d="M30.9,32.3c-0.1,0-0.2,0-0.4-0.1c0.2-0.1,0.3-0.3,0.5-0.4C30.9,32,30.9,32.2,30.9,32.3z"/>
			<path class="st36" d="M20.8,35.7c0.2,0,0.4,0,0.5,0C21.1,36,21,36,20.8,35.7z"/>
			<path class="st41" d="M25.8,34.9c0.1,0,0.1,0,0.2-0.1C26,34.8,25.9,34.9,25.8,34.9z"/>
			<path class="st36" d="M21.8,35.7c0.1,0,0.1,0,0.2,0c0,0-0.1,0.1-0.1,0.1C21.9,35.8,21.9,35.8,21.8,35.7z"/>
			<path class="st36" d="M17.8,37.8C17.8,37.8,17.8,37.8,17.8,37.8c0.1,0,0.1,0,0.1,0C17.9,37.8,17.9,37.8,17.8,37.8
				C17.8,37.8,17.8,37.8,17.8,37.8z"/>
			<path class="st43" d="M14.2,8C14.2,8,14.2,8,14.2,8c0.4-0.2,0.6-0.3,0.9-0.4c0,0,0,0,0,0c0.2,0,0.4,0,0.5,0
				c0.2,0.1,0.4,0.1,0.5,0.2c0.1,0,0.1,0.1,0.2,0.2c-0.1,0.1-0.1,0.1-0.2,0.2c-0.1,0.1-0.2,0.1-0.3,0.1c0.1,0,0.3,0.1,0.4,0.1
				c0.3-0.1,0.5-0.1,0.7,0.2c0.1,0.1,0.4,0.2,0.5,0.2c0.6-0.1,0.9,0.1,1.1,0.7c0.1,0.4,0.3,0.5,0.7,0.5c0.2,0,0.5,0,0.7,0
				c0.3,0.1,0.6,0.1,0.6,0.5c0,0.4,0.2,0.5,0.6,0.4c0.4-0.1,0.8,0,0.9,0.5c0,0.1,0.2,0.3,0.3,0.4c0.4,0.2,0.8,0.3,1.2,0.4
				c0.4,0.1,1,0.1,0.8,0.8c0,0.1,0.1,0.2,0.1,0.2c0,0.2,0,0.4-0.1,0.5c0,0.1-0.1,0.2-0.1,0.3c0.1,0,0.2,0,0.3-0.1
				c0.2-0.2,0.3-0.1,0.4,0.1c0,0,0,0,0,0c-0.4-0.1-0.4,0.2-0.4,0.5l0,0c0,0-0.1,0.1-0.1,0.1c0,0,0,0,0,0c-0.1,0.1-0.2,0.1-0.4,0.2
				c-0.1,0-0.1,0-0.2,0c0-0.1,0-0.1,0-0.2c0-0.1,0-0.2-0.1-0.3c0,0.1-0.1,0.1-0.1,0.2c0,0.1,0,0.2,0,0.3c0,0.1,0.1,0.2,0.1,0.3
				c0,0.1,0.1,0.1,0.1,0.2c-0.1,0.2-0.3,0.4-0.4,0.6c-0.2-0.1-0.4-0.2-0.5-0.3c-0.2-0.1-0.5-0.3-0.6-0.5c-0.2-0.4-1-0.9-1.5-0.8
				c-0.3,0.1-0.7,0.1-0.7-0.3c-0.1-0.6-0.4-0.6-0.8-0.6c-0.4,0-1,0-1.2-0.5c-0.1-0.4-0.3-0.4-0.6-0.4c-0.2,0-0.4,0-0.6,0
				c-0.4,0-0.7-0.1-0.7-0.6c0-0.1-0.1-0.2-0.1-0.2c-0.4,0.1-0.4-0.2-0.6-0.4c-0.3-0.2-0.6-0.3-0.9-0.5c-0.1-0.1-0.3-0.1-0.4-0.2
				c-0.5-0.5-1.5-0.6-2.1-0.2c-0.1,0-0.1,0-0.2,0.1c0-0.1,0-0.2,0.1-0.3c0.3-0.2,0.2-0.4,0.1-0.6c0.1,0,0.1,0,0.2,0
				c0.1,0,0.1,0,0.2,0c0-0.1,0-0.3,0-0.4c0.1-0.2,0.3-0.3,0.4-0.5l0,0c0,0,0,0,0,0c0.3,0.1,0.5-0.1,0.6-0.4c0.1,0,0.1-0.1,0.2-0.1
				C14,8.5,14.1,8.3,14.2,8z"/>
			<path class="st34" d="M7.5,14.5C7.3,14.3,7.2,14,7,13.8c0,0-0.1-0.1-0.1-0.1c0,0.1-0.1,0.1-0.1,0.2c0,0.2,0,0.4,0,0.6
				C6.8,15,6.5,15.1,6.1,15c-0.2,0-0.4-0.1-0.5-0.1C5.4,15,5,15.1,5,15.3c-0.1,0.4-0.4,0.4-0.7,0.4c-0.6-0.1-1,0.1-1.1,0.8
				c0,0.4-0.4,0.3-0.6,0.3c-0.8-0.1-0.8-0.1-1.1,0.6c-0.1,0.3-0.1,0.8-0.7,0.4c0,0-0.2,0.1-0.2,0.1c-0.1,0.1-0.1,0.3-0.1,0.5
				c0,0.2-0.1,0.3-0.1,0.5c0-0.2-0.1-0.3-0.1-0.5c0-1.2,0.1-2.5,0.1-3.7c0.3-0.2,0.6-0.3,0.6,0.2c0,0.1,0.1,0.1,0.2,0.1
				c0-0.1,0.1-0.1,0.1-0.2c0-0.7,0.2-1,0.9-1c0,0,0,0,0,0C2.5,13.1,3,13,3.5,12.8c0.3-0.1,0.5-0.4,0.8-0.5c0.5-0.2,1-0.4,1.5-0.7
				c0.1,0,0.2-0.1,0.2-0.2c0.2-0.1,0.4-0.2,0.6-0.2c0.5,0.1,0.8,0,1-0.5c0.1-0.4,0.4-0.6,0.8-0.3c0.5,0.2,0.8,0.1,0.9-0.5
				c0.1-0.3,0.2-0.4,0.5-0.5c0.4-0.2,0.8-0.5,1.2-0.7c0.1-0.1,0.3-0.1,0.4-0.1c0.4,0.1,0.6,0,0.7-0.5c0-0.1,0-0.3,0.1-0.4
				c0.1-0.1,0.3-0.1,0.4-0.1c0,0,0.1,0.2,0.1,0.3c0,0.2-0.1,0.5,0.3,0.5c0,0,0,0,0.1,0.1c-0.1,0.1-0.1,0.1-0.2,0.2l0,0c0,0,0,0,0,0
				C12.6,9,12.3,9.2,12,9.4c-0.6-0.1-0.8,0.4-1,0.9c0,0,0,0.1,0,0.1c0,0-0.1,0-0.1,0c-0.4,0-0.6,0.2-0.5,0.5c0,0-0.1,0.1-0.1,0.1
				c0,0-0.1,0.1-0.1,0.1c0,0,0,0.1,0,0.1c0,0-0.1,0-0.1,0c-0.4,0-0.5,0.2-0.5,0.6l0,0c0,0.1-0.1,0.1-0.1,0.2l0,0
				c-0.1,0.1-0.2,0.3-0.3,0.4c0,0-0.1,0.1-0.1,0.1c0,0.1-0.1,0.1-0.1,0.2c0,0,0,0.1,0,0.1c-0.1,0.1-0.2,0.3-0.3,0.4c0,0,0,0,0,0
				c0,0.1-0.1,0.1-0.1,0.2c0,0,0,0,0,0c-0.2,0.4-0.4,0.8-0.6,1.1C7.7,14.5,7.6,14.5,7.5,14.5z M12.2,8.9C12.2,8.9,12.2,8.8,12.2,8.9
				C12.2,8.8,12.2,8.8,12.2,8.9C12.2,8.8,12.2,8.8,12.2,8.9C12.2,8.9,12.2,8.9,12.2,8.9z M10.9,9.4C10.9,9.4,10.9,9.5,10.9,9.4
				c0,0.1,0,0.1,0,0.1C10.9,9.5,10.9,9.5,10.9,9.4C11,9.4,10.9,9.4,10.9,9.4z"/>
			<path class="st44" d="M15.6,7.6c-0.2,0-0.4,0-0.5,0c0.1-0.1,0.3-0.2,0.4-0.3c0,0,0.1,0,0.1,0c0.1,0,0.1-0.1,0.2-0.1
				c0,0,0.1,0,0.1,0c0,0,0.1,0,0.1-0.1c0,0,0,0,0,0c0.3-0.1,0.7-0.2,1-0.3c0.1,0,0.1,0,0.2-0.1c0.1,0,0.1,0,0.2-0.1c0,0,0.1,0,0.1,0
				c0.2,0,0.5-0.1,0.7-0.1c-0.1,0.1-0.2,0.2-0.3,0.2C17.3,7,16.4,7.3,15.6,7.6z"/>
			<path class="st34" d="M13.6,8.3c-0.1,0-0.1,0.1-0.2,0.1c-0.1,0.1-0.2,0.1-0.4,0.2c0,0,0,0-0.1-0.1c0.1-0.5,0.4-0.4,0.8-0.4
				C13.8,8.2,13.7,8.2,13.6,8.3z"/>
			<path class="st44" d="M15.1,7.6c-0.3,0.1-0.6,0.3-0.9,0.4C14.5,7.8,14.8,7.7,15.1,7.6z"/>
			<path class="st44" d="M13.6,8.3c0.1-0.1,0.1-0.1,0.2-0.2c0.1,0,0.2-0.1,0.4-0.1C14.1,8.3,14,8.5,13.6,8.3z"/>
			<path class="st45" d="M15.6,7.6C16.4,7.3,17.3,7,18,6.8c0.1,0,0.2-0.1,0.3-0.2c0.1,0,0.1,0,0.2,0c0.3,0,0.5,0.1,0.8,0.1
				c1.1-0.2,2.2-0.2,3.3,0c0.3,0.1,0.6,0,0.9,0c0.1,0,0.1,0,0.2,0c0.1,0.1,0.1,0.1,0.2,0.2c0.7,0.2,1.5,0.5,2.2,0.7
				c0.2,0.1,0.5,0.1,0.8,0.1c0,0,0,0,0,0c0.2,0.5,0.9,0.9,1.6,0.8l0,0c0,0,0,0,0,0c0.1,0.3,0.1,0.6,0.2,0.8c0,0,0,0,0,0
				c-0.7,0.3-1,1-1.3,1.7c-0.1,0.1-0.1,0.2-0.2,0.2c-0.4,0-0.4,0.2-0.4,0.5l0,0c-0.1,0.1-0.1,0.2-0.2,0.2c0,0,0,0,0,0
				c-0.1,0.1-0.1,0.1-0.2,0.2c0,0,0,0,0,0c-0.1,0.2-0.3,0.4-0.4,0.5l0,0c0,0-0.1,0.1-0.1,0.1c-0.4,0.5-0.7,0.9-1.1,1.4
				c-0.1-0.2-0.2-0.4-0.4-0.1c-0.1,0.1-0.2,0-0.3,0.1c0-0.1,0.1-0.2,0.1-0.3c0-0.2,0.1-0.3,0.1-0.5c0-0.1-0.1-0.2-0.1-0.2
				c0.2-0.7-0.4-0.7-0.8-0.8c-0.4-0.1-0.8-0.2-1.2-0.4c-0.1-0.1-0.3-0.2-0.3-0.4c-0.1-0.5-0.4-0.6-0.9-0.5c-0.4,0.1-0.6,0-0.6-0.4
				c0-0.4-0.3-0.4-0.6-0.5c-0.2-0.1-0.5-0.1-0.7,0c-0.4,0-0.6-0.1-0.7-0.5c-0.2-0.6-0.5-0.7-1.1-0.7c-0.2,0-0.5-0.1-0.5-0.2
				c-0.2-0.4-0.4-0.3-0.7-0.2c-0.1,0-0.3-0.1-0.4-0.1c0.1,0,0.2-0.1,0.3-0.1c0.1,0,0.2-0.1,0.2-0.2c-0.1-0.1-0.1-0.2-0.2-0.2
				C16,7.7,15.8,7.7,15.6,7.6z M27.2,8.3c-0.1-0.1-0.1-0.1-0.2-0.1c0,0-0.1,0.1-0.1,0.1c0,0.1,0.1,0.1,0.1,0.1
				C27,8.4,27.1,8.3,27.2,8.3z"/>
			<path class="st46" d="M35.7,20.5c0,0.3,0,0.6,0,0.9c-0.3-0.1-0.7,0-0.9-0.2c-0.6-0.3-1-0.9-1.8-0.8c-0.1,0-0.2-0.2-0.3-0.2
				c0-0.5-0.4-0.6-0.8-0.7c-0.3-0.1-0.6-0.2-0.9-0.4c-0.2-0.2-0.3-0.2-0.4,0.1c-0.1,0.2-0.2,0.3-0.4,0.4c0-0.1,0-0.3,0-0.4
				c0,0,0-0.1,0-0.1c0-0.1,0.1-0.3,0.1-0.4c0,0,0-0.1,0-0.1c0-0.1,0-0.3,0-0.4c0-0.1,0.1-0.1,0.1-0.2c0,0,0,0,0,0c0,0,0-0.1,0-0.1
				c-0.1-0.5,0.1-0.7,0.6-0.5c0.4,0.1,0.8,0.2,1.2,0.2c0.4,0.1,0.5-0.1,0.4-0.5c-0.7-1.7-1.5-3.5-2.2-5.2c-0.1-0.2-0.1-0.3-0.2-0.5
				c-0.3-0.7-0.5-1.3-0.8-2c-0.1-0.2-0.1-0.3,0.1-0.2c0.6,0.5,1.2,1,1.8,1.5c0.1,0.2,0.3,0.3,0.4,0.5c0,0,0,0,0,0
				c0.7,1,1.4,1.9,2,2.9c0,0,0,0.1,0,0.1c0,0.1,0.1,0.2,0.1,0.3l0,0c0,0.1,0.1,0.1,0.1,0.2c0.1,0.3,0.2,0.5,0.4,0.8
				c0,0.1,0,0.1,0.1,0.2c0,0.1,0.1,0.1,0.1,0.2c0,0,0,0,0,0c0,0,0,0,0,0.1c0,0,0,0,0,0.1c0,0.1,0,0.1,0.1,0.2
				c0.1,0.2,0.2,0.5,0.3,0.7c0.2,1,0.4,2,0.6,2.9c0,0.1,0,0.1,0,0.2c0,0,0,0,0,0c0,0,0,0,0,0c0,0,0,0,0,0.1
				C35.7,20.2,35.7,20.3,35.7,20.5z M30.8,18.6C30.8,18.6,30.8,18.6,30.8,18.6C30.7,18.5,30.7,18.6,30.8,18.6
				C30.7,18.6,30.7,18.6,30.8,18.6C30.8,18.6,30.8,18.6,30.8,18.6z"/>
			<path class="st47" d="M29.7,9.1c-0.2-0.1-0.2,0-0.1,0.2c0.3,0.7,0.6,1.3,0.8,2c0.1,0.2,0.1,0.3,0.2,0.5c0,0.1-0.1,0.3,0,0.4
				c0.1,0.5,0.3,0.9,0.5,1.4c0,0.1,0,0.2,0,0.4c-0.1-0.1-0.2-0.2-0.3-0.3c-0.1-0.1-0.3-0.3-0.4-0.5c0,0.2-0.1,0.4-0.1,0.7
				c0,0.1,0.1,0.2,0.1,0.3c0.5,0.6,0.1,1.1-0.7,1.4c-0.6,0.2-1.2,0.1-1.6,0.8c-0.1,0.1-0.4,0.2-0.6,0.3c-0.4,0.2-0.9,0.2-1.1,0.5
				c-0.3,0.5-0.4,1.2-0.6,1.8c-0.1,0.3-0.1,0.6-0.5,0.6c0.1-0.8,0.3-1.5,0.4-2.3c0.1-0.4,0-0.6-0.4-0.6c-0.4,0-0.8-0.1-1.2-0.2
				c-0.2,0-0.3-0.2-0.5-0.3c0.1-0.2,0.3-0.4,0.4-0.6c0.1-0.1,0.1-0.1,0.2-0.2c0.1-0.1,0.1-0.1,0.2-0.2c0.1-0.1,0.2-0.2,0.2-0.3
				c0,0,0,0,0,0c0,0,0.1-0.1,0.1-0.1c0,0,0,0,0,0c0.1-0.2,0.2-0.3,0.4-0.5c0,0,0,0,0,0c0.4-0.5,0.7-0.9,1.1-1.4c0,0,0.1-0.1,0.1-0.1
				c0,0,0,0,0,0c0.1,0,0.1-0.1,0.2-0.1c0.1,0.1,0.2,0.3,0.2,0.2c0.6-0.2,1.1-0.3,1.7-0.5c0.1,0,0.2-0.1,0.3-0.2
				c0.1-0.4,0.5-0.5,0.8-0.7c0.6-0.3,0.7-0.5,0.4-1c-0.1-0.2-0.3-0.4-0.5-0.6c0,0-0.3,0-0.3,0C28.8,10,28.6,10,28.3,10
				c0.2-0.2,0.3-0.5,0.5-0.7c0,0,0,0,0,0C28.9,9.2,29,9,29.1,8.9c0.1,0,0.1,0,0.2,0c0.2-0.1,0.3-0.2,0.4-0.3
				C29.8,8.7,29.7,8.9,29.7,9.1z"/>
			<path class="st33" d="M31.9,11.1c-0.1-0.2-0.3-0.3-0.4-0.5c0.1-0.2,0.1-0.4,0.2-0.6c0.1-0.1,0.2-0.2,0.3-0.2
				c0.1,0,0.3,0.1,0.4,0.1c0,0.1-0.1,0.2-0.1,0.4C32.1,10.6,32,10.8,31.9,11.1z"/>
			<path class="st44" d="M28.5,8.4c-0.7,0-1.4-0.3-1.6-0.8c0.5,0.2,0.9,0.4,1.4,0.6C28.3,8.2,28.4,8.3,28.5,8.4z"/>
			<path class="st44" d="M29.1,8.9C29,9,28.9,9.2,28.8,9.3c-0.1-0.3-0.1-0.6-0.2-0.8C28.7,8.6,28.9,8.8,29.1,8.9z"/>
			<path class="st33" d="M34.2,9c0.1,0,0.1,0.1,0.1,0.1c0,0-0.1,0.1-0.1,0.1c0,0-0.1,0-0.1,0C34.2,9.1,34.2,9.1,34.2,9z"/>
			<path class="st37" d="M30.4,18.6c0,0.1-0.1,0.3-0.1,0.4c0,0,0,0,0,0c0,0,0,0,0,0.1c0,0.1,0,0.3,0,0.4c-0.2,0.8-0.5,1.7-0.7,2.5
				c0,0.1,0,0.1-0.1,0.2c-0.1,0.4-0.3,0.8-0.4,1.2c-0.4,0.8-0.8,1.5-1.2,2.3c-0.5,0.6-0.9,1.2-1.4,1.8c-1,0.7-1.9,1.5-2.9,2.2
				c-1.2,0.4-2.4,0.9-3.7,1.3c-0.2,0-0.3,0.1-0.5,0.1c0,0,0,0,0,0c-0.7,0.1-1.4,0.1-2.1,0.2c-0.4,0-0.7,0-1.1,0
				c-0.4,0-0.8,0-1.1-0.1c-1-0.2-2-0.4-2.9-0.6c0-0.1,0-0.1,0-0.2c0.5-0.1,1.1,0,1.3-0.7c0-0.2,0.5-0.3,0.8-0.3c0.4,0,0.7,0,0.8-0.5
				c0.1-0.5,0.5-0.6,1-0.6c0.6-0.1,0.7-0.2,0.8-0.8c0-0.3,0-0.5,0-0.8c0.7-0.1,1.3-0.2,2-0.4c0.4-0.1,0.7-0.3,1.1-0.5
				c0.3-0.1,0.5-0.4,0.8-0.5c0.1-0.1,0.2-0.1,0.2-0.2c0.5,0.3,0.8-0.1,1-0.5c0.3,0.1,0.5,0.1,0.7-0.3c0.1-0.2,0.4-0.4,0.6-0.5
				c0,0,0.2-0.1,0.2-0.1c-0.1-0.5,0.2-0.6,0.6-0.7c0.1,0,0.1-0.2,0.1-0.3c0.1-0.2,0.3-0.4,0.4-0.6c0.2,0.1,0.3,0.2,0.5,0.3
				c0.1,0.1,0.3,0.2,0.4,0.2c0.1,0,0.2-0.2,0.3-0.4c0.1-0.2,0.1-0.5,0.3-0.6c0.5-0.3,1-0.6,1.6-0.8c0.7-0.2,1.2-0.6,1.6-1.2
				c0.4-0.7,1.2-1.1,1.3-1.9c0,0,0.1,0,0.1,0c0,0.1,0,0.3,0,0.4C30.4,18.5,30.4,18.5,30.4,18.6C30.4,18.5,30.4,18.6,30.4,18.6z
				 M29.1,20.5c0.2,0.2,0.3,0.3,0.4,0.4c0-0.1,0.1-0.3,0.1-0.4c0-0.1-0.1-0.2-0.1-0.3C29.4,20.3,29.3,20.3,29.1,20.5z"/>
			<path class="st37" d="M10.4,31.4c0.7,0.6,1.5,1.2,2.2,1.8c0,0-0.1,0.1-0.1,0.1c0.1,0.6-0.6,0.7-0.8,1.1c0,0.1-0.2,0.1-0.3,0.1
				c-0.5,0.1-1,0.2-1.3,0.7c0,0.1-0.2,0.1-0.3,0.1c-0.5,0.1-1.1,0.2-1.5,0.7c-0.2,0.2-0.7,0.2-1,0.4c-0.4,0.3-0.8,0.6-1.1,1
				c-0.1,0.1-0.2,0.2-0.3,0.3c-0.4,0.2-0.8,0.3-1.2,0.4c-0.4,0.2-0.9,0.4-1.3,0.6c-0.6,0.3-1.2,0.6-1.7,0.9c-0.1,0-0.2,0.1-0.2,0
				c-0.6-0.4-0.6,0.2-0.7,0.5c-0.1,0.4-0.1,0.8-0.1,1.2c0,0.1-0.1,0.2-0.2,0.3c0-0.1-0.1-0.2-0.1-0.4c0-1.4,0-2.9,0-4.3
				c0.5-0.1,0.3-0.5,0.4-0.8c0.1-0.5,0.2-0.7,0.7-1c0.5-0.2,1.1-0.1,1.4-0.7c0.1-0.1,0.5-0.1,0.7-0.1c0.3,0,0.5,0.1,0.8,0.1
				c0.1,0,0.1,0,0.2-0.1c0,0-0.1-0.1-0.1-0.1c-0.3-0.3-0.3-0.6,0.2-0.8c1.3-0.6,2.6-1.2,3.9-1.8c0.4-0.2,0.6-0.6,0.9-0.9
				c0.3,0,0.5,0.1,0.8,0.1C10.3,31.2,10.4,31.3,10.4,31.4c-0.1,0-0.1,0.1-0.2,0.1c0,0,0,0,0,0C10.3,31.5,10.4,31.4,10.4,31.4z"/>
			<path class="st33" d="M10.2,31.1C10,31,9.7,31,9.5,31c0-0.3,0-0.5,0-0.8C9.7,30.5,10,30.8,10.2,31.1z"/>
			<path class="st27" d="M12.2,30.6c0,0.1,0,0.1,0,0.2c-0.1,0-0.1,0-0.2-0.1c0,0,0-0.1,0-0.1C12,30.6,12.1,30.6,12.2,30.6
				C12.2,30.6,12.2,30.6,12.2,30.6z"/>
			<path class="st27" d="M9.3,29.9c-0.1,0-0.1,0-0.2-0.1c0,0,0,0,0-0.1C9.2,29.8,9.2,29.8,9.3,29.9C9.3,29.9,9.3,29.9,9.3,29.9z"/>
			<path class="st37" d="M12.2,30.6c-0.1,0-0.1,0-0.2,0C12,30.6,12.1,30.6,12.2,30.6z"/>
			<path class="st40" d="M9.3,29.9C9.3,29.9,9.3,29.9,9.3,29.9C9.3,29.9,9.3,29.9,9.3,29.9C9.3,29.9,9.4,29.9,9.3,29.9
				C9.3,29.9,9.3,29.9,9.3,29.9z"/>
			<path class="st37" d="M7.5,37.3c-0.1,0-0.2,0-0.3,0c-0.1,0-0.1-0.1-0.2-0.1c0.1,0,0.1-0.1,0.2-0.1c0.1,0,0.2,0,0.3-0.1
				c0.2,0,0.4,0,0.6,0c0,0,0,0.1,0,0.1C7.9,37.2,7.7,37.3,7.5,37.3C7.5,37.3,7.5,37.3,7.5,37.3z"/>
			<path class="st37" d="M10.6,35.4c0.1,0.1,0.1,0.1,0.2,0.2c-0.1,0-0.1,0.1-0.2,0.1c-0.1,0-0.1-0.1-0.2-0.1
				C10.4,35.4,10.5,35.4,10.6,35.4z"/>
			<path class="st36" d="M14.4,34.2c0.1,0,0.1,0.1,0.2,0.1c0,0.1-0.1,0.1-0.1,0.2C14.4,34.4,14.4,34.3,14.4,34.2z"/>
			<path class="st44" d="M26.9,7.6c-0.3,0-0.5,0-0.8-0.1c-0.7-0.2-1.5-0.5-2.2-0.7c-0.1,0-0.1-0.1-0.2-0.2c0.2,0,0.4,0,0.6,0.1
				c0,0,0.1,0,0.1,0c0.1,0,0.1,0,0.2,0.1C25.4,7,26.1,7.3,26.9,7.6z"/>
			<path class="st34" d="M24.7,6.7c-0.1,0-0.1,0-0.2-0.1C24.6,6.7,24.6,6.7,24.7,6.7z"/>
			<path class="st48" d="M20.9,25.3c-0.1,0.1-0.2,0.1-0.2,0.2c-2,0.9-4.1,1.2-6.2,0.9c-0.9-0.2-1.8-0.5-2.8-0.7
				c-0.2-0.1-0.4-0.2-0.7-0.3l0,0c0,0,0,0,0,0c-0.2-0.1-0.4-0.2-0.6-0.3c-0.1,0-0.1-0.1-0.2-0.1c-0.3-0.2-0.5-0.3-0.8-0.5
				c0,0,0,0,0,0c-0.1-0.1-0.2-0.1-0.3-0.2C9.1,24.1,9,24.1,9,24c0,0,0,0,0,0c-0.1-0.1-0.3-0.2-0.4-0.3c0,0,0,0,0,0s0,0,0,0
				c0,0-0.1-0.1-0.1-0.1c0,0-0.1-0.1-0.1-0.1l0,0c0,0,0,0,0,0c-0.1-0.1-0.2-0.2-0.3-0.2l0,0c-0.1-0.1-0.1-0.1-0.2-0.2l0,0
				c-0.1-0.1-0.2-0.2-0.3-0.3l0,0c0,0-0.1-0.1-0.1-0.1c0,0-0.1-0.1-0.1-0.1c-0.2-0.2-0.4-0.5-0.6-0.7c0,0,0,0,0,0
				c-0.2-0.3-0.3-0.6-0.5-0.8c0-0.2,0-0.3,0-0.5c0-0.1,0-0.2,0-0.3c0.1-0.5,0.1-1.1,0.2-1.6c0-0.1,0-0.2,0-0.3
				c0.1-0.2,0.1-0.4,0.2-0.6c0.1-0.1,0.3-0.1,0.4-0.2c-0.1-0.1-0.2-0.2-0.3-0.2c0-0.1,0-0.3,0.1-0.4c0-0.1,0-0.1,0.1-0.2
				C7,16.4,7.1,16.2,7.2,16c0,0,0.1,0,0.1,0c0,0,0.1,0,0.1,0c0.1,0.5,0.2,0.9,0.3,1.4c0,0.1,0,0.2,0.1,0.2c0.1,0,0.2,0,0.2,0
				c0.1,0,0.4-0.1,0.4-0.1c0.3,0.3,0.7,0.3,1.1,0.3c0.2,0,0.4,0.1,0.4,0.2c0.1,0.6,0.5,0.7,1,0.5c0.4-0.1,0.6,0,0.7,0.4
				c0.1,0.3,0.3,0.7,0.8,0.7c0.7,0,1.3,0.1,2,0.1c0.1,0,0.2,0.1,0.3,0.2c-0.1,0.1-0.2,0.2-0.3,0.3c-0.1,0-0.2,0-0.3,0
				c-0.2,0.1-0.3,0.2-0.5,0.3c0.1,0.1,0.2,0.3,0.4,0.4c0.4,0.2,1,0.1,1.2,0.7c0,0.1,0.2,0.1,0.3,0.1c0.4,0.2,0.8,0.3,1.1,0.5
				c0.2,0.1,0.4,0.2,0.6,0.3c0.4,0.2,0.9,0.2,1,0.5c0.3,0.6,0.8,0.6,1.3,0.6c0.4,0,0.7,0,0.8,0.5c0,0.1,0.2,0.2,0.3,0.2
				c0.5-0.4,1.1,0,1.7-0.1c-0.2,0.2-0.4,0.4-0.6,0.6c-0.1,0-0.2,0.1-0.3,0.1c-0.1,0-0.2,0-0.4,0c0,0.1,0,0.2,0.1,0.3
				C21.1,25.2,21,25.3,20.9,25.3z"/>
			<path class="st27" d="M6.3,20.2c0,0.1,0,0.2,0,0.3c-0.1,0.1-0.2,0.1-0.4,0.2C6,20.8,6,20.9,6.1,21c-0.1,0.5,0.2,0.7,0.6,0.8
				c0,0,0,0,0,0c0,0.4,0.3,0.6,0.6,0.7c0,0,0.1,0.1,0.1,0.1c0,0,0.1,0.1,0.1,0.1c0,0,0,0,0,0C7.7,22.9,7.7,23,7.8,23c0,0,0,0,0,0
				C7.9,23.1,8,23.2,8,23.2c0,0,0,0,0,0c0,0.1,0,0.2-0.1,0.3c0,0,0,0.1-0.1,0.1c-1.1-0.1-1.5,1.2-2.5,1.2c0,0-0.1,0.1-0.1,0.1
				C5.4,25,5.4,25,5.5,25.1c0.1,0.1,0.2,0.2,0.3,0.3c-0.2,0.1-0.3,0.2-0.5,0.2c-0.2,0-0.3-0.1-0.5-0.2c-0.5-0.1-0.9,0-1.3,0.4
				c-0.3,0.3-0.8,0.4-1.3,0.6c-0.1,0-0.2,0.1-0.3,0.2c0.1,0.1,0.2,0.1,0.3,0.2c0.2,0,0.4,0,0.6,0C3,26.8,3,27,3.1,27
				c-0.1,0.1-0.2,0.2-0.3,0.2c-0.4,0-0.9,0.3-1.3-0.3c-0.2-0.3-0.6-0.2-0.7,0.2c-0.1,0.3,0,0.5-0.1,0.8c0,0.1-0.2,0.3-0.2,0.4
				c-0.1-0.1-0.2-0.3-0.2-0.4c0-1.2,0-2.3,0-3.5c0.1-0.1,0.2-0.1,0.2-0.2c0.1-0.7,0.2-1.4,0.2-2.1c0-0.2-0.3-0.4-0.4-0.6
				c0,0,0-0.1,0-0.1c0-0.1,0.1-0.1,0.1-0.2c0.1-0.1,0.2-0.3,0.2-0.4c0.1,0.1,0.2,0.3,0.3,0.4c0.1,0.1,0.1,0.2,0.2,0.2
				c0.1-0.1,0.2-0.2,0.2-0.3c0.3-1.1,0.4-1.1,1.5-1.2c0.2,0,0.3-0.1,0.4-0.1c0.4-0.2,0.9-0.5,1.3-0.6c0.1,0,0.3,0.2,0.5,0.3
				c0.1,0.1,0.2,0.2,0.3,0.2c0-0.1,0.1-0.2,0.1-0.4c0-0.2,0-0.4,0-0.6c0-0.2,0.1-0.4,0.1-0.6c0.2,0.1,0.4,0.3,0.6,0.4
				c0,0,0,0.1,0,0.1c0,0-0.1,0.1-0.1,0.1c0,0,0.1,0.1,0.1,0.1c0,0.3,0,0.6,0,0.8c0,0-0.1,0.1-0.1,0.1C6.1,20.1,6.1,20.1,6.3,20.2
				C6.2,20.2,6.2,20.2,6.3,20.2C6.2,20.2,6.3,20.2,6.3,20.2z"/>
			<path class="st32" d="M0.3,21.7c0.1,0.2,0.4,0.4,0.4,0.6c0,0.7-0.1,1.4-0.2,2.1c0,0.1-0.1,0.1-0.2,0.2
				C0.3,23.6,0.3,22.7,0.3,21.7z"/>
			<path class="st47" d="M9.4,24.3C9.4,24.3,9.4,24.3,9.4,24.3c0,0.1-0.1,0.2-0.2,0.2c-0.2,0-0.4,0.1-0.5,0.1
				c0.1-0.2,0.1-0.3,0.2-0.5c0-0.1,0-0.1,0.1-0.2c0.1,0,0.1,0.1,0.2,0.1C9.2,24.2,9.3,24.3,9.4,24.3z"/>
			<path class="st27" d="M9.2,24.6c0.1-0.1,0.1-0.1,0.2-0.2c0.3,0.2,0.5,0.3,0.8,0.5C9.8,25.1,9.5,24.8,9.2,24.6z"/>
			<path class="st29" d="M13.4,26.6c-0.1-0.1-0.2-0.1-0.3-0.2c0.1-0.1,0.2-0.2,0.2-0.1c0.1,0,0.2,0.1,0.4,0.2
				C13.6,26.5,13.5,26.6,13.4,26.6z"/>
			<path class="st27" d="M11,25.3c0.2,0.1,0.4,0.2,0.7,0.3C11.5,25.5,11.3,25.4,11,25.3z"/>
			<path class="st27" d="M10.4,25c0.2,0.1,0.4,0.2,0.6,0.3C10.8,25.2,10.6,25.1,10.4,25z"/>
			<path class="st24" d="M8.5,23.7C8.7,23.8,8.8,23.9,9,24C8.7,24.1,8.5,24,8.5,23.7z"/>
			<path class="st24" d="M8,23.5c0-0.1,0-0.2,0.1-0.3c0.1,0.1,0.2,0.2,0.3,0.2C8.2,23.5,8.1,23.5,8,23.5z"/>
			<path class="st24" d="M8.4,23.6c0,0,0.1,0.1,0.1,0.1C8.5,23.7,8.5,23.6,8.4,23.6z"/>
			<path class="st24" d="M8.3,23.5c0,0,0.1,0.1,0.1,0.1C8.4,23.6,8.4,23.5,8.3,23.5z"/>
			<path class="st44" d="M23.5,6.5c-0.3,0-0.6,0.1-0.9,0c-1.1-0.2-2.2-0.2-3.3,0c-0.2,0.1-0.5,0-0.8-0.1c0,0,0.1-0.1,0.1-0.1
				c0.1,0,0.3,0,0.4,0c0.1,0,0.2,0,0.2,0c0.1,0,0.1,0,0.2,0c0.2,0,0.4,0,0.6,0c0.1,0,0.3,0,0.4,0c0.3,0,0.6,0,0.8,0
				c0.1,0,0.3,0,0.4,0c0.1,0,0.3,0,0.4,0C22.7,6.4,23.1,6.5,23.5,6.5z"/>
			<path class="st26" d="M17.1,6.8c-0.3,0.1-0.7,0.2-1,0.3C16.2,6.3,16.3,6.3,17.1,6.8z"/>
			<path class="st26" d="M18.7,6.4c0,0-0.1,0.1-0.1,0.1c-0.1,0-0.1,0-0.2,0c-0.2,0-0.5,0.1-0.7,0.1C17.9,6.4,18.5,6.3,18.7,6.4z"/>
			<path class="st26" d="M21.4,6.3c-0.3,0-0.6,0-0.8,0C20.9,6,21.1,6,21.4,6.3z"/>
			<path class="st26" d="M18.8,5.4c-0.1,0.1-0.1,0.1-0.2,0.2c0-0.1-0.1-0.1-0.1-0.2c0,0,0.1-0.2,0.1-0.1C18.7,5.3,18.7,5.4,18.8,5.4
				z"/>
			<path class="st26" d="M20.2,6.3c-0.2,0-0.4,0-0.6,0C19.7,6.3,19.9,6.3,20.2,6.3z"/>
			<path class="st26" d="M22.3,6.3c-0.1,0-0.3,0-0.4,0C22,6.3,22.1,6.3,22.3,6.3z"/>
			<path class="st26" d="M19.3,6.4c-0.1,0-0.2,0-0.2,0C19.2,6.4,19.3,6.4,19.3,6.4z"/>
			<path class="st26" d="M15.8,7.2c-0.1,0-0.1,0.1-0.2,0.1C15.7,7.2,15.8,7.2,15.8,7.2z"/>
			<path class="st26" d="M16.1,7.1c0,0-0.1,0-0.1,0.1C16,7.1,16.1,7.1,16.1,7.1z"/>
			<path class="st26" d="M17.5,6.7c-0.1,0-0.1,0-0.2,0.1C17.4,6.7,17.4,6.7,17.5,6.7z"/>
			<path class="st49" d="M29.6,22.1c0.2-0.8,0.5-1.7,0.7-2.5c0.1-0.1,0.3-0.2,0.4-0.4c0.1-0.2,0.2-0.3,0.4-0.1
				c0.3,0.2,0.6,0.3,0.9,0.4c0.4,0.1,0.7,0.2,0.8,0.7c0,0.1,0.2,0.3,0.3,0.2c0.8-0.1,1.2,0.5,1.8,0.8c0.3,0.1,0.6,0.1,0.9,0.2
				c-0.1,0.8-0.1,1.6-0.2,2.4c0,0.1,0,0.2-0.1,0.3c-0.1,0.2-0.1,0.5-0.2,0.7c0,0,0,0,0,0c0,0,0,0.1,0,0.1c-0.1,0.4-0.3,0.8-0.4,1.2
				c-0.4,0.3-0.8,0.2-1.2,0c-0.5-0.3-0.9-0.6-1.3-0.9c-0.7-0.5-1.4-0.9-2.2-1.3c-0.1-0.1-0.2-0.2-0.3-0.2c-0.2-0.1-0.4-0.2-0.6-0.3
				c0.1-0.4,0.3-0.8,0.4-1.2C29.6,22.2,29.6,22.1,29.6,22.1z"/>
			<path class="st50" d="M26.5,27.5c0.5-0.6,0.9-1.2,1.4-1.8c0.1,0,0.3,0,0.4,0c0.2,0,0.4,0,0.5,0.1c0.5,0.3,1,0.7,1.5,1
				c0.6,0.4,1.3,0.8,2,1.3c0.4,0.2,0.7,0.5,1.1,0.7c-0.4,0.6-0.9,1.2-1.3,1.8c-0.1,0.1-0.1,0.2-0.2,0.2c0,0,0,0,0,0
				c-1.3-0.2-2.2-1.1-3.2-1.7c-0.5-0.3-1-0.8-1.5-0.9C26.6,28.1,26.9,27.6,26.5,27.5z"/>
			<path class="st51" d="M33.4,28.9c-0.4-0.2-0.7-0.5-1.1-0.7c-0.7-0.4-1.3-0.8-2-1.3c-0.5-0.3-1-0.7-1.5-1
				c-0.1-0.1-0.4-0.1-0.5-0.1c-0.1,0-0.3,0-0.4,0c0.4-0.8,0.8-1.5,1.2-2.3c0.2,0.1,0.4,0.2,0.6,0.3c0.1,0.1,0.2,0.2,0.3,0.2
				c0.7,0.4,1.5,0.9,2.2,1.3c0.5,0.3,0.9,0.7,1.3,0.9c0.4,0.2,0.8,0.3,1.2,0c0,0.1,0,0.1,0,0.2c-0.1,0.2-0.2,0.5-0.3,0.7
				C34.1,27.7,33.7,28.3,33.4,28.9z"/>
			<path class="st38" d="M34.4,27.1c0.1-0.2,0.2-0.5,0.3-0.7c0.3,0.1,0.5,0.2,0.3,0.5C34.9,27.2,34.8,27.4,34.4,27.1z"/>
			<path class="st42" d="M31.8,30.9c0.1-0.1,0.1-0.2,0.2-0.2C32,30.8,31.9,30.8,31.8,30.9z"/>
			<path class="st24" d="M35.2,25c0,0,0-0.1,0-0.1C35.2,24.9,35.2,24.9,35.2,25z"/>
			<path class="st27" d="M33.5,10.6C33.5,10.6,33.5,10.5,33.5,10.6C33.5,10.5,33.5,10.5,33.5,10.6C33.5,10.5,33.5,10.5,33.5,10.6
				C33.5,10.5,33.5,10.5,33.5,10.6z"/>
			<path class="st49" d="M34.1,14.4c0-0.1-0.1-0.2-0.1-0.3C34,14.2,34.1,14.3,34.1,14.4z"/>
			<path class="st49" d="M34.2,14.6c0-0.1-0.1-0.1-0.1-0.2C34.2,14.5,34.2,14.5,34.2,14.6z"/>
			<path class="st39" d="M34.8,16.1c0-0.1,0-0.1-0.1-0.2C34.8,16,34.8,16,34.8,16.1z"/>
			<path class="st39" d="M34.8,15.9C34.7,15.8,34.7,15.8,34.8,15.9c-0.1-0.1,0-0.1,0-0.1C34.7,15.8,34.7,15.8,34.8,15.9z"/>
			<path class="st39" d="M34.7,15.5c0-0.1,0-0.1-0.1-0.2C34.6,15.4,34.6,15.5,34.7,15.5z"/>
			<path class="st38" d="M35.7,20c0-0.1,0-0.1,0-0.2c0,0,0.1,0.1,0.1,0.1C35.8,19.9,35.8,19.9,35.7,20z"/>
			<path class="st49" d="M35.7,20.1C35.7,20,35.7,20,35.7,20.1c0-0.1,0-0.1,0-0.1C35.7,20,35.7,20,35.7,20.1z"/>
			<path class="st24" d="M7.2,16c-0.1,0.2-0.2,0.4-0.3,0.6C6.8,16,7,15.5,7.4,15.1c0,0,0,0,0,0c0,0.2-0.1,0.3-0.1,0.5
				C7.3,15.8,7.3,15.9,7.2,16z"/>
			<path class="st24" d="M6.7,17.6c-0.1,0.2-0.1,0.4-0.2,0.6c-0.2-0.6,0-1,0.4-1.5c0,0.1,0,0.3-0.1,0.4c0,0,0,0,0,0
				c0,0.1,0,0.1-0.1,0.2C6.7,17.5,6.7,17.6,6.7,17.6z"/>
			<path class="st24" d="M6.2,20c0-0.3,0-0.6,0-0.8c0-0.1,0-0.1,0-0.2c0,0,0-0.1,0-0.1c0.1-0.1,0.2-0.1,0.3-0.2
				c-0.1,0.5-0.1,1.1-0.2,1.6c0,0,0,0,0,0s0,0,0,0C6.2,20.1,6.2,20,6.2,20z"/>
			<path class="st24" d="M7.5,14.5c0.1,0,0.2,0,0.3,0c0,0,0,0,0,0c0,0.1,0,0.1,0,0.2l0,0c0,0.1-0.1,0.1-0.1,0.2c0,0,0,0,0,0
				c0,0.1-0.1,0.1-0.1,0.2c0,0,0,0,0,0c0,0-0.1,0-0.1,0c0,0,0,0,0,0C7.4,14.9,7.5,14.7,7.5,14.5z"/>
			<path class="st36" d="M35.4,24.1c0-0.1,0-0.2,0.1-0.3c0.1,0.1,0.1,0.1,0.2,0.2C35.6,24.1,35.5,24.1,35.4,24.1z"/>
			<path class="st40" d="M16.3,31.4c0.4,0,0.7,0,1.1,0C17,31.6,16.6,31.7,16.3,31.4z"/>
			<path class="st39" d="M19.4,31.2C19.4,31.2,19.5,31.1,19.4,31.2c0.1,0.1,0.3,0.2,0.4,0.3c-0.1,0-0.1,0.1-0.2,0.1
				C19.6,31.4,19.5,31.3,19.4,31.2z"/>
			<path class="st52" d="M23.5,16c0.2,0.1,0.3,0.3,0.5,0.3c0.4,0.1,0.8,0.2,1.2,0.2c0.4,0,0.5,0.2,0.4,0.6c-0.1,0.8-0.3,1.5-0.4,2.3
				c0,0.1,0,0.1,0,0.2c-0.2,0.5-0.3,0.9-0.5,1.4c-0.2,0.4-0.4,0.8-0.7,1.2c0,0,0,0-0.1,0c-0.2-0.3-0.3-0.7,0.2-0.9
				c0.1-0.1,0.2-0.3,0.3-0.5c0.1-0.1,0.1-0.3,0.1-0.4c-0.1,0-0.2,0.1-0.3,0.1c-0.1,0-0.3,0-0.4,0c-0.3-0.1-0.5-0.2-0.8-0.3
				c-0.1-0.1-0.3-0.1-0.4-0.2c-0.2-0.8-0.9-0.8-1.5-0.9c-0.6-0.1-1-0.3-1.2-0.9c0-0.1-0.4-0.3-0.4-0.2c-0.5,0.4-0.8,0-1.1-0.4
				c-0.2-0.3-0.4-0.4-0.8-0.4c-0.3,0-0.8-0.2-0.8-0.4c-0.2-0.6-0.6-0.6-1.1-0.6c-0.2,0-0.6-0.1-0.6-0.2c-0.2-0.4-0.6-0.5-1-0.6
				c-0.3-0.1-0.6-0.1-0.8-0.4c-0.1-0.1-0.2-0.2-0.3-0.2c-0.9-0.4-1.8-0.7-2.7-1.1c-0.3-0.2-0.5-0.5-0.9-0.4c0,0-0.1-0.2-0.2-0.3
				c0.1-0.1,0.1-0.2,0.2-0.3c0,0-0.1-0.1-0.1-0.1c0,0.1-0.1,0.2-0.1,0.3C9.1,12.9,9,13,8.9,13.1c-0.2,0.1-0.3,0.2-0.5,0.3
				c0,0,0-0.1,0-0.1c0,0,0,0,0,0c0-0.1,0.1-0.1,0.1-0.2c0,0,0,0,0,0c0.1-0.1,0.2-0.3,0.3-0.4c0,0,0-0.1,0-0.1c0-0.1,0.1-0.1,0.1-0.2
				c0,0,0.1-0.1,0.1-0.1c0.1-0.1,0.2-0.3,0.3-0.4c0,0,0,0,0,0c0-0.1,0.1-0.1,0.1-0.2c0,0,0,0,0,0c0.2-0.2,0.3-0.3,0.5-0.5
				c0,0,0.1-0.1,0.1-0.1c0,0,0-0.1,0-0.1c0,0,0.1,0,0.1,0c0.1,0,0.1-0.1,0.2-0.1c0,0,0-0.1,0.1-0.1l0,0c0-0.1,0.1-0.1,0.1-0.2l0,0
				c0.1-0.1,0.1-0.1,0.2-0.2c0,0,0-0.1,0-0.1c0,0,0.1,0,0.1,0c0.2,0,0.4,0,0.6-0.1c-0.1-0.1-0.2-0.1-0.3-0.2
				c0.2-0.2,0.4-0.4,0.6-0.5c0.1,0,0.2,0.1,0.3,0.1c0.1,0.2,0.2,0.5-0.1,0.6c-0.1,0-0.1,0.2-0.1,0.3c0.1,0,0.2,0,0.2-0.1
				c0.6-0.4,1.6-0.2,2.1,0.2c0.1,0.1,0.3,0.1,0.4,0.2c0.3,0.2,0.7,0.3,0.9,0.5c0.2,0.2,0.2,0.5,0.6,0.4c0,0,0.1,0.1,0.1,0.2
				c0,0.5,0.4,0.6,0.7,0.6c0.2,0,0.4,0,0.6,0c0.3,0,0.5,0.1,0.6,0.4c0.2,0.5,0.7,0.5,1.2,0.5c0.4,0,0.8,0.1,0.8,0.6
				c0,0.4,0.4,0.4,0.7,0.3c0.5-0.1,1.3,0.4,1.5,0.8c0.1,0.2,0.3,0.3,0.6,0.5C23.2,15.9,23.4,15.9,23.5,16z"/>
			<path class="st44" d="M12.1,9.7c-0.1,0-0.2-0.1-0.3-0.1c0-0.1,0.1-0.1,0.1-0.2c0.3-0.2,0.6-0.4,0.9-0.6c-0.1,0.2-0.3,0.3-0.4,0.5
				c-0.1,0.1-0.1,0.3-0.2,0.4C12.2,9.7,12.1,9.7,12.1,9.7z"/>
			<path class="st52" d="M24.3,15c-0.1,0.1-0.1,0.1-0.2,0.2c-0.1,0-0.2,0-0.3,0c0-0.1-0.1-0.2-0.1-0.3c0.1,0,0.1,0,0.2,0
				c0.1,0,0.1,0,0.2,0C24.2,15,24.2,15,24.3,15z"/>
			<path class="st44" d="M13.1,8.6c0.1-0.1,0.2-0.1,0.4-0.2c-0.1,0.3-0.2,0.5-0.6,0.4C12.9,8.7,13,8.6,13.1,8.6z"/>
			<path class="st45" d="M23.9,14.9c-0.1,0-0.1,0-0.2,0c0-0.1,0-0.2,0-0.3c0-0.1,0.1-0.2,0.1-0.2c0,0.1,0.1,0.2,0.1,0.3
				C24,14.8,23.9,14.9,23.9,14.9z"/>
			<path class="st52" d="M12.3,9.7c0.1-0.1,0.1-0.3,0.2-0.4c0,0.1,0,0.3,0,0.4C12.4,9.7,12.4,9.7,12.3,9.7z"/>
			<path class="st45" d="M24.9,14.1c-0.1,0.2-0.2,0.3-0.4,0.5C24.6,14.4,24.5,14.1,24.9,14.1z"/>
			<path class="st45" d="M24.3,15c0,0-0.1-0.1-0.1-0.1c0.1-0.1,0.2-0.1,0.4-0.2C24.4,14.8,24.3,14.9,24.3,15z"/>
			<path class="st45" d="M23.8,15.2c0.1,0,0.2,0,0.3,0c-0.1,0.1-0.1,0.1-0.2,0.2C23.9,15.4,23.9,15.3,23.8,15.2z"/>
			<path class="st45" d="M24.6,14.6c0,0-0.1,0.1-0.1,0.1C24.5,14.7,24.6,14.7,24.6,14.6z"/>
			<path class="st24" d="M12,9.4c0,0.1-0.1,0.1-0.1,0.2c-0.2,0.2-0.4,0.4-0.6,0.5c-0.1,0-0.2,0.1-0.3,0.1C11.2,9.8,11.3,9.3,12,9.4z
				"/>
			<path class="st24" d="M8.4,13.3c0,0,0,0.1,0,0.1c-0.1,0.1-0.1,0.2-0.2,0.3C8.2,13.9,8.1,14,8,14.2c0,0,0,0.1,0,0.1
				c-0.1,0.1-0.1,0.2-0.2,0.2c0,0,0,0,0,0C8,14.1,8.2,13.7,8.4,13.3z"/>
			<path class="st43" d="M10.9,10.2c0.1,0,0.2-0.1,0.3-0.1c0.1,0.1,0.2,0.1,0.3,0.2c-0.2,0-0.4,0-0.6,0.1
				C10.9,10.3,10.9,10.3,10.9,10.2z"/>
			<path class="st24" d="M10,11.3c-0.2,0.2-0.3,0.3-0.5,0.5c0-0.4,0.1-0.6,0.5-0.6C10,11.3,10,11.3,10,11.3z"/>
			<path class="st24" d="M10.8,10.3c0,0,0,0.1,0,0.1c-0.1,0.1-0.1,0.1-0.2,0.2c0,0,0,0,0,0c0,0.1-0.1,0.1-0.1,0.2c0,0,0,0,0,0
				c0,0-0.1,0-0.1,0.1c0,0-0.1,0-0.1,0C10.3,10.5,10.5,10.3,10.8,10.3z"/>
			<path class="st24" d="M9.3,12c-0.1,0.1-0.2,0.3-0.3,0.4C9.2,12.2,9.2,12.1,9.3,12z"/>
			<path class="st24" d="M8.8,12.7c-0.1,0.1-0.2,0.3-0.3,0.4C8.6,13,8.7,12.9,8.8,12.7z"/>
			<path class="st26" d="M12.2,8.9C12.2,8.9,12.2,8.9,12.2,8.9C12.2,8.8,12.2,8.8,12.2,8.9C12.2,8.8,12.2,8.8,12.2,8.9
				C12.2,8.8,12.2,8.9,12.2,8.9z"/>
			<path class="st26" d="M10.9,9.4C10.9,9.4,11,9.4,10.9,9.4c0,0.1,0,0.1,0,0.1C10.9,9.5,10.9,9.5,10.9,9.4
				C10.9,9.5,10.9,9.4,10.9,9.4z"/>
			<path class="st44" d="M10.3,10.9C10.3,10.9,10.4,10.9,10.3,10.9c0.1,0,0.1,0,0.1,0.1c-0.1,0-0.1,0.1-0.2,0.1
				C10.2,11,10.2,11,10.3,10.9C10.2,10.9,10.3,10.9,10.3,10.9z"/>
			<path class="st24" d="M9.5,11.8c0,0.1-0.1,0.1-0.1,0.2C9.4,11.9,9.4,11.9,9.5,11.8z"/>
			<path class="st24" d="M8.5,13.1c0,0.1-0.1,0.1-0.1,0.2C8.4,13.3,8.5,13.2,8.5,13.1z"/>
			<path class="st24" d="M10.2,10.9c0,0,0,0.1,0,0.1c0,0-0.1,0-0.1,0C10.1,11,10.2,11,10.2,10.9z"/>
			<path class="st44" d="M10,11.3c0,0,0-0.1,0-0.1c0,0,0.1,0,0.1,0C10,11.3,10,11.3,10,11.3z"/>
			<path class="st24" d="M9,12.5c0,0.1-0.1,0.1-0.1,0.2C8.9,12.6,8.9,12.6,9,12.5z"/>
			<path class="st27" d="M28.3,10c0.3,0,0.5,0,0.6-0.3c0,0,0.3-0.1,0.3,0c0.2,0.2,0.3,0.4,0.5,0.6c0.3,0.6,0.2,0.7-0.4,1
				c-0.3,0.2-0.7,0.2-0.8,0.7c0,0.1-0.2,0.2-0.3,0.2c-0.6,0.2-1.1,0.4-1.7,0.5c0,0-0.1-0.2-0.2-0.2c0.1-0.1,0.1-0.3,0.2-0.4
				c0,0,0,0,0,0c0.1-0.1,0.1-0.1,0.2-0.2c0,0,0,0,0,0c0.1-0.1,0.1-0.2,0.2-0.2c0,0,0,0,0,0c0.1-0.2,0.3-0.4,0.4-0.5
				c0.1-0.1,0.1-0.2,0.2-0.2c0.1-0.1,0.3-0.3,0.4-0.4c0-0.1,0.1-0.1,0.1-0.2l0,0c0,0,0,0,0,0c0,0,0.1-0.1,0.1-0.1c0,0,0,0,0,0
				C28.2,10.2,28.2,10.1,28.3,10C28.3,10,28.3,10,28.3,10z"/>
			<path class="st44" d="M28.3,10C28.3,10,28.3,10,28.3,10c-0.1,0.1-0.1,0.2-0.2,0.2c0,0,0,0,0,0c0,0-0.1,0.1-0.1,0.1l0,0
				c0,0,0,0,0,0c0,0.1-0.1,0.1-0.1,0.2c-0.1,0.1-0.3,0.3-0.4,0.4c0.3-0.7,0.5-1.3,1.3-1.7C28.6,9.5,28.5,9.7,28.3,10z"/>
			<path class="st44" d="M27.3,11.1c-0.1,0.2-0.3,0.4-0.4,0.5C26.9,11.4,26.9,11.1,27.3,11.1z"/>
			<path class="st44" d="M26.6,12.1c-0.1,0.1-0.1,0.3-0.2,0.4c-0.1,0-0.1,0.1-0.2,0.1C26.3,12.4,26.4,12.3,26.6,12.1z"/>
			<path class="st44" d="M27.2,8.3c-0.1,0-0.1,0.1-0.1,0.1c0,0-0.1-0.1-0.1-0.1c0,0,0.1-0.1,0.1-0.1C27.1,8.2,27.1,8.2,27.2,8.3z"/>
			<path class="st44" d="M26.9,11.7c-0.1,0.1-0.1,0.2-0.2,0.2C26.8,11.8,26.8,11.8,26.9,11.7z"/>
			<path class="st44" d="M26.7,11.9c-0.1,0.1-0.1,0.1-0.2,0.2C26.6,12,26.7,12,26.7,11.9z"/>
			<path class="st44" d="M26.2,12.6c0,0-0.1,0.1-0.1,0.1C26.1,12.7,26.1,12.7,26.2,12.6z"/>
			<path class="st29" d="M25.3,19.6c0-0.1,0-0.1,0-0.2c0.4,0,0.4-0.3,0.5-0.6c0.2-0.6,0.3-1.3,0.6-1.8c0.2-0.3,0.7-0.3,1.1-0.5
				c0.2-0.1,0.5-0.1,0.6-0.3c0.4-0.6,1-0.6,1.6-0.8c0.8-0.3,1.2-0.8,0.7-1.4c-0.1-0.1-0.1-0.2-0.1-0.3c0-0.2,0-0.4,0.1-0.7
				c0.1,0.2,0.3,0.3,0.4,0.5c0.1,0.1,0.2,0.2,0.3,0.3c0-0.1,0-0.2,0-0.4c-0.2-0.5-0.3-0.9-0.5-1.4c0-0.1,0-0.3,0-0.4
				c0.7,1.7,1.5,3.4,2.2,5.2c0.2,0.4,0,0.5-0.4,0.5c-0.4-0.1-0.8-0.1-1.2-0.2c-0.5-0.1-0.7,0.1-0.6,0.5c0,0,0,0.1,0,0.1
				c0,0.1-0.1,0.1-0.1,0.2c0,0-0.1,0-0.1,0C30.2,19,29.4,19.4,29,20c-0.4,0.6-0.9,1-1.6,1.2c-0.6,0.2-1.1,0.5-1.6,0.8
				c-0.1,0.1-0.2,0.4-0.3,0.6c-0.1,0.1-0.2,0.4-0.3,0.4c-0.1,0-0.3-0.1-0.4-0.2c-0.2-0.1-0.3-0.2-0.5-0.3c-0.1,0.2-0.3,0.4-0.4,0.6
				c-0.1,0.1-0.1,0.2-0.1,0.3c-0.3,0.1-0.7,0.2-0.6,0.7c0,0-0.1,0-0.2,0.1c-0.2,0.2-0.5,0.3-0.6,0.5c-0.1,0.4-0.4,0.4-0.7,0.3
				c0,0-0.1-0.1-0.1-0.1c0.2-0.2,0.4-0.4,0.6-0.6c0,0,0,0,0,0c0.4-0.4,0.8-0.8,1.1-1.3l0,0l0,0c0.1-0.1,0.1-0.2,0.2-0.3l0,0
				c0.1-0.1,0.2-0.3,0.3-0.4c0.2-0.4,0.4-0.8,0.7-1.2C25.1,20.9,25.4,20.1,25.3,19.6z"/>
			<path class="st49" d="M30.8,18.6C30.8,18.6,30.8,18.6,30.8,18.6C30.7,18.6,30.7,18.6,30.8,18.6C30.7,18.6,30.7,18.5,30.8,18.6
				C30.8,18.6,30.8,18.6,30.8,18.6z"/>
			<path class="st29" d="M30.3,19.1C30.3,19.1,30.3,19.1,30.3,19.1c0-0.1,0-0.1,0-0.1C30.3,19,30.3,19.1,30.3,19.1z"/>
			<path class="st29" d="M30.4,18.6C30.4,18.6,30.4,18.5,30.4,18.6c0-0.1,0-0.1,0-0.1C30.4,18.5,30.4,18.6,30.4,18.6z"/>
			<path class="st49" d="M30.6,17.9c0,0,0-0.1,0-0.1C30.6,17.8,30.6,17.8,30.6,17.9C30.6,17.8,30.6,17.9,30.6,17.9z"/>
			<path class="st33" d="M21.8,24.8c0,0,0.1,0.1,0.1,0.1c-0.3,0.3-0.5,0.8-1,0.5c0.1-0.1,0.2-0.2,0.3-0.2c0.1-0.1,0.2-0.1,0.3-0.2
				C21.6,24.9,21.7,24.8,21.8,24.8z"/>
			<path class="st29" d="M29.1,20.5c0.2-0.1,0.3-0.2,0.4-0.3c0,0.1,0.1,0.2,0.1,0.3c0,0.1-0.1,0.3-0.1,0.4
				C29.4,20.8,29.3,20.7,29.1,20.5z"/>
			<path class="st24" d="M29.6,22.1c0,0.1,0,0.1-0.1,0.2C29.6,22.2,29.6,22.1,29.6,22.1z"/>
			<path class="st29" d="M10.4,31.4c0,0.1-0.1,0.1-0.1,0.2c0,0,0,0,0,0C10.3,31.5,10.4,31.4,10.4,31.4
				C10.4,31.4,10.4,31.4,10.4,31.4z"/>
			<path class="st53" d="M23.7,22.9L23.7,22.9C23.7,22.9,23.6,22.9,23.7,22.9c-0.6,0.2-0.9,0.8-1.2,1.3c0,0,0,0,0,0
				c-0.5,0.1-1.1-0.3-1.7,0.1c0,0-0.2-0.1-0.3-0.2c-0.1-0.5-0.3-0.5-0.8-0.5c-0.5,0-1,0-1.3-0.6c-0.2-0.3-0.7-0.3-1-0.5
				c-0.2-0.1-0.4-0.2-0.6-0.3c-0.4-0.2-0.7-0.3-1.1-0.5c-0.1,0-0.3,0-0.3-0.1c-0.2-0.6-0.8-0.5-1.2-0.7c-0.1-0.1-0.2-0.3-0.4-0.4
				c0.2-0.1,0.3-0.2,0.5-0.3c0.1,0,0.2,0,0.3,0c0.1-0.1,0.2-0.2,0.3-0.3c-0.1-0.1-0.2-0.2-0.3-0.2c-0.7-0.1-1.3-0.1-2-0.1
				c-0.5,0-0.7-0.3-0.8-0.7c-0.1-0.4-0.4-0.5-0.7-0.4c-0.5,0.1-0.9,0.1-1-0.5c0-0.1-0.3-0.2-0.4-0.2c-0.4,0-0.8,0-1.1-0.3
				c0-0.1-0.3,0.1-0.4,0.1c-0.1,0-0.2,0.1-0.2,0c0,0-0.1-0.1-0.1-0.2c-0.1-0.5-0.2-0.9-0.3-1.4c0,0-0.1,0-0.1,0c0,0-0.1,0-0.1,0
				c0-0.1,0.1-0.2,0.1-0.3c0.1-0.2,0.1-0.4,0.2-0.5c0,0,0,0,0,0c0-0.1,0.1-0.1,0.1-0.2c0,0,0,0,0,0c0-0.1,0.1-0.1,0.1-0.2
				c0,0,0,0,0,0c0.1-0.2,0.2-0.3,0.2-0.5c0,0,0-0.1,0-0.1c0.3,0,0.5-0.1,0.2-0.4c0.1-0.1,0.1-0.2,0.2-0.3c0.2-0.1,0.3-0.2,0.5-0.3
				C9,13,9.1,12.9,9.2,12.8l0,0c0.1,0.1,0.1,0.3,0.2,0.3c0.4-0.1,0.6,0.2,0.9,0.4c0.9,0.5,1.8,0.8,2.7,1.1c0.1,0.1,0.3,0.1,0.3,0.2
				c0.2,0.3,0.5,0.3,0.8,0.4c0.3,0.1,0.7,0.2,1,0.6c0.1,0.1,0.4,0.2,0.6,0.2c0.5,0,0.9,0,1.1,0.6c0.1,0.2,0.5,0.4,0.8,0.4
				c0.3,0,0.6,0.1,0.8,0.4c0.2,0.3,0.5,0.7,1.1,0.4c0.1,0,0.4,0.1,0.4,0.2c0.2,0.6,0.7,0.7,1.2,0.9c0.6,0.1,1.3,0.2,1.5,0.9
				c0,0.1,0.2,0.2,0.4,0.2c0.3,0.1,0.5,0.2,0.8,0.3c0.1,0,0.3,0,0.4,0c0.1,0,0.2-0.1,0.3-0.1c0,0.1,0,0.3-0.1,0.4
				c-0.1,0.2-0.1,0.4-0.3,0.5c-0.5,0.2-0.4,0.5-0.2,0.9c-0.1,0.1-0.1,0.3-0.2,0.4c0,0,0,0,0,0C23.8,22.7,23.7,22.8,23.7,22.9z"/>
			<path class="st24" d="M6.7,21.8C6.3,21.7,6,21.5,6.1,21c0.1,0,0.1,0,0.2,0C6.4,21.3,6.6,21.6,6.7,21.8z"/>
			<path class="st24" d="M7.4,22.6c-0.4-0.1-0.6-0.3-0.6-0.7C6.9,22.1,7.2,22.3,7.4,22.6z"/>
			<path class="st32" d="M6.3,21c-0.1,0-0.1,0-0.2,0C6,20.9,6,20.8,5.9,20.7c0.1-0.1,0.2-0.1,0.4-0.2C6.3,20.7,6.3,20.8,6.3,21z"/>
			<path class="st53" d="M6.8,17.3C6.8,17.3,6.8,17.2,6.8,17.3c0.1,0,0.2,0.1,0.3,0.2c-0.1,0.1-0.3,0.1-0.4,0.2c0-0.1,0-0.1,0-0.2
				C6.8,17.4,6.8,17.3,6.8,17.3z"/>
			<path class="st53" d="M21.5,24.9c-0.1,0.1-0.2,0.1-0.3,0.2c0-0.1,0-0.2-0.1-0.3C21.3,24.9,21.4,24.9,21.5,24.9z"/>
			<path class="st24" d="M9.4,24.3c-0.1-0.1-0.2-0.1-0.3-0.2C9.2,24.2,9.3,24.3,9.4,24.3z"/>
			<path class="st24" d="M7.8,23c-0.1-0.1-0.2-0.2-0.3-0.3C7.7,22.9,7.7,23,7.8,23z"/>
			<path class="st24" d="M8,23.2c-0.1-0.1-0.1-0.1-0.2-0.2C7.9,23.1,8,23.2,8,23.2z"/>
			<path class="st24" d="M7.6,22.8c0,0-0.1-0.1-0.1-0.1C7.5,22.7,7.5,22.7,7.6,22.8z"/>
			<path class="st52" d="M7.4,16c0,0,0.1,0,0.1,0C7.4,16,7.4,16,7.4,16z"/>
			<path class="st32" d="M6.2,18.9c0,0.1,0,0.1,0,0.2c0,0-0.1-0.1-0.1-0.1C6.1,19,6.2,18.9,6.2,18.9z"/>
			<path class="st32" d="M6.2,20c0,0.1,0,0.1,0,0.2c0,0-0.1-0.1-0.1-0.1C6.1,20,6.1,20,6.2,20z"/>
			<path class="st52" d="M7.6,15.1c-0.1,0.2-0.1,0.4-0.2,0.5C7.4,15.5,7.4,15.3,7.6,15.1C7.5,15.1,7.5,15.1,7.6,15.1z"/>
			<path class="st48" d="M6.8,17.3c0,0.1,0,0.1-0.1,0.2C6.8,17.4,6.8,17.3,6.8,17.3z"/>
			<path class="st52" d="M8,14.3c-0.1,0.2-0.2,0.3-0.2,0.5c0-0.1,0-0.1,0-0.2C7.8,14.4,7.9,14.3,8,14.3z"/>
			<path class="st52" d="M7.7,15c0,0.1-0.1,0.1-0.1,0.2C7.6,15.1,7.6,15,7.7,15z"/>
			<path class="st52" d="M7.8,14.7c0,0.1-0.1,0.1-0.1,0.2C7.7,14.9,7.7,14.8,7.8,14.7z"/>
			<path class="st47" d="M25.3,19.6c0.1,0.5-0.2,1.2-0.5,1.4C24.9,20.6,25.1,20.1,25.3,19.6z"/>
			<path class="st53" d="M9.2,12.8c0-0.1,0.1-0.2,0.1-0.3c0,0,0.1,0.1,0.1,0.1C9.4,12.7,9.3,12.7,9.2,12.8
				C9.2,12.8,9.2,12.8,9.2,12.8z"/>
			<path class="st44" d="M23.8,22.6c0.1-0.1,0.1-0.3,0.2-0.4c0,0,0,0,0.1,0C24,22.3,23.9,22.4,23.8,22.6z"/>
			<path class="st43" d="M10.6,10.6c0.1-0.1,0.1-0.1,0.2-0.2C10.8,10.5,10.7,10.6,10.6,10.6z"/>
			<path class="st43" d="M10.5,10.8c0-0.1,0.1-0.1,0.1-0.2C10.6,10.7,10.5,10.8,10.5,10.8z"/>
			<path class="st43" d="M10.4,10.9C10.4,10.9,10.4,10.9,10.4,10.9c0-0.1,0-0.1,0.1-0.1C10.5,10.8,10.4,10.9,10.4,10.9z"/>
			<path class="st52" d="M8.2,13.7c0.3,0.3,0.1,0.4-0.2,0.4C8.1,14,8.2,13.9,8.2,13.7z"/>
			<path class="st47" d="M28.1,10.2c0,0,0.1-0.1,0.1-0.1C28.2,10.1,28.2,10.2,28.1,10.2z"/>
			<path class="st47" d="M28.1,10.3C28.1,10.3,28.1,10.2,28.1,10.3C28.1,10.2,28.1,10.3,28.1,10.3z"/>
			<path class="st47" d="M27.9,10.5c0-0.1,0.1-0.1,0.1-0.2C28,10.4,27.9,10.5,27.9,10.5z"/>
			<path class="st44" d="M22.5,24.2c0.3-0.5,0.5-1.1,1.1-1.3C23.2,23.3,22.9,23.7,22.5,24.2z"/>
			<path class="st44" d="M23.7,22.9c0.1-0.1,0.1-0.2,0.2-0.3C23.8,22.7,23.7,22.8,23.7,22.9z"/>
		</g>
	</g>
</g>
</svg>
