<?xml version="1.0" encoding="utf-8"?>
<!-- Generator: Adobe Illustrator 27.9.0, SVG Export Plug-In . SVG Version: 6.00 Build 0)  -->
<svg version="1.1" xmlns="http://www.w3.org/2000/svg" xmlns:xlink="http://www.w3.org/1999/xlink" x="0px" y="0px"
	 viewBox="0 0 42 42" style="enable-background:new 0 0 42 42;" xml:space="preserve">
<style type="text/css">
	.st0{fill:#FFFFFF;}
	.st1{fill:none;stroke:#000000;stroke-width:1.28;stroke-miterlimit:6.4;}
	.st2{fill:none;stroke:#000000;stroke-width:1.28;stroke-linecap:round;stroke-miterlimit:6.4;}
</style>
<g id="Layer_1">
	<g id="Layer_2_00000101075601490215772050000009429454008611711365_">
		<path d="M42,9v28c0,2.8-2.2,5-5,5H9c-2.8,0-5-2.2-5-5V9c0-2.8,2.2-5,5-5h28C39.8,4,42,6.2,42,9z"/>
	</g>
	<g id="Layer_1_00000038407360655897716100000015967259271426240944_">
		<g id="XMLID_00000168824196801138155310000001267447264254332329_">
			<g>
				<path class="st0" d="M40,7v28c0,2.8-2.2,5-5,5H7c-2.8,0-5-2.2-5-5V7c0-2.8,2.2-5,5-5h28C37.8,2,40,4.2,40,7z"/>
			</g>
		</g>
	</g>
</g>
<g id="Layer_2">
	<g>
		<path class="st1" d="M21.6,14.7c-7.4,0-13.4,4.3-13.4,9.6s6,9.6,13.4,9.6s13.4-4.3,13.4-9.6S29,14.7,21.6,14.7L21.6,14.7z"/>
	</g>
	<circle class="st1" cx="26.7" cy="22.3" r="1.9"/>
	<circle class="st1" cx="16.5" cy="22.3" r="1.9"/>
	<path class="st2" d="M15.8,28.1c0,0,1.7,2.4,5.8,2.4s5.8-2.4,5.8-2.4"/>
	<path class="st1" d="M21.6,14.7c0-3.8,0.8-6.4,2.6-6.4s1.7,2.6,5.1,2.6"/>
	<path class="st1" d="M30.8,16.8c1.2-1.2,2.9-1.2,4.1,0c1.2,1.2,1.2,2.9,0,4.1l-0.3,0.3"/>
	<path class="st1" d="M12.5,16.8c-1.2-1.2-2.9-1.2-4.1,0c-1.2,1.2-1.2,2.9,0,4.1l0.3,0.3"/>
	<circle class="st1" cx="31.9" cy="10.8" r="2.6"/>
</g>
</svg>
