<?xml version="1.0" encoding="utf-8"?>
<!-- Generator: Adobe Illustrator 27.9.0, SVG Export Plug-In . SVG Version: 6.00 Build 0)  -->
<svg version="1.1" xmlns="http://www.w3.org/2000/svg" xmlns:xlink="http://www.w3.org/1999/xlink" x="0px" y="0px"
	 viewBox="0 0 50 50" style="enable-background:new 0 0 50 50;" xml:space="preserve">
<style type="text/css">
	.st0{fill:#FFFFFF;}
	.st1{fill:none;stroke:#000000;stroke-width:2.8401;stroke-miterlimit:16.6667;}
</style>
<g id="Layer_3">
	<path d="M50,10.6V44c0,3.3-2.6,6-6,6H10.3c-3.4,0-6-2.6-6-6V10.6c0-3.3,2.6-6,6-6H44C47.4,4.6,50,7.3,50,10.6z"/>
</g>
<g id="Layer_2">
	<path class="st0" d="M47.7,8.6v33c0,3.3-2.6,5.9-5.9,5.9H8.5c-3.3,0-5.9-2.6-5.9-5.9v-33c0-3.3,2.6-5.9,5.9-5.9h33.3
		C45.1,2.7,47.7,5.3,47.7,8.6z"/>
</g>
<g id="Layer_1">
	<g id="Filled_1_">
		<g id="XMLID_00000178887554893121146040000003387641196811006387_">
			<g>
				<path class="st0" d="M21.3,38.2c0,0-0.3,0.2-0.5,0.2c-0.1,0-0.2-0.1-0.3-0.1c0,0-0.3,0-0.8-1.4c-0.4-1.3-2.4-7.4-2.4-7.4
					s-5.6-2.3-7.2-2.9c-0.6-0.3-1.1-0.6-1.1-1.3c0-0.9,0.8-1.1,1.2-1.3c6.9-3,27.1-11.7,28.1-12.1c0.9-0.3,2.2-0.2,1.9,1.7
					c0,0-4.7,24.4-4.9,25.1c-0.1,0.5-0.7,1.4-1.5,1.4c-0.7,0-1.3-0.7-1.3-0.7l-6.1-5.8L21.3,38.2z"/>
			</g>
			<g>
				<path class="st1" d="M38.5,12c-1,0.4-21.2,9.1-28.1,12.1c-0.4,0.2-1.2,0.4-1.2,1.3c0,0.7,0.5,1,1.1,1.3c1.5,0.6,7.2,2.9,7.2,2.9
					s2,6.1,2.4,7.4c0.4,1.4,0.8,1.4,0.8,1.4c0.1,0,0.2,0.1,0.3,0.1c0.3,0,0.5-0.2,0.5-0.2l5.2-4.5l6.1,5.8c0,0,0.6,0.7,1.3,0.7
					c0.9,0,1.4-0.9,1.5-1.4c0.2-0.8,4.9-25.1,4.9-25.1C40.7,11.8,39.4,11.7,38.5,12z"/>
			</g>
		</g>
		<path d="M33.1,19c-0.3,0-0.5,0.2-0.7,0.3c-2.2,1.4-13.5,7.9-16.5,9.7c0.9,0.3,1.4,0.6,1.4,0.6s2,6.1,2.4,7.4
			c0.4,1.4,0.8,1.4,0.8,1.4c0.1,0,0.2,0.1,0.3,0.1c0.1,0,0.1,0,0.2,0l2-8.2c0,0,9.3-9.6,9.9-10.2c0.4-0.4,0.5-0.6,0.5-0.8
			C33.4,19.1,33.3,19,33.1,19z"/>
	</g>
</g>
</svg>
